<svg style="position: absolute; width: 0; height: 0;" width="0" height="0" version="1.1" xmlns="http://www.w3.org/2000/svg" xmlns:xlink="http://www.w3.org/1999/xlink">
<defs>
  <symbol id="icon-speed" viewBox="0 0 70 70">
    <circle cx="33.453" cy="41.383" r="5.225"/>
    <path d="M63.68 37.9c-.105-.112-.268-.147-.406-.088l-3.31 1.387c-.59-7.17-4.037-13.52-9.175-17.96l1.87-2.827c1.1-1.662.644-3.9-1.016-5-1.665-1.107-3.9-.65-5 1.01l-2.44 2.88C41.822 16.18 39 15.403 36 15.033V12h1.51c2.656 0 4.81-1.844 4.81-4.5 0-2.657-2.154-4.5-4.81-4.5h-8.115c-2.657 0-4.81 1.843-4.81 4.5 0 2.656 2.153 4.5 4.81 4.5H30v3.036C16 16.808 6.913 27.932 6.913 41.383 6.913 56.06 18.815 68 33.493 68c9.257 0 17.397-4.756 22.168-11.946-1.16-.208-2.18-.917-2.7-1.997l-2.08-4.184c-3.155 6.45-9.77 10.91-17.42 10.91-10.7 0-19.403-8.702-19.403-19.4 0-10.7 8.702-19.405 19.402-19.406 9.97 0 18.196 7.563 19.272 17.25l-3.385-1.415c-.14-.06-.3-.024-.407.087-.104.11-.093.27-.026.404C51.434 43.414 51 43.034 56 52.58v.002c0 .143.182.232.342.232.158 0 .288-.09.358-.232 5.704-11.533 4.228-8.566 7.048-14.273.065-.14.033-.3-.068-.41z"/>
  </symbol>
  <symbol id="icon-sound" viewBox="0 0 70 70">
    <path d="M34.716 7.75L13.906 24H3v22h10.907L34.27 61.406s3.73 3.42 3.73.187v-54.5c0-2.537-3.284.657-3.284.657zm14.917 10.137c-1.07-1.07-2.806-1.07-3.877 0-1.07 1.073-1.07 2.814 0 3.872 3.527 3.533 5.277 8.122 5.283 12.745-.01 4.633-1.76 9.25-5.286 12.774-1.07 1.066-1.07 2.814 0 3.886.536.534 1.234.8 1.942.8.7 0 1.4-.263 1.935-.8 4.598-4.6 6.894-10.642 6.888-16.66.004-6.012-2.298-12.034-6.888-16.62z"/>
    <path d="M57.073 9.25c-1.086-1.075-2.815-1.075-3.896 0-1.063 1.078-1.063 2.81 0 3.885 5.925 5.922 8.886 13.643 8.89 21.4-.004 7.79-2.953 15.56-8.89 21.5-1.068 1.072-1.063 2.807 0 3.883.537.532 1.247.8 1.947.8.704 0 1.412-.268 1.948-.8 6.987-7.016 10.485-16.21 10.485-25.384.002-9.143-3.52-18.304-10.484-25.283z"/>
  </symbol>

  <symbol id="icon-shape-millennium-falcon" viewBox="0 0 70 70">
    <path d="M63.722 34.535c-1.21-1.21-2.96-1.556-4.482-1.047l5.674-18.006c.14-.444.02-.93-.31-1.258l-8.83-8.83c-.327-.328-.81-.45-1.25-.31l-27.73 8.522c-4.07 1.062-7.907 3.19-11.076 6.358-.63.63-1.223 1.295-1.78 1.986-.022.025-.043.05-.063.078-2.584 3.236-4.34 7.085-5.036 11.1L5.4 36.313c-.255.236-.4.57-.4.918.012 7.41 2.903 14.37 8.14 19.61 5.096 5.1 12.386 8.14 19.5 8.14.33 0 .645-.13.878-.36l3.437-3.4c5.025-.83 9.584-3.18 13.205-6.8 2.525-2.52 4.473-5.59 5.682-8.93l1.856.43c.094.03.19.04.283.04.33 0 .65-.12.89-.36l4.86-4.85c1.71-1.7 1.71-4.48 0-6.18z"/>
  </symbol>
  <symbol id="icon-shape-cross" viewBox="0 0 70 70">
    <path d="M57.308 27h-6.923C46.137 27 43 23.864 43 19.615v-6.922C43 8.443 39.248 5 35 5s-8 3.444-8 7.692v6.922C27 23.864 23.864 27 19.615 27h-6.923C8.444 27 5 30.752 5 35s3.444 8 7.692 8h6.923C23.865 43 27 46.137 27 50.385v6.923C27 61.556 30.752 65 35 65s8-3.444 8-7.692v-6.923C43 46.137 46.137 43 50.385 43h6.923C61.556 43 65 39.248 65 35s-3.444-8-7.692-8z"/>
  </symbol>
  <symbol id="icon-shape-cross-light" viewBox="0 0 70 70">
    <path d="M60.464 31h-16.39C41.566 31 39 28.433 39 25.927V9.537C39 7.03 37.006 5 34.5 5S30 7.03 30 9.537v16.39C30 28.433 28.433 31 25.927 31H9.537C7.03 31 5 32.994 5 35.5S7.03 40 9.537 40h16.39C28.433 40 30 41.567 30 44.073v16.39C30 62.97 31.994 65 34.5 65s4.5-2.03 4.5-4.536v-16.39C39 41.566 41.567 40 44.073 40h16.39C62.97 40 65 38.006 65 35.5S62.97 31 60.464 31z"/>
  </symbol>
  <symbol id="icon-shape-formless" viewBox="0 0 70 70">
    <path d="M64.33 30.867c-1.34-5.112-2.346-7.542-6.62-12.15-3.55-3.83-7.457-5.95-15-5.867-7.54.084-12.57 1.34-16.424 11.48-4.17 10.967-6.754 9.146-12.65 11C8.1 37.067 5 41.095 5 46.453c0 6.34 5.74 11.23 12.067 10.81 2.515-.167 7.03-.04 11.812-6.515s8.68-9.052 15.25-1.195c8.13 9.722 16.68 1.183 18.77-4.274 1.01-2.34 3.19-7.67 1.42-14.42z"/>
  </symbol>
  <symbol id="icon-shape-hat" viewBox="0 0 70 70">
    <path d="M44.356 14.357C42.524 9.444 40.166 5 35 5s-7.485 4.25-9.356 9.357c-1.107 3.02-12.924 34.902-12.924 39.94C12.72 60.21 22.695 65 35 65c12.306 0 22.28-4.79 22.28-10.702 0-5.16-11.696-36.652-12.924-39.94z"/>
  </symbol>
  <symbol id="icon-shape-bird" viewBox="0 0 70 70">
    <path d="M60.124 20.068s4.188-5.038 4.524-5.363c.488-.487.488-1.07 0-1.56-.25-.236-.574-.145-.9-.145h-6.013c-2.736-5-7.7-7.716-13.35-7.716-8.626 0-15.626 6.857-15.626 15.482 0 5.176-4.2 9.233-9.38 9.233H7.48c-1.377 0-2.5 1.15-2.5 2.53l.132.35C6.23 43.76 14 52.78 24 56.14v5.8c0 1.728 1.275 3.127 3 3.127s3-1.4 3-3.13v-4.49c1 .072 1.662.11 2.5.11.836 0 1.5-.04 2.5-.114v4.487c0 1.727 1.275 3.126 3 3.126 1.726 0 3-1.4 3-3.127v-5.8c11-3.65 19-13.95 19-26.08V28h3.748c.326 0 .65-.34.9-.578.488-.487.488-1.396 0-1.883-.338-.33-4.524-5.48-4.524-5.48z"/>
  </symbol>
  <symbol id="icon-shape-cloud" viewBox="0 0 70 70">
    <path d="M56.33 33.762c.092-.522.15-1.06.15-1.607 0-5.12-4.152-9.27-9.272-9.27-1.114 0-2.184.206-3.177.568-3.02-4.68-8.26-7.787-14.24-7.787-9.36 0-16.95 7.592-16.95 16.957 0 .44.03.87.07 1.303C8.36 35.063 5 38.916 5 43.8 5 49.563 9.672 54 15.435 54h39.13C60.328 54 65 49.563 65 43.8c0-5.158-3.75-9.198-8.67-10.038z"/>
  </symbol>
  <symbol id="icon-shape-flower" viewBox="0 0 70 70">
    <path d="M62.148 28.93c-2.77-2.197-4.183-5.606-3.778-9.12.265-2.298-.52-4.555-2.157-6.19-1.636-1.635-3.893-2.42-6.19-2.156-3.515.403-6.923-1.008-9.12-3.778-1.44-1.813-3.59-2.853-5.903-2.853s-4.465 1.04-5.902 2.852c-2.198 2.77-5.606 4.182-9.12 3.778-2.3-.266-4.555.52-6.19 2.157-1.637 1.635-2.423 3.892-2.158 6.19.404 3.513-1.008 6.922-3.778 9.12C6.04 30.37 5 32.52 5 34.834c0 2.313 1.04 4.465 2.85 5.903 2.772 2.198 4.184 5.607 3.78 9.12-.266 2.3.52 4.555 2.156 6.19 1.637 1.636 3.895 2.422 6.19 2.157 3.513-.404 6.923 1.008 9.12 3.777 1.44 1.82 3.59 2.86 5.903 2.86s4.46-1.04 5.9-2.85c2.2-2.77 5.6-4.18 9.12-3.77 2.3.27 4.55-.52 6.19-2.15s2.42-3.89 2.15-6.19c-.41-3.51 1.01-6.92 3.78-9.12 1.82-1.45 2.86-3.6 2.86-5.91s-1.04-4.46-2.86-5.9z"/>
  </symbol>
  <symbol id="icon-shape-heart" viewBox="0 0 70 70">
    <path d="M65 27.21c0 7.376-4.062 13.396-12.417 18.406-10.542 6.32-15.72 13.93-15.772 14.006-.4.604-1.08.966-1.81.966s-1.4-.36-1.81-.963c-.08-.117-5.31-7.74-15.77-14.01C9.06 40.605 5 34.585 5 27.21c0-8.79 5.73-18.132 16.346-18.132 7.112 0 11.423 3.148 13.654 5.508 2.23-2.36 6.542-5.508 13.654-5.508C59.27 9.078 65 18.42 65 27.21z"/>
  </symbol>
  <symbol id="icon-shape-heart-stone" viewBox="0 0 70 70">
    <path d="M64.99 25.53c-.008-.088-.004-.17-.017-.252-.03-.19-.09-.378-.164-.56-.02-.038-.02-.078-.04-.118 0-.002-.01-.006-.01-.01 0-.003 0-.005-.01-.008l-6.64-14.09c-.02-.03-.05-.06-.06-.093-.03-.04-.03-.09-.06-.13-.05-.09-.12-.15-.18-.23-.06-.08-.12-.17-.18-.23-.1-.11-.22-.19-.33-.28-.08-.06-.14-.12-.22-.17-.14-.08-.28-.14-.43-.2-.08-.03-.15-.06-.23-.08-.23-.07-.47-.09-.71-.09h-39.1c-.24 0-.46.02-.68.08-.08.02-.15.05-.22.08-.13.05-.27.09-.4.16-.08.04-.15.1-.22.15-.11.07-.22.15-.32.24-.07.06-.12.14-.18.22-.07.08-.16.16-.21.25l-9 14.1c-.04.05-.05.12-.08.17-.03.04-.07.08-.09.13-.03.05-.03.1-.05.16-.05.12-.09.25-.12.39-.02.1-.04.21-.05.31-.02.13-.02.26-.01.39l.03.32c.023.13.064.25.105.377.04.102.07.21.12.31.02.034.026.074.04.11.05.09.12.156.177.235.044.07.072.14.125.2l27.253 32.2c.47.554 1.177.947 1.88.93.01 0 .087-.013.093-.013.04.003.78.076 1.56-.5.173-.13.345-.25.49-.424L64.37 27.41c.04-.043.06-.09.09-.133.05-.055.1-.1.14-.16.04-.06.06-.13.09-.197.05-.082.09-.17.13-.26.05-.132.09-.27.12-.404.02-.096.05-.18.05-.276.02-.15.02-.3.01-.45z"/>
  </symbol>
  <symbol id="icon-shape-mustache" viewBox="0 0 70 70">
    <path d="M62.076 42.746c-2.543 2.904-6.53 4.377-11.85 4.377-9.648 0-13.604-3.183-15.227-5.823-1.63 2.64-5.58 5.823-15.23 5.823-5.32 0-9.31-1.473-11.85-4.377-3.55-4.05-2.89-9.34-2.86-9.563.08-.595.61-1.02 1.21-.974.6.05 1.05.56 1.03 1.16-.01.41.16 2.56 3.74 2.64h.03c1.6 0 3.3-2.69 4.94-5.29 2.47-3.91 5.27-8.34 9.89-8.34 5.09 0 7.77 2.29 9.06 4.04 1.292-1.75 3.97-4.04 9.07-4.04 4.62 0 7.42 4.42 9.89 8.33 1.65 2.6 3.35 5.29 4.95 5.29h.035c3.58-.09 3.75-2.23 3.747-2.66-.02-.6.436-1.11 1.033-1.16.595-.05 1.13.38 1.21.98.03.22.69 5.51-2.856 9.56z"/>
  </symbol>
  <symbol id="icon-shape-star" viewBox="0 0 70 70">
    <path d="M64.696 27.498c-.73-2.244-2.67-3.88-5.004-4.218L46.47 21.358l-5.912-11.98C39.514 7.26 37.358 5.92 35 5.92c-2.36 0-4.514 1.34-5.558 3.455l-5.912 11.98-13.223 1.923c-2.334.34-4.274 1.975-5.003 4.218-.73 2.244-.12 4.707 1.568 6.354l9.568 9.326-2.26 13.17c-.4 2.324.557 4.674 2.466 6.06s4.44 1.57 6.527.473L35 56.66l11.826 6.218c.907.48 1.897.713 2.884.713 1.285 0 2.564-.4 3.644-1.18 1.91-1.39 2.865-3.74 2.466-6.06l-2.26-13.17 9.568-9.32c1.688-1.64 2.297-4.11 1.568-6.35z"/>
  </symbol>
  <symbol id="icon-shape-storm-cloud" viewBox="0 0 70 70">
    <path d="M63.504 48.508c.545-.665.873-1.516.873-2.443 0-2.132-1.728-3.86-3.86-3.86-.394 0-.774.062-1.134.172-.857-1.896-2.706-3.248-4.887-3.393-.123-1.22-.49-2.37-1.052-3.4.227-.676.352-1.4.352-2.154 0-1.22-.324-2.366-.89-3.356 2.59-2.052 4.25-5.22 4.25-8.78 0-.47-.032-.934-.088-1.39 2.054-.515 3.574-2.373 3.574-4.586 0-2.613-2.118-4.73-4.73-4.73-1.39 0-2.638.6-3.503 1.552-1.83-1.29-4.06-2.05-6.46-2.05-5.39 0-9.88 3.8-10.96 8.864-.72-.335-1.52-.523-2.37-.523-1.34 0-2.58.48-3.54 1.26-1.4-2.74-4.25-4.62-7.54-4.62-4.68 0-8.47 3.79-8.47 8.47 0 3.35 1.94 6.24 4.76 7.62-.26.65-.41 1.36-.41 2.1 0 .73.14 1.43.39 2.07-1.25.75-2.14 2.05-2.34 3.56-.18-.01-.36-.02-.55-.02-3.78 0-6.85 3.07-6.85 6.85 0 1.66.59 3.18 1.57 4.36H9.5C7.033 50.05 5 52.09 5 54.59c0 2.51 2.034 4.545 4.543 4.545 1.368 0 1.26-.187 3.454-.7 2.24.747 2.567 1.12 4.2.95 2.338-.246 4.376-1.387 5.306-3.385.18.014.362.022.545.022 3.987 0 6.146-.996 8.294-4.776.112-.198 2.754-.327 5.04-1.26 2.147-.877 2.522-1.262 4.162-2.554 1.426.943 3.135 1.494 4.973 1.494 1.375 0 2.678-.31 3.844-.858 1.05 1.497 2.79 2.478 4.75 2.478 1.52 0 2.89-.582 3.93-1.534.68.568 1.54.91 2.49.91.16 0 .31-.01.46-.028-.05.187-.08.385-.08.59 0 1.135.92 2.054 2.06 2.054s2.05-.92 2.05-2.054c0-.94-.63-1.732-1.49-1.976z"/>
  </symbol>

  <symbol id="icon-battle-droid" viewBox="0 0 70 70">
    <path d="M39.59 63.443h-8.18c-.752 0-1.362-.61-1.362-1.363v-1.818c0-2.86 2.878-4.998 5.452-4.998s5.453 2.14 5.453 4.998v1.818c0 .752-.61 1.363-1.363 1.363zm-6.817-2.726h5.453v-.455c0-1.17-1.536-2.27-2.727-2.27s-2.73 1.1-2.73 2.27v.455zm-4.77-34.077c-1.128 0-2.045-.917-2.045-2.046 0-1.127.917-2.043 2.045-2.043 1.127 0 2.045.92 2.045 2.05s-.918 2.05-2.045 2.05zm0-2.726c-.376 0-.682.305-.682.68 0 .377.31.682.69.682s.68-.305.68-.682c0-.375-.3-.68-.68-.68zm14.995 2.726c-1.13 0-2.045-.917-2.045-2.046 0-1.127.916-2.043 2.045-2.043 1.127 0 2.045.92 2.045 2.05s-.918 2.05-2.045 2.05zm0-2.726c-.377 0-.682.305-.682.68 0 .377.305.682.682.682.375 0 .682-.305.682-.682 0-.375-.307-.68-.682-.68zm8.86 44.3H19.142c-.753 0-1.363-.61-1.363-1.364 0-.752.61-1.36 1.36-1.36h32.71c.75 0 1.36.608 1.36 1.36 0 .754-.61 1.363-1.37 1.363z"/>
    <path d="M64.125 68.213H51.857c-.752 0-1.363-.61-1.363-1.363V61.4c0-.755.61-1.364 1.363-1.364h12.268c.754 0 1.363.61 1.363 1.363v5.45c0 .75-.61 1.36-1.363 1.36zM53.22 65.488h9.542V62.76h-9.54v2.728zm-34.077 2.725H6.875c-.753 0-1.363-.61-1.363-1.363V61.4c0-.755.61-1.364 1.363-1.364h12.268c.753 0 1.363.61 1.363 1.363v5.45c0 .75-.61 1.36-1.363 1.36zM8.238 65.488h9.54V62.76H8.24v2.728z"/>
    <path d="M6.875 68.213H4.148c-.753 0-1.363-.61-1.363-1.363 0-.752.61-1.36 1.363-1.36h2.727c.753 0 1.363.608 1.363 1.36 0 .754-.61 1.363-1.363 1.363zm59.977 0h-2.727c-.752 0-1.363-.61-1.363-1.363 0-.752.61-1.36 1.363-1.36h2.727c.752 0 1.363.608 1.363 1.36 0 .754-.61 1.363-1.363 1.363zM46.064 60.72c-.52 0-1.016-.298-1.242-.802C43.168 56.262 39.51 53.9 35.5 53.9c-4.01 0-7.667 2.36-9.32 6.016-.31.686-1.118.99-1.803.68-.687-.31-.99-1.12-.68-1.805 2.092-4.62 6.726-7.61 11.803-7.61 5.078 0 9.713 2.99 11.805 7.62.31.69.006 1.49-.68 1.8-.182.09-.373.12-.56.13z"/>
    <path d="M45.723 60.717h-6.29c-.753 0-1.362-.61-1.362-1.363s.61-1.363 1.37-1.363h6.29c.76 0 1.36.62 1.36 1.37s-.61 1.37-1.36 1.37zm-14.16 0h-6.286c-.753 0-1.362-.61-1.362-1.363s.61-1.363 1.362-1.363h6.286c.753 0 1.363.62 1.363 1.37s-.61 1.37-1.363 1.37zm6.657 7.496c-.752 0-1.362-.61-1.362-1.363v-4.77c0-.754.61-1.363 1.363-1.363.76 0 1.37.61 1.37 1.363v4.77c0 .754-.61 1.363-1.36 1.363zm-5.45 0c-.754 0-1.364-.61-1.364-1.363v-4.77c0-.754.61-1.363 1.363-1.363s1.36.61 1.36 1.363v4.77c0 .754-.61 1.363-1.37 1.363z"/>
    <path d="M25.958 68.215c-.154 0-.312-.027-.466-.084-.707-.25-1.072-1.03-.814-1.74l2.726-7.5c.258-.7 1.04-1.07 1.747-.81.71.26 1.08 1.04.82 1.75l-2.73 7.5c-.2.56-.72.9-1.28.9zm19.085 0c-.56 0-1.08-.344-1.28-.898l-2.728-7.496c-.258-.7.107-1.49.814-1.74.7-.25 1.49.11 1.74.82l2.72 7.5c.25.71-.11 1.49-.82 1.75-.16.06-.31.09-.47.09zm1.02-7.495c-.12 0-.24-.017-.362-.05-.72-.2-1.15-.95-.95-1.678.03-.11 3.08-11.125 3.63-14.725.83-5.38 2.04-21.414 2.12-22.45-.02-8.243-6.74-14.942-14.99-14.942-8.26 0-14.99 6.727-14.99 14.994 0 .75-.61 1.36-1.36 1.36s-1.36-.61-1.36-1.37c0-9.77 7.95-17.72 17.72-17.72s17.72 7.95 17.72 17.72v.1c-.05.69-1.27 17.07-2.146 22.72-.58 3.75-3.57 14.57-3.696 15.03-.17.6-.714 1-1.312 1z"/>
    <path d="M24.708 60.49c-.6 0-1.147-.398-1.313-1.002-.123-.45-3.02-11.016-3.566-14.684-.85-5.672-2-22.143-2.05-22.842-.06-.75.51-1.402 1.26-1.455.75-.043 1.4.516 1.45 1.266.01.17 1.19 17.063 2.02 22.627.52 3.51 3.47 14.258 3.5 14.365.2.727-.23 1.477-.96 1.676-.12.04-.248.05-.36.05zM35.5 20.506c-5.69 0-11.07-2.762-14.396-7.385-.438-.61-.3-1.46.312-1.9s1.462-.3 1.902.31c2.814 3.92 7.37 6.26 12.183 6.26 4.82 0 9.37-2.33 12.19-6.24.44-.61 1.29-.75 1.9-.31.61.44.75 1.29.31 1.9-3.32 4.63-8.7 7.39-14.39 7.39z"/>
    <path d="M21.463 47.54c-.238 0-.48-.062-.7-.194-.645-.387-.854-1.225-.467-1.87 3.188-5.313 9.015-8.612 15.204-8.612 6.2 0 11.844 3.154 15.1 8.44.393.64.193 1.48-.447 1.874-.643.395-1.48.193-1.875-.445-2.754-4.473-7.53-7.145-12.777-7.145-5.31 0-10.12 2.727-12.86 7.29-.25.427-.71.663-1.17.663zM56.63 32.092h-5.454c-.752 0-1.363-.61-1.363-1.363s.61-1.37 1.363-1.37h4.09v-9.54h-3.764c-.752 0-1.363-.61-1.363-1.37 0-.76.61-1.37 1.36-1.37h5.12c.75 0 1.36.61 1.36 1.36v12.27c0 .75-.61 1.36-1.37 1.36z"/>
    <path d="M53.896 19.824c-.752 0-1.363-.61-1.363-1.363V4.15c0-.754.61-1.363 1.363-1.363.754 0 1.363.61 1.363 1.363v14.31c0 .753-.61 1.364-1.37 1.364zM19.81 32.092h-4.074c-.753 0-1.363-.61-1.363-1.363V18.46c0-.753.61-1.362 1.363-1.362H19.5c.752 0 1.362.61 1.362 1.363s-.61 1.37-1.363 1.37h-2.4v9.54h2.71c.75 0 1.36.61 1.36 1.37s-.61 1.36-1.37 1.36z"/>
  </symbol>
  <symbol id="icon-bb-8" viewBox="0 0 70 70">
    <path d="M10.742 32.81c-.47 0-.928-.245-1.182-.683-2.61-4.523-3.307-9.794-1.953-14.84 1.352-5.046 4.588-9.263 9.11-11.875s9.794-3.308 14.84-1.953c5.046 1.35 9.265 4.58 11.876 9.11.377.65.152 1.48-.5 1.86-.654.37-1.484.15-1.86-.5-2.25-3.9-5.878-6.68-10.22-7.84-4.342-1.17-8.877-.57-12.77 1.68-3.896 2.25-6.68 5.88-7.843 10.22-1.164 4.34-.566 8.88 1.682 12.77.377.65.154 1.48-.498 1.86-.215.12-.45.18-.682.18z"/>
    <path d="M15.71 34.14c-.116 0-.235-.015-.35-.046l-4.972-1.332c-.727-.194-1.158-.942-.963-1.67.193-.726.94-1.16 1.668-.963l4.426 1.18 24.23-13.99 1.18-4.43c.19-.73.94-1.16 1.67-.97.73.19 1.16.94.96 1.67l-1.34 4.97c-.1.35-.32.64-.64.83l-25.2 14.56c-.21.12-.45.18-.69.18z"/>
    <path d="M23.242 23.237c-.592 0-1.188-.077-1.773-.234-1.76-.472-3.23-1.6-4.14-3.176s-1.16-3.412-.68-5.17c.47-1.76 1.6-3.23 3.17-4.14 1.57-.91 3.41-1.15 5.17-.68 1.76.47 3.23 1.6 4.14 3.175.9 1.576 1.15 3.413.68 5.17-.47 1.76-1.6 3.23-3.18 4.14-1.05.606-2.22.915-3.4.915zm-.017-10.907c-.707 0-1.406.186-2.037.55-.945.546-1.62 1.427-1.904 2.482-.283 1.055-.137 2.156.408 3.102.547.946 1.428 1.623 2.482 1.905 1.055.28 2.156.13 3.102-.41.947-.55 1.623-1.43 1.906-2.48s.137-2.16-.41-3.11c-.545-.95-1.426-1.62-2.48-1.91-.354-.1-.712-.14-1.067-.14zm11.597 4.09c-.707 0-1.396-.367-1.773-1.022-.57-.978-.23-2.23.74-2.792s2.23-.228 2.79.748c.56.978.22 2.23-.75 2.792-.32.185-.68.273-1.02.273zm.586-2.385l-1.18.68c.188.327.605.44.93.252.326-.188.438-.605.252-.93l-.002-.002zm-.592-.34c-.115 0-.23.028-.338.09-.326.187-.438.605-.252.93l1.182-.68c-.127-.22-.355-.34-.592-.34zm9.544 25.898c-1.128 0-2.044-.917-2.044-2.045 0-1.127.916-2.044 2.043-2.044 1.12 0 2.04.917 2.04 2.044 0 1.128-.92 2.045-2.05 2.045zm0-2.727c-.376 0-.683.306-.683.682s.307.682.682.682c.37 0 .68-.306.68-.682s-.31-.682-.68-.682zM25.96 55.27c-1.13 0-2.046-.918-2.046-2.046 0-1.127.916-2.045 2.045-2.045 1.12 0 2.04.91 2.04 2.04s-.92 2.04-2.05 2.04zm0-2.728c-.378 0-.683.306-.683.682s.305.682.682.682c.37 0 .68-.306.68-.682s-.31-.682-.68-.682z"/>
    <path d="M38.227 68.218C24.32 68.218 13.01 56.905 13.01 43c0-3.97.854-8.184 2.285-11.27.318-.684 1.127-.98 1.81-.663s.98 1.128.663 1.81c-1.27 2.745-2.033 6.528-2.033 10.124 0 12.41 10.09 22.49 22.492 22.49 12.4 0 22.49-10.08 22.49-22.49 0-12.03-9.406-21.9-21.414-22.46-.752-.03-1.334-.67-1.3-1.42.038-.75.69-1.31 1.427-1.3 13.465.64 24.014 11.7 24.014 25.19 0 13.91-11.313 25.22-25.217 25.22z"/>
    <path d="M61.924 41.648c-.223 0-.45-.056-.66-.173-8.875-4.94-15.965-12.35-20.502-21.427-.338-.674-.064-1.492.61-1.83.673-.337 1.49-.062 1.827.61 4.29 8.585 10.99 15.593 19.39 20.266.65.365.89 1.195.52 1.854-.25.448-.72.7-1.2.7zm-25.14 26.528c-.21 0-.427-.05-.628-.153-2.285-1.187-3.945-2.97-4.8-5.154-.946-2.43-.83-5.11.34-7.77 1.67-3.79 5.23-6.97 9.765-8.72 7.92-3.06 16.28-.65 18.63 5.37.29.73.48 1.49.57 2.27.09.75-.45 1.42-1.19 1.51-.74.09-1.42-.45-1.51-1.2-.06-.55-.19-1.09-.39-1.6-1.8-4.63-8.58-6.34-15.1-3.83-3.8 1.47-6.89 4.19-8.25 7.28-.87 1.97-.97 3.93-.29 5.67.61 1.56 1.827 2.85 3.517 3.73.665.34.93 1.17.58 1.83-.244.47-.72.74-1.21.74zm-16.28-19.723c-2.237 0-4.415-.428-6.47-1.272-.695-.28-1.03-1.08-.742-1.77.285-.69 1.082-1.03 1.777-.74 1.72.71 3.55 1.07 5.43 1.07 7.89 0 14.31-6.42 14.31-14.31 0-2.91-.87-5.7-2.51-8.09-.43-.62-.27-1.47.35-1.89.62-.42 1.47-.27 1.89.35 1.95 2.85 2.98 6.18 2.98 9.64 0 9.4-7.65 17.04-17.04 17.04z"/>
    <path d="M36.932 51.925c-.38 0-.754-.156-1.023-.462l-6.32-7.168c-.5-.565-.45-1.426.12-1.924s1.42-.44 1.92.13l6.31 7.17c.5.57.44 1.43-.12 1.93-.26.23-.58.34-.9.34zM54.67 49.18c-.102 0-.207-.01-.31-.034-.733-.17-1.19-.903-1.02-1.637l2.454-10.59c.17-.74.9-1.19 1.637-1.02.74.17 1.19.9 1.02 1.63L56 48.12c-.146.63-.707 1.057-1.326 1.057zM35.092 27.027c-.64 0-1.21-.45-1.336-1.103-.145-.74.338-1.454 1.078-1.6l9.38-1.825c.737-.15 1.454.33 1.597 1.07.15.74-.33 1.45-1.07 1.6L35.36 27c-.09.02-.18.027-.266.027zM7.557 68.217h-3.41c-.75 0-1.362-.61-1.362-1.362s.61-1.363 1.363-1.363h3.408c.752 0 1.363.61 1.363 1.363s-.61 1.363-1.37 1.363zm49.073 0H13.01c-.754 0-1.363-.61-1.363-1.362s.61-1.363 1.363-1.363h43.62c.75 0 1.36.61 1.36 1.363s-.61 1.363-1.36 1.363zm10.222 0H62.08c-.752 0-1.363-.61-1.363-1.362s.61-1.363 1.363-1.363h4.77c.753 0 1.364.61 1.364 1.363s-.61 1.363-1.362 1.363zm-44.756-29.08c-3.738 0-6.846-2.8-7.23-6.513-.076-.75.467-1.42 1.215-1.497.76-.085 1.42.468 1.5 1.216.24 2.32 2.19 4.07 4.52 4.07 2.51 0 4.55-2.04 4.55-4.544 0-1.45-.7-2.83-1.87-3.68-.61-.45-.74-1.3-.3-1.91.44-.61 1.3-.75 1.91-.3 1.88 1.36 3 3.56 3 5.88 0 4-3.26 7.27-7.27 7.27zm23.236 26.336c-1.262 0-2.453-.325-3.436-.96-1.232-.794-2.03-2.014-2.246-3.435-.49-3.194 2.014-6.505 5.697-7.536 2.014-.563 4.043-.323 5.566.66 1.23.794 2.03 2.014 2.246 3.435.48 3.194-2.02 6.505-5.7 7.537-.72.2-1.44.3-2.13.3zm2.152-9.506c-.45 0-.922.066-1.4.2-2.303.645-4.014 2.705-3.74 4.5.125.818.63 1.298 1.03 1.557.868.56 2.09.678 3.353.325 2.3-.65 4.014-2.71 3.738-4.5-.125-.82-.63-1.3-1.03-1.56-.54-.35-1.214-.53-1.95-.53z"/>
  </symbol>
  <symbol id="icon-c-3po" viewBox="0 0 70 70">
    <path d="M12.428 48.773c-.148 0-.3-.025-.447-.076L7.13 47.01c-.496-.172-.85-.613-.907-1.137l-1.37-12.268c-.07-.622.297-1.213.885-1.43l4.09-1.505c.707-.26 1.49.102 1.75.81.26.705-.102 1.488-.81 1.75L7.68 34.366l1.15 10.35 4.043 1.405c.71.25 1.088 1.03.84 1.74-.194.57-.722.92-1.286.92zm46.226-.163c-.577 0-1.113-.37-1.298-.95-.23-.717.167-1.484.884-1.713l3.93-1.254 1.147-10.317-3.042-1.086c-.71-.253-1.08-1.033-.826-1.742.25-.71 1.03-1.076 1.74-.825l4.06 1.448c.59.22.96.81.89 1.44l-1.36 12.27c-.06.54-.43.99-.94 1.15l-4.77 1.528c-.14.043-.28.064-.42.064zM49.58 65.035c-.597 0-1.144-.395-1.313-.996-.203-.73.22-1.48.944-1.68l4.71-1.32-.01-5.93c0-.76.61-1.21 1.36-1.21h.008c.75 0 1.36.45 1.363 1.2l.017 7.05c0 .36-.145.67-.4.92-.205.2-.466.313-.746.36l-5.552 1.55c-.12.034-.243.04-.365.04zm-27.77.272c-.135 0-.27-.02-.403-.063l-6.024-1.854c-.222-.063-.426-.182-.592-.348-.25-.256-.4-.602-.4-.963l.01-7.15c0-.76.61-1.37 1.37-1.37s1.365.61 1.364 1.36l-.004 6.14 5.094 1.563c.72.22 1.124.982.9 1.703-.18.59-.72.965-1.3.965zM46.42 40.27c-1.127 0-2.044-.916-2.044-2.043 0-1.13.917-2.045 2.045-2.045s2.05.916 2.05 2.045c0 1.127-.91 2.043-2.04 2.043zm0-2.725c-.375 0-.68.305-.68.682 0 .375.305.682.68.682s.683-.31.683-.69c0-.38-.306-.68-.682-.68z"/>
    <path d="M46.42 47.768c-5.26 0-9.54-4.28-9.54-9.54 0-5.263 4.28-9.543 9.54-9.543 5.262 0 9.542 4.28 9.542 9.542 0 5.26-4.28 9.54-9.54 9.54zm0-16.357c-3.757 0-6.814 3.06-6.814 6.82 0 3.76 3.058 6.82 6.815 6.82s6.82-3.05 6.82-6.81-3.05-6.813-6.81-6.813z"/>
    <path d="M46.42 47.768c-.752 0-1.362-.61-1.362-1.363v-3.408c0-.752.61-1.363 1.363-1.363s1.37.61 1.37 1.363v3.408c0 .75-.61 1.363-1.36 1.363zm0-12.95c-.752 0-1.362-.61-1.362-1.363v-3.407c0-.753.61-1.363 1.363-1.363s1.37.61 1.37 1.363v3.407c0 .753-.61 1.363-1.36 1.363zm4.09 11.822c-.753 0-1.363-.608-1.363-1.362V31.41c0-.752.61-1.362 1.363-1.362s1.363.61 1.363 1.363v13.87c0 .76-.61 1.37-1.363 1.37zm-8.18 0c-.752 0-1.362-.608-1.362-1.362V31.116c0-.752.61-1.362 1.363-1.362s1.37.61 1.37 1.362v14.162c0 .753-.61 1.363-1.36 1.363zm-17.72-6.37c-1.127 0-2.044-.916-2.044-2.043 0-1.13.917-2.045 2.045-2.045s2.05.916 2.05 2.045c0 1.127-.91 2.043-2.04 2.043zm0-2.725c-.375 0-.68.305-.68.682 0 .375.305.682.68.682s.683-.31.683-.69c0-.38-.306-.68-.682-.68z"/>
    <path d="M24.61 47.768c-5.26 0-9.54-4.28-9.54-9.54 0-5.263 4.28-9.543 9.54-9.543 5.262 0 9.542 4.28 9.542 9.542 0 5.26-4.28 9.54-9.54 9.54zm0-16.357c-3.757 0-6.814 3.06-6.814 6.82 0 3.76 3.058 6.82 6.815 6.82s6.82-3.05 6.82-6.81-3.05-6.813-6.81-6.813z"/>
    <path d="M24.61 47.768c-.752 0-1.362-.61-1.362-1.363v-3.408c0-.752.61-1.363 1.363-1.363s1.37.61 1.37 1.363v3.408c0 .75-.61 1.363-1.36 1.363zm0-12.95c-.752 0-1.362-.61-1.362-1.363v-3.407c0-.753.61-1.363 1.363-1.363s1.37.61 1.37 1.363v3.407c0 .753-.61 1.363-1.36 1.363zM28.7 46.64c-.753 0-1.363-.608-1.363-1.362V31.14c0-.75.61-1.36 1.363-1.36s1.363.61 1.363 1.36v14.137c0 .754-.61 1.364-1.363 1.364zm-8.18 0c-.752 0-1.36-.608-1.36-1.362V31.14c0-.75.608-1.36 1.36-1.36s1.364.61 1.364 1.36v14.137c0 .754-.61 1.364-1.363 1.364zm17.72 4.585c-.284 0-.572-.09-.817-.273l-1.946-1.465-1.846 1.447c-.59.465-1.44.36-1.91-.232-.46-.592-.36-1.45.23-1.914l3.5-2.738 3.62 2.723c.6.453.72 1.307.27 1.908-.27.36-.68.55-1.09.55zm3.41 10.173H29.38c-.753 0-1.363-.61-1.363-1.363v-4.09c0-.752.61-1.363 1.362-1.363h12.27c.75 0 1.36.61 1.36 1.363v4.09c0 .754-.61 1.363-1.37 1.363zm-10.905-2.726h9.542V57.31h-9.542v1.362z"/>
    <path d="M53.236 59.354H41.65c-.753 0-1.363-.61-1.363-1.363 0-.75.61-1.36 1.362-1.36h10.84c4.5-5.98 6.87-14.44 6.87-24.53 0-8.94-7.65-18.45-21.81-18.45h-4.09c-14.17 0-21.81 9.51-21.81 18.45 0 10.09 2.37 18.56 6.87 24.54h10.85c.753 0 1.363.61 1.363 1.366s-.61 1.364-1.363 1.364H17.8c-.564 0-1.07-.35-1.27-.87-4.968-6.473-7.59-15.586-7.59-26.39 0-10.27 8.6-21.178 24.536-21.178h4.09C53.5 10.92 62.1 21.83 62.1 32.092c0 10.856-2.648 20.004-7.66 26.48-.223.467-.68.78-1.203.78z"/>
    <path d="M46.588 68.215H24.716c-1.806 0-3.377-1.16-3.908-2.887l-2.134-6.938c-.222-.72.183-1.482.902-1.703.715-.223 1.482.182 1.703.902l2.13 6.93c.18.57.7.96 1.3.96h21.87c.6 0 1.12-.39 1.3-.97l2.13-6.936c.223-.72.99-1.126 1.704-.903.72.22 1.122.985.9 1.704l-2.135 6.94c-.53 1.728-2.1 2.888-3.91 2.888zm14.145-36.123c-.753 0-1.363-.61-1.363-1.363 0-13.44-11.147-25.22-23.854-25.22S11.662 17.29 11.662 30.73c0 .752-.61 1.362-1.363 1.362s-1.37-.61-1.37-1.363c0-14.89 12.42-27.95 26.58-27.95s26.58 13.06 26.58 27.94c0 .75-.61 1.36-1.37 1.36z"/>
    <path d="M35.516 10.283c-1.127 0-2.044-.917-2.044-2.045s.917-2.045 2.044-2.045c1.128 0 2.045.917 2.045 2.045s-.91 2.045-2.04 2.045zm0-2.727c-.376 0-.682.306-.682.682s.306.682.682.682.682-.306.682-.682-.306-.682-.682-.682z"/>
  </symbol>
  <symbol id="icon-darth-vader" viewBox="0 0 70 70">
    <path d="M47.45 48.48c-3.442 0-7.56-.49-9.28-1.614-.63-.412-.808-1.257-.397-1.887.41-.64 1.256-.81 1.887-.4.905.59 4.26 1.2 8.102 1.17.743-.04 1.368.59 1.376 1.35.008.75-.598 1.37-1.35 1.37h-.338zm-23.885 0c-.114 0-.227 0-.34-.002-.752-.007-1.356-.638-1.35-1.39.008-.75.616-1.365 1.363-1.365h.014c3.847 0 7.196-.564 8.102-1.155.632-.41 1.476-.227 1.887.403.42.64.24 1.48-.39 1.9-1.72 1.12-5.84 1.62-9.28 1.62zm14.668-20.477H32.78c-.752 0-1.362-.61-1.362-1.363v-3.408c0-.753.61-1.363 1.363-1.363s1.37.61 1.37 1.36v2.04h2.73V5.51h-2.73v10.905c0 .753-.61 1.363-1.36 1.363s-1.36-.61-1.36-1.362V4.148c0-.75.61-1.363 1.37-1.363h5.46c.754 0 1.364.61 1.364 1.363V26.64c0 .753-.61 1.363-1.363 1.363z"/>
    <path d="M38.915 50.494H32.1c-.753 0-1.363-.61-1.363-1.363v-3.57c0-2.58 2.096-4.6 4.77-4.6 2.676 0 4.772 2.02 4.772 4.6v3.58c-.01.76-.62 1.37-1.37 1.37zm-5.452-2.726h4.09v-2.215c0-1.086-.86-1.875-2.045-1.875-1.186 0-2.045.79-2.045 1.875v2.215zM23.92 64.125c-.91 0-1.765-.355-2.408-.998-.644-.644-.998-1.5-.998-2.41s.354-1.766.998-2.41c.644-.643 1.5-.998 2.41-.998s1.766.35 2.41.99.997 1.5.997 2.41-.36 1.76-1 2.41c-.65.64-1.5.99-2.41.99zm0-4.09c-.104 0-.307.026-.48.2-.174.173-.2.376-.2.48s.026.31.2.483.376.2.48.2.31-.026.482-.2c.175-.174.2-.377.2-.482s-.025-.31-.2-.48c-.173-.174-.376-.2-.48-.2zm23.174 4.09c-.91 0-1.767-.355-2.41-.998-.644-.644-.998-1.5-.998-2.41s.354-1.766 1-2.41c.642-.643 1.497-.998 2.408-.998.91 0 1.766.35 2.41.99.644.64.997 1.5.997 2.41s-.35 1.76-.99 2.41c-.64.64-1.5 1-2.41 1zm0-4.09c-.105 0-.31.026-.48.2-.175.173-.2.376-.2.48s.025.31.2.483c.172.174.375.2.48.2.104 0 .308-.026.48-.2s.2-.377.2-.482-.025-.31-.2-.48c-.173-.174-.376-.2-.48-.2z"/>
    <path d="M45.05 62.08H25.965c-.753 0-1.363-.61-1.363-1.363 0-.752.61-1.363 1.363-1.363H45.05c.752 0 1.362.61 1.362 1.363s-.61 1.363-1.363 1.363z"/>
    <path d="M25.166 60.152c-.26 0-.524-.074-.758-.23-.625-.42-.792-1.267-.373-1.892l6.933-10.34c.42-.626 1.266-.794 1.89-.374.627.42.794 1.267.374 1.893L26.3 59.55c-.263.39-.695.602-1.134.602zm20.684 0c-.44 0-.87-.21-1.135-.604l-6.933-10.34c-.42-.626-.252-1.473.374-1.893.624-.42 1.47-.252 1.89.373l6.934 10.34c.42.626.252 1.473-.373 1.893-.233.16-.497.24-.758.24zM35.502 62.08c-.753 0-1.363-.61-1.363-1.363V49.13c0-.752.61-1.362 1.36-1.362s1.36.61 1.36 1.363v11.59c0 .76-.61 1.37-1.37 1.37z"/>
    <path d="M31.413 61.398c-.753 0-1.363-.61-1.363-1.363V49.813c0-.753.61-1.363 1.363-1.363s1.363.61 1.363 1.363v10.223c0 .752-.61 1.362-1.363 1.362zm8.177.682c-.75 0-1.362-.61-1.362-1.363V49.813c0-.753.61-1.363 1.363-1.363.76 0 1.37.61 1.37 1.363v10.904c0 .753-.61 1.363-1.36 1.363zm4.09 0c-.752 0-1.362-.61-1.362-1.363v-4.77c0-.754.61-1.364 1.363-1.364s1.37.61 1.37 1.363v4.77c0 .754-.61 1.364-1.36 1.364zm-16.357 0c-.752 0-1.362-.61-1.362-1.363v-4.77c0-.754.61-1.364 1.37-1.364s1.37.61 1.37 1.363v4.77c0 .754-.61 1.364-1.36 1.364zM23.63 42.953c-3.09 0-6.077-.55-7.38-1.87-.91-.923-1.332-2.124-1.224-3.476.203-2.505 2.218-5.033 4.125-6.426 3.24-2.36 10.61-2.66 13.2.19.98 1.08 1.07 3.55 1.06 4.56.12 4.39-.96 5.1-1.31 5.34-1.55 1.03-5.07 1.69-8.46 1.69zm2.486-10.927c-1.983 0-4.13.458-5.356 1.355-1.636 1.2-2.904 3.07-3.016 4.45-.046.56.097.99.446 1.34 1.4 1.42 9.725 1.34 12.228-.07.174-.49.297-1.9.264-3.13.007-1.15-.17-2.44-.37-2.77-.724-.77-2.393-1.15-4.196-1.15zm21.228 10.91c-.208 0-.405-.003-.59-.007-2.703-.06-6.206-.53-7.933-1.67-.35-.24-1.43-.95-1.31-5.38-.01-.97.08-3.44 1.06-4.52 2.59-2.86 9.96-2.55 13.2-.19 1.91 1.39 3.92 3.92 4.13 6.42.11 1.35-.31 2.55-1.22 3.47-1.55 1.57-5.03 1.85-7.32 1.85zm-6.85-3.845c2.505 1.41 10.83 1.5 12.228.08.35-.35.492-.78.447-1.34-.12-1.38-1.39-3.25-3.02-4.44-2.35-1.71-8.03-1.83-9.55-.2-.2.33-.38 1.65-.37 2.73-.04 1.28.09 2.69.26 3.19zm8.044 21.55c-.232 0-.467-.06-.684-.18-.65-.37-.872-1.21-.494-1.86l5.256-9.06c.38-.65 1.21-.87 1.863-.49.65.38.87 1.21.49 1.87l-5.26 9.06c-.25.44-.71.68-1.18.68zM21.134 17.4c-.33 0-.663-.12-.925-.362-.56-.51-.59-1.37-.08-1.92 3.18-3.443 7.6-5.725 12.45-6.424.74-.107 1.43.41 1.54 1.155.1.74-.41 1.43-1.16 1.54-4.23.61-8.08 2.59-10.84 5.57-.27.29-.64.43-1 .43zM17.7 22.71c-.178 0-.357-.034-.53-.107-.694-.293-1.018-1.094-.725-1.787.29-.68.623-1.35.988-2 .37-.65 1.2-.883 1.856-.512.65.37.88 1.2.51 1.858-.32.556-.6 1.138-.85 1.73-.22.518-.73.83-1.26.83zm4.777 37.93c-.47 0-.927-.244-1.18-.68L16.04 50.9c-.378-.65-.156-1.485.495-1.862.65-.38 1.484-.156 1.863.494l5.256 9.06c.378.65.156 1.484-.494 1.863-.216.13-.45.19-.683.19zm32.178.053c-.67 0-1.254-.494-1.348-1.176-.104-.746.417-1.434 1.163-1.537 4.628-.643 10.558-2.785 11.23-3.136.667-.35 1.49-.09 1.84.57s.087 1.49-.58 1.84c-1.1.57-7.317 2.75-12.116 3.416-.064.01-.126.014-.19.014zm-38.075 0c-.063 0-.126-.004-.19-.014-4.912-.68-11.347-2.96-12.334-3.47-.667-.35-.928-1.17-.58-1.84s1.17-.93 1.84-.58c.656.34 6.807 2.54 11.45 3.19.745.1 1.266.79 1.162 1.53-.095.68-.68 1.17-1.35 1.17z"/>
    <path d="M59.362 34.82c-.516 0-1.01-.295-1.238-.793-.22-.472-5.402-11.157-19.43-6.104-.706.254-1.488-.113-1.744-.82-.254-.71.113-1.49.82-1.746 16.437-5.922 22.768 7.395 22.83 7.53.313.684.014 1.494-.67 1.808-.184.084-.378.124-.568.124zm-47.71 0c-.19 0-.383-.04-.567-.126-.685-.314-.984-1.124-.67-1.808.062-.135 6.393-13.45 22.828-7.53.71.255 1.075 1.037.82 1.745s-1.038 1.08-1.744.83c-14.11-5.08-19.22 5.64-19.43 6.1-.23.5-.73.8-1.24.8z"/>
    <path d="M35.504 68.215c-8.08 0-23.57-.943-30.36-4.48-1.843-.958-3.573-3.36-1.352-9.356l6.493-21.13v-3.89c0-12.82 9.604-23.59 22.338-25.05.747-.09 1.425.45 1.51 1.19s-.45 1.42-1.2 1.51C21.577 8.32 13.01 17.93 13.01 29.36v4.297L6.36 55.29c-.563 1.512-1.686 5.127.042 6.025 6.322 3.29 21.268 4.17 29.102 4.17 7.832 0 22.775-.88 29.1-4.17 1.722-.896.597-4.513.033-6.025l-.025-.074-6.644-21.566.03-3.597-.026-.638C57.97 17.93 49.42 8.327 38.077 7.022c-.747-.086-1.284-.762-1.197-1.51.086-.748.758-1.282 1.51-1.198 12.717 1.462 22.307 12.23 22.307 25.05l.027.65-.025 3.24 6.5 21.124c2.22 5.996.49 8.397-1.35 9.355-6.79 3.535-22.28 4.48-30.36 4.48z"/>
  </symbol>
  <symbol id="icon-death-star" viewBox="0 0 70 70">
    <path d="M26.64 23.232c-1.127 0-2.044-.917-2.044-2.045 0-1.127.917-2.044 2.044-2.044s2.045.917 2.045 2.044c0 1.128-.918 2.045-2.045 2.045zm0-2.726c-.375 0-.68.306-.68.68 0 .377.305.683.68.683.376 0 .682-.31.682-.69 0-.38-.306-.68-.682-.68z"/>
    <path d="M26.64 31.41c-5.637 0-10.223-4.585-10.223-10.223 0-5.637 4.586-10.223 10.223-10.223 5.637 0 10.224 4.586 10.224 10.223 0 5.638-4.587 10.224-10.224 10.224zm0-17.72c-4.134 0-7.497 3.363-7.497 7.497 0 4.135 3.363 7.497 7.497 7.497s7.497-3.362 7.497-7.497c0-4.134-3.364-7.496-7.497-7.496zm39.53 7.497c-1.128 0-2.045-.917-2.045-2.044 0-1.128.917-2.045 2.045-2.045 1.127 0 2.045.917 2.045 2.045 0 1.127-.918 2.044-2.045 2.044zm0-2.726c-.376 0-.682.31-.682.69 0 .38.306.68.682.68.375 0 .682-.3.682-.68 0-.37-.307-.68-.682-.68zm-6.135 48.4c-1.127 0-2.044-.91-2.044-2.04s.92-2.04 2.05-2.04 2.05.92 2.05 2.05-.91 2.05-2.04 2.05zm0-2.72c-.375 0-.682.31-.682.68 0 .38.307.68.682.68.376 0 .682-.31.682-.68 0-.38-.306-.68-.682-.68zm1.363-51.79c-2.63 0-4.77-2.14-4.77-4.77 0-2.63 2.14-4.77 4.77-4.77s4.77 2.14 4.77 4.77c.002 2.63-2.14 4.78-4.77 4.78zm0-6.81c-1.127 0-2.045.92-2.045 2.05s.918 2.05 2.045 2.05c1.128 0 2.045-.914 2.045-2.042 0-1.13-.917-2.043-2.045-2.043zm5.454 31.35H4.15c-.754 0-1.364-.61-1.364-1.36s.61-1.36 1.363-1.36h62.7c.75 0 1.36.61 1.36 1.37 0 .75-.61 1.36-1.37 1.36zM53.22 10.29h-8.86c-.752 0-1.362-.61-1.362-1.36s.61-1.36 1.362-1.36h8.86c.753 0 1.363.61 1.363 1.37s-.61 1.362-1.362 1.362zm8.178 10.224H51.176c-.753 0-1.363-.61-1.363-1.363s.61-1.36 1.363-1.36H61.4c.752 0 1.362.61 1.362 1.37s-.61 1.37-1.364 1.37zm-1.363 4.09H49.13c-.752 0-1.362-.61-1.362-1.364s.61-1.364 1.363-1.364h10.91c.76 0 1.37.61 1.37 1.36s-.61 1.37-1.36 1.37zm-4.09-9.543H49.13c-.752 0-1.362-.61-1.362-1.36 0-.75.61-1.36 1.363-1.36h6.82c.76 0 1.37.61 1.37 1.36s-.61 1.36-1.36 1.36zm-4.77 53.16H35.5c-.753 0-1.363-.61-1.363-1.36 0-.75.61-1.36 1.363-1.36h15.676c.752 0 1.363.61 1.363 1.36 0 .76-.62 1.37-1.37 1.37zm12.95-12.95H53.902c-.754 0-1.363-.61-1.363-1.36 0-.75.6-1.36 1.36-1.36h10.22c.75 0 1.36.61 1.36 1.37 0 .75-.61 1.37-1.37 1.37zm-2.045-4.09H47.768c-.752 0-1.363-.61-1.363-1.36s.61-1.36 1.363-1.36H62.08c.753 0 1.363.61 1.363 1.37s-.61 1.37-1.363 1.37zm-3.408 8.86h-6.814c-.753 0-1.363-.61-1.363-1.36 0-.75.61-1.36 1.363-1.36h6.814c.754 0 1.363.61 1.363 1.36 0 .76-.61 1.37-1.363 1.37zm7.923-27.26h-7.24c-.753 0-1.363-.61-1.363-1.36s.61-1.36 1.362-1.36h7.24c.754 0 1.363.61 1.363 1.36s-.61 1.37-1.362 1.37zm-.69 11.59h-4.507c-.752 0-1.363-.61-1.363-1.36 0-.75.61-1.36 1.363-1.36h4.507c.753 0 1.363.61 1.363 1.36 0 .76-.61 1.37-1.363 1.37zm.663-3.4h-3.125c-.753 0-1.363-.61-1.363-1.36s.61-1.36 1.363-1.36h3.125c.754 0 1.363.61 1.363 1.37.01.75-.6 1.363-1.36 1.363zm-29.593 20.4c-.717 0-1.317-.56-1.36-1.28-.043-.75.53-1.39 1.282-1.44.396-.02.79-.06 1.182-.1.74-.07 1.42.46 1.5 1.21s-.46 1.42-1.21 1.505c-.44.05-.88.08-1.33.11h-.08zm-4.88.05c-.068 0-.137-.002-.206-.014-6.89-1.04-13.45-5.14-17.57-10.97-.44-.61-.29-1.46.32-1.9.61-.43 1.46-.29 1.9.33 3.69 5.23 9.58 8.91 15.74 9.84.74.11 1.26.81 1.14 1.55-.11.68-.69 1.16-1.35 1.16zm27.26-20.443H57.99c-.753 0-1.363-.61-1.363-1.363s.61-1.36 1.36-1.36h1.363c.754 0 1.363.61 1.363 1.36s-.61 1.366-1.363 1.366zm-3.41 3.407h-1.362c-.753 0-1.362-.61-1.362-1.36 0-.753.61-1.36 1.37-1.36h1.37c.76 0 1.37.607 1.37 1.36 0 .753-.61 1.36-1.36 1.36zm-12.265 6.8h-1.364c-.753 0-1.363-.61-1.363-1.363s.61-1.363 1.363-1.363h1.363c.75 0 1.36.61 1.36 1.365s-.61 1.364-1.36 1.364zm2.724-30.67H45.04c-.75 0-1.36-.61-1.36-1.363s.61-1.363 1.36-1.363h1.364c.753 0 1.363.61 1.363 1.365s-.61 1.364-1.363 1.364z"/>
    <path d="M35.5 68.215C17.46 68.215 2.786 53.54 2.786 35.5c0-18.038 14.676-32.714 32.714-32.714 4.21 0 8.31.79 12.182 2.344.104.042.232.108.323.174.296.214 7.186 5.345 10.062 19.743.93.393 3.333 1.146 7.563.796.658-.05 1.256.367 1.428 1.002l.06.22c.74 2.782 1.1 5.503 1.1 8.322 0 3.98-.716 7.854-2.126 11.508-.203.527-.71.873-1.272.873-3.808-.104-5.013.477-5.302.668-2.52 12.71-8.272 15.807-8.98 16.145-4.65 2.42-9.708 3.64-15.038 3.64zm0-62.703C18.964 5.512 5.512 18.964 5.512 35.5S18.965 65.49 35.5 65.49c4.898 0 9.543-1.126 13.803-3.34.023-.015.05-.026.073-.038.11-.053 5.198-2.605 7.49-14.33.122-1.098 1.27-2.73 7.004-2.75 1.073-3.082 1.618-6.32 1.618-9.645 0-2.288-.26-4.507-.79-6.753-5.74.256-8.315-1.35-8.604-1.545-.303-.21-.512-.53-.578-.88-2.385-12.72-8.11-17.88-9-18.61-3.524-1.39-7.22-2.09-11.016-2.09z"/>
  </symbol>
  <symbol id="icon-millennium-falcon" viewBox="0 0 70 70">
    <path d="M25.4 35.39c-.35 0-.7-.132-.965-.397l-11.867-11.87c-.533-.53-.533-1.395 0-1.926.532-.533 1.395-.533 1.927 0l11.867 11.867c.533.53.533 1.395 0 1.928-.265.266-.614.4-.963.4zm5.256-4.38c-.35 0-.697-.133-.963-.398L17.5 18.418c-.532-.533-.532-1.396 0-1.928.532-.533 1.395-.533 1.928 0L31.62 28.684c.533.53.533 1.395 0 1.928-.266.265-.615.398-.964.398zM18.17 54.87c-.522 0-1.046-.202-1.444-.6-.797-.798-.797-2.095 0-2.892.797-.8 2.095-.797 2.892 0 .797.797.797 2.094 0 2.89-.4.4-.923.6-1.447.6zm0-2.727c-.173 0-.348.066-.48.2-.266.265-.266.698 0 .964s.698.266.963 0c.266-.268.266-.697 0-.963-.132-.133-.307-.2-.482-.2zm4.82-2.093c-.522 0-1.046-.2-1.445-.6-.797-.798-.797-2.093 0-2.892.797-.797 2.095-.797 2.89 0 .798.8.798 2.094 0 2.893-.397.4-.92.6-1.444.6zm0-2.726c-.174 0-.348.066-.48.2-.267.265-.267.696 0 .962.265.268.697.268.963 0 .266-.266.266-.697 0-.963-.133-.132-.307-.2-.482-.2zm-9.572-.406c-1.127 0-2.044-.918-2.044-2.045s.917-2.045 2.044-2.045 2.045.918 2.045 2.045-.918 2.045-2.045 2.045zm0-2.727c-.375 0-.682.31-.682.69 0 .38.306.68.682.68.376 0 .682-.3.682-.68 0-.37-.306-.68-.682-.68zm6.134-.16c-1.128 0-2.045-.92-2.045-2.04s.917-2.04 2.045-2.04c1.127 0 2.044.92 2.044 2.05s-.916 2.05-2.044 2.05zm0-2.72c-.376 0-.682.31-.682.68 0 .38.306.69.682.69.375 0 .68-.3.68-.68 0-.37-.304-.68-.68-.68zm6.572 18.33c-1.127 0-2.044-.92-2.044-2.04s.917-2.04 2.044-2.04 2.044.92 2.044 2.05-.917 2.047-2.044 2.047zm0-2.72c-.375 0-.682.31-.682.68 0 .38.306.68.682.68.376 0 .682-.3.682-.68 0-.37-.306-.68-.682-.68zm2.89-3.41c-1.126 0-2.043-.91-2.043-2.04 0-1.12.92-2.04 2.05-2.04s2.05.92 2.05 2.048c0 1.13-.91 2.04-2.04 2.04zm0-2.72c-.374 0-.68.31-.68.69 0 .376.305.68.68.68s.683-.305.683-.682c0-.375-.306-.68-.682-.68zm7.736-19.01c-.348 0-.697-.13-.962-.4-.533-.53-.533-1.39 0-1.93l22.384-22.4-1.348-1.35-31.35 9.64c-.72.226-1.482-.18-1.704-.9-.22-.72.183-1.48.902-1.702l32.133-9.88c.482-.15 1.008-.02 1.365.34l2.89 2.89c.534.53.534 1.396 0 1.93l-23.344 23.34c-.266.266-.615.4-.964.4z"/>
    <path d="M57.208 19.008c-.35 0-.698-.133-.964-.4l-3.855-3.855c-.54-.53-.54-1.395 0-1.928.53-.53 1.39-.53 1.92 0l3.85 3.855c.53.533.53 1.396 0 1.928-.27.267-.62.4-.97.4zm1.046 21.262h-.038c-.753 0-1.345-.74-1.325-1.493.17-5.805-1.68-11.44-5.18-15.79-.47-.587-.38-1.47.21-1.942.59-.47 1.45-.39 1.92.195 3.91 4.854 5.97 11.166 5.79 17.62-.02.74-.62 1.41-1.36 1.41z"/>
    <path d="M59.31 39.076c-.137 0-.274-.02-.41-.063-.718-.227-1.117-.992-.892-1.71l7.29-23.136-1.343-1.344-22.63 22.6c-.532.533-1.396.53-1.93-.002-.53-.53-.53-1.39.003-1.92L62.992 9.94c.53-.533 1.395-.533 1.927 0l2.89 2.89c.36.36.49.89.33 1.373l-7.53 23.92c-.19.58-.72.953-1.3.953z"/>
    <path d="M60.582 47.44c-.104 0-.207-.01-.31-.036l-17.577-4.082c-.732-.17-1.19-.904-1.02-1.637.172-.732.904-1.19 1.637-1.02l16.84 3.912 4.767-4.766c.79-.79.79-2.09 0-2.89-.8-.79-2.1-.79-2.9 0l-2.84 2.8c-.34.33-.82.47-1.28.36L40.03 35.8c-.73-.176-1.185-.912-1.01-1.645.175-.734.91-1.186 1.644-1.01l17.137 4.11 2.29-2.257c1.86-1.85 4.88-1.853 6.74.007 1.86 1.86 1.86 4.89 0 6.745l-5.3 5.3c-.26.263-.6.403-.96.403z"/>
    <path d="M53.6 53.953c-.347 0-.693-.13-.96-.396L39.707 40.695c-.533-.53-.536-1.393-.006-1.928.54-.533 1.4-.535 1.93-.004l12.94 12.86c.54.53.54 1.394.01 1.93-.26.267-.61.4-.96.4zm-4.688 4.95c-.352 0-.702-.134-.97-.403L35.418 45.85c-.53-.535-.525-1.398.01-1.928.536-.53 1.4-.525 1.928.01l12.525 12.65c.53.535.53 1.396-.01 1.928-.26.263-.61.394-.95.394z"/>
    <path d="M32.785 47.082c-2.443 0-4.887-.93-6.747-2.79-3.72-3.722-3.72-9.774 0-13.493 3.72-3.73 9.774-3.73 13.493 0 3.73 3.71 3.73 9.77 0 13.49-1.85 1.86-4.3 2.79-6.74 2.79zm0-16.35c-1.746 0-3.49.664-4.82 1.992-2.657 2.658-2.657 6.982 0 9.64 2.658 2.657 6.982 2.657 9.64 0 2.656-2.657 2.656-6.98 0-9.64-1.33-1.326-3.075-1.992-4.82-1.992z"/>
    <path d="M8.218 35.5c-.75 0-1.358-.604-1.363-1.354-.005-.754.602-1.367 1.354-1.373l17.18-.11h.01c.74 0 1.35.606 1.36 1.356 0 .75-.6 1.36-1.36 1.37l-17.18.11h-.01zm28.63 28.688c-.736 0-1.342-.586-1.363-1.326L35 44.926c-.02-.752.573-1.38 1.326-1.398h.037c.736 0 1.342.586 1.363 1.326l.484 17.936c.02.752-.574 1.38-1.326 1.398h-.036z"/>
    <path d="M32.924 68.213c-7.764 0-15.72-3.32-21.282-8.883-5.715-5.715-8.87-13.313-8.883-21.395-.01-.38.15-.744.43-1.002l3.75-3.48c.92-5.353 3.58-10.44 7.5-14.363 9.59-9.59 24.79-10.444 35.37-1.986.59.47.68 1.328.21 1.916-.47.586-1.33.682-1.92.213-9.49-7.588-23.14-6.82-31.74 1.785-3.64 3.633-6.06 8.365-6.82 13.326-.05.305-.2.584-.42.793l-3.65 3.385c.16 7.135 3.01 13.82 8.07 18.88 4.85 4.856 12.01 7.92 18.8 8.08L36 61.858c.21-.205.475-.338.76-.38 5.08-.757 9.69-3.083 13.335-6.726 2.746-2.744 4.796-6.143 5.93-9.826.225-.72.987-1.125 1.707-.902.72.22 1.124.984.903 1.705-1.266 4.1-3.55 7.89-6.61 10.95-3.95 3.95-8.92 6.51-14.41 7.42l-3.75 3.71c-.25.25-.6.39-.96.39z"/>
  </symbol>
  <symbol id="icon-r2-d2" viewBox="0 0 70 70">
    <path d="M9.55 58.673c-1.127 0-2.045-.917-2.045-2.044 0-1.13.917-2.05 2.045-2.05s2.044.91 2.044 2.04-.917 2.04-2.044 2.04zm0-2.726c-.376 0-.682.305-.682.682 0 .37.306.68.682.68.375 0 .68-.31.68-.68 0-.38-.305-.69-.68-.69zm7.497-46.345c-1.128 0-2.045-.917-2.045-2.044 0-1.128.917-2.045 2.045-2.045 1.127 0 2.044.917 2.044 2.045 0 1.127-.91 2.044-2.04 2.044zm0-2.727c-.376 0-.682.305-.682.682 0 .376.306.68.682.68.375 0 .68-.304.68-.68 0-.376-.305-.682-.68-.682zm46.345 2.727c-1.128 0-2.044-.917-2.044-2.044 0-1.128.916-2.045 2.044-2.045s2.045.917 2.045 2.045c0 1.127-.917 2.044-2.045 2.044zm0-2.727c-.376 0-.68.305-.68.682 0 .376.304.68.68.68s.682-.304.682-.68c0-.376-.306-.682-.682-.682zM23.08 31.077c-.47 0-.93-.245-1.182-.682-.376-.652-.153-1.486.5-1.862l29.51-17.04c.652-.374 1.487-.152 1.862.5.377.652.153 1.485-.498 1.862L23.76 30.895c-.215.124-.45.182-.68.182zm24.71 25.08c-.263 0-.524-.074-.75-.225l-5.09-3.358c-.627-.414-.8-1.26-.386-1.89.415-.627 1.262-.8 1.89-.386l4.384 2.895 12.706-7.336-.314-5.244c-.045-.75.528-1.396 1.28-1.44.745-.054 1.396.526 1.44 1.277l.366 6.085c.03.516-.232 1.004-.68 1.262l-14.166 8.18c-.21.12-.445.18-.68.18z"/>
    <path d="M53.852 56.43c-1.75 0-3.488-.61-4.877-1.797-.572-.49-.64-1.35-.15-1.922s1.35-.63 1.923-.14c1.533 1.31 3.74 1.52 5.488.51 1.75-1.01 2.675-3.02 2.307-5-.138-.74.35-1.45 1.09-1.59.74-.14 1.452.35 1.59 1.09.58 3.12-.876 6.28-3.623 7.87-1.166.674-2.46 1.004-3.748 1.004zm-25.56-44.264c-1.363 0-2.725-.372-3.93-1.113-.642-.395-.843-1.234-.448-1.875.394-.642 1.233-.84 1.875-.447 1.49.92 3.37.95 4.88.07 1.52-.87 2.43-2.51 2.38-4.26-.02-.75.57-1.38 1.32-1.4.73-.03 1.38.58 1.4 1.33.07 2.76-1.36 5.33-3.75 6.7-1.167.67-2.46 1.01-3.75 1.01zm6.908 7.19c-.47 0-.93-.243-1.182-.68l-2.045-3.543c-.18-.313-.23-.685-.136-1.034.093-.35.322-.65.635-.83l5.902-3.41c.652-.38 1.486-.15 1.862.5l2.044 3.54c.182.31.23.68.137 1.03-.094.35-.322.64-.635.82l-5.902 3.41c-.217.12-.45.18-.68.18zm-.184-4.405l.682 1.18 3.542-2.04-.682-1.18-3.542 2.05zM21.463 27.29c-.47 0-.93-.245-1.182-.683-.37-.65-.15-1.485.5-1.862l7.84-4.524-.68-1.18-6.45 3.73c-.65.38-1.48.16-1.86-.5-.37-.65-.15-1.48.5-1.86L27.76 16c.314-.18.686-.23 1.036-.13.35.094.647.32.828.636l2.045 3.54c.37.65.15 1.48-.5 1.86l-9.02 5.204c-.22.123-.45.182-.68.182z"/>
    <path d="M37.393 55.867c-.467 0-.92-.24-1.175-.67l-3.24-5.473c-.384-.648-.17-1.484.478-1.867.65-.383 1.484-.168 1.867.48l2.555 4.312L65.04 36.96 51.41 13.35c-2.095-3.625-5.475-6.22-9.52-7.303-4.043-1.08-8.27-.527-11.895 1.567-3.626 2.092-6.22 5.473-7.304 9.517-1.08 4.05-.52 8.27 1.57 11.9l7.18 12.44c.38.65.16 1.49-.5 1.86-.65.38-1.48.16-1.86-.5L21.9 30.4c-2.46-4.257-3.11-9.217-1.84-13.965 1.28-4.747 4.32-8.715 8.58-11.173C32.89 2.8 37.85 2.15 42.6 3.42c4.745 1.27 8.714 4.318 11.17 8.575l14.31 24.79c.37.652.15 1.486-.5 1.863L38.07 55.685c-.215.124-.45.182-.68.182zm28.044 12.348H46.354c-.438 0-.85-.21-1.106-.566-.256-.36-.325-.82-.187-1.23l2.73-8.18c.19-.56.71-.93 1.3-.93h13.63c.59 0 1.11.37 1.3.93l2.73 8.18c.14.41.07.87-.184 1.23-.26.35-.67.56-1.11.56zm-17.193-2.727h15.3l-1.815-5.452H50.06l-1.818 5.452zm-14.16 2.727h-19.08c-.44 0-.85-.21-1.107-.566s-.326-.82-.187-1.23l2.724-8.18c.186-.56.707-.93 1.293-.93h13.63c.588 0 1.11.37 1.294.93l2.73 8.18c.14.41.07.87-.18 1.23-.25.35-.66.56-1.1.56zm-17.19-2.727h15.3l-1.817-5.452H18.71l-1.817 5.452z"/>
    <path d="M58.62 60.036c-.752 0-1.362-.61-1.362-1.363v-5.88c0-.752.61-1.363 1.363-1.363s1.37.61 1.37 1.363v5.88c0 .753-.61 1.363-1.36 1.363zm-5.452 0c-.752 0-1.362-.61-1.362-1.363V55.03c0-.75.61-1.362 1.362-1.362.754 0 1.363.61 1.363 1.363v3.65c0 .76-.6 1.37-1.36 1.37zm-11.586-26.58c-1.274 0-2.473-.497-3.373-1.397-.91-.91-1.4-2.1-1.4-3.38s.49-2.48 1.39-3.38c.9-.9 2.1-1.4 3.37-1.4s2.47.49 3.37 1.39c.9.9 1.39 2.1 1.39 3.375s-.498 2.472-1.4 3.373c-.9.9-2.097 1.394-3.37 1.394zm0-6.816c-.546 0-1.06.213-1.445.6s-.6.9-.6 1.445.213 1.06.6 1.445c.772.772 2.12.772 2.89 0 .388-.386.6-.9.6-1.445 0-.546-.212-1.06-.598-1.446h-.01c-.39-.39-.9-.6-1.45-.6zM7.505 31.41c-2.63 0-4.77-2.14-4.77-4.77s2.14-4.77 4.77-4.77c2.63 0 4.77 2.14 4.77 4.77s-2.14 4.77-4.77 4.77zm0-6.814c-1.127 0-2.044.917-2.044 2.044s.92 2.045 2.05 2.045 2.05-.917 2.05-2.045-.91-2.044-2.04-2.044zm7.497 19.084c-.753 0-1.363-.61-1.363-1.363 0-.754.61-1.363 1.36-1.363 1.12 0 2.04-.918 2.04-2.045 0-.76.61-1.37 1.36-1.37s1.36.61 1.36 1.36c0 2.63-2.14 4.77-4.77 4.77z"/>
    <path d="M21.817 43.68c-2.63 0-4.77-2.14-4.77-4.772 0-.753.61-1.363 1.362-1.363s1.36.61 1.36 1.363c0 1.127.91 2.045 2.04 2.045.75 0 1.36.61 1.36 1.363 0 .752-.61 1.363-1.37 1.363z"/>
    <path d="M18.41 47.086c-.753 0-1.363-.61-1.363-1.362 0-1.128-.917-2.045-2.045-2.045-.753 0-1.363-.61-1.363-1.37 0-.76.61-1.37 1.36-1.37 2.63 0 4.77 2.14 4.77 4.77 0 .75-.61 1.36-1.36 1.36z"/>
    <path d="M18.41 47.086c-.753 0-1.363-.61-1.363-1.362 0-2.63 2.14-4.77 4.77-4.77.754 0 1.364.608 1.364 1.362 0 .752-.61 1.362-1.36 1.362-1.12 0-2.04.917-2.04 2.045 0 .754-.61 1.363-1.36 1.363zm2.725 12.95c-.223 0-.45-.055-.658-.17-.66-.364-.898-1.193-.535-1.853l17.534-31.758c.363-.658 1.192-.898 1.852-.534.66.37.898 1.2.535 1.86L22.33 59.34c-.25.443-.715.7-1.195.7zm7.497 0c-.226 0-.456-.056-.667-.175-.657-.36-.89-1.19-.52-1.85L43.238 29.9c.37-.658 1.2-.893 1.856-.523.656.37.89 1.2.52 1.855L29.822 59.34c-.25.445-.712.696-1.188.696z"/>
    <path d="M41.592 38.23c-.248 0-.497-.01-.746-.03-.75-.06-1.312-.715-1.253-1.465.06-.75.714-1.313 1.465-1.253 1.358.107 2.7-.194 3.888-.868 3.27-1.855 4.42-6.023 2.564-9.292-.37-.655-.142-1.487.514-1.858.654-.37 1.486-.142 1.857.513 2.6 4.576.99 10.412-3.59 13.008-1.44.818-3.05 1.244-4.69 1.244z"/>
  </symbol>
  <symbol id="icon-stormtrooper" viewBox="0 0 70 70">
    <path d="M35.5 65.367c-3.758 0-6.815-3.058-6.815-6.816 0-3.41 2.654-9.93 6.815-9.93s6.815 6.52 6.815 9.93c0 3.76-3.057 6.82-6.815 6.82zm0-14.02c-1.806 0-4.09 4.467-4.09 7.204 0 2.26 1.835 4.09 4.09 4.09s4.09-1.83 4.09-4.09c0-2.73-2.285-7.2-4.09-7.2zm14.313 8.373c-1.274 0-2.473-.496-3.373-1.397-.9-.9-1.398-2.1-1.398-3.373 0-1.274.497-2.473 1.398-3.374.9-.9 2.1-1.397 3.373-1.397 1.273 0 2.473.49 3.373 1.39.9.9 1.397 2.1 1.397 3.37s-.496 2.47-1.397 3.37c-.9.9-2.1 1.39-3.373 1.39zm0-6.816c-.546 0-1.06.213-1.446.6-.386.385-.6.898-.6 1.445 0 .54.214 1.05.6 1.44.772.77 2.12.77 2.892 0 .38-.39.59-.9.59-1.45 0-.55-.22-1.06-.6-1.45s-.9-.6-1.45-.6zM21.188 59.72c-1.274 0-2.473-.496-3.373-1.397-.9-.9-1.398-2.1-1.398-3.373 0-1.274.497-2.473 1.398-3.374.9-.9 2.1-1.397 3.373-1.397 1.273 0 2.473.49 3.373 1.39.91.9 1.4 2.1 1.4 3.37s-.49 2.47-1.39 3.37c-.9.9-2.1 1.39-3.37 1.39zm0-6.816c-.546 0-1.06.213-1.446.6-.386.385-.6.898-.6 1.445 0 .54.214 1.05.6 1.44.772.77 2.12.77 2.892 0 .386-.39.6-.9.6-1.45 0-.55-.214-1.06-.6-1.45s-.9-.6-1.446-.6z"/>
    <path d="M47.768 67.212c-2.443 0-4.887-.93-6.747-2.79-.66-.663-1.45-1.76-1.92-2.666-.34-.67-.08-1.492.59-1.838.67-.348 1.49-.086 1.84.583.35.67.96 1.53 1.43 2 2.66 2.66 6.98 2.66 9.64 0l3.4-3.41c1.48-1.48 2.19-3.52 1.96-5.6-.04-.34.05-.68.25-.95 1.9-2.61 4.56-6.97 4.56-8.49 0-2.25-1.83-4.09-4.09-4.09-.75 0-1.36-.61-1.36-1.36s.61-1.36 1.37-1.36h1.185l-1.022-8.18h-.16c-.75 0-1.366-.61-1.366-1.36v-8.18c0-8.26-6.72-14.99-14.99-14.99H28.69c-8.27 0-15 6.73-15 15v8.18c0 .75-.606 1.36-1.36 1.36h-.16l-1.02 8.18h1.18c.753 0 1.363.61 1.363 1.37s-.61 1.365-1.36 1.365c-2.26 0-4.09 1.834-4.09 4.09 0 1.514 2.67 5.875 4.56 8.488.2.278.29.618.25.958-.24 2.08.47 4.12 1.95 5.6l3.4 3.406c2.66 2.653 6.98 2.653 9.64 0 .476-.475 1.09-1.33 1.436-1.996.34-.665 1.17-.925 1.83-.58s.93 1.17.587 1.84c-.47.904-1.263 2-1.927 2.664-3.72 3.72-9.78 3.72-13.5 0l-3.406-3.41c-1.94-1.94-2.94-4.58-2.78-7.3-1.265-1.79-4.788-7-4.788-9.68 0-2.224 1.07-4.203 2.73-5.447 0-.06.003-.12.01-.178l1.37-10.9c.084-.686.67-1.198 1.35-1.198v-6.82c0-9.77 7.954-17.72 17.725-17.72h13.63c9.774 0 17.718 7.95 17.718 17.72v6.813c.68 0 1.27.51 1.353 1.196l1.365 10.9c.01.058.01.114.01.173 1.66 1.246 2.73 3.226 2.73 5.45 0 2.677-3.52 7.89-4.786 9.674.16 2.72-.84 5.352-2.78 7.293l-3.407 3.41c-1.867 1.86-4.31 2.79-6.753 2.79z"/>
    <path d="M49.81 37.23c-4.558 0-11.585-4.098-11.585-9.543 0-.753.61-1.363 1.364-1.363h13.63c.75 0 1.35.61 1.35 1.363v4.77c0 2.63-2.14 4.772-4.77 4.772zm-8.604-8.18c1.12 3.03 5.69 5.453 8.604 5.453 1.128 0 2.042-.917 2.042-2.044v-3.41H41.206zm-20.02 8.18c-2.63 0-4.774-2.14-4.774-4.772v-4.77c0-.754.615-1.364 1.368-1.364h13.63c.753 0 1.362.61 1.362 1.363 0 5.444-7.03 9.542-11.587 9.542zm-2.048-8.18v3.408c0 1.127.92 2.044 2.047 2.044 2.912 0 7.487-2.424 8.608-5.453H19.138zm29.992 18.4c-1.932 0-3.814-1.1-6.42-2.624-.69-.404-1.438-.842-2.252-1.295-1.424-.79-3.01-1.53-4.958-1.53s-3.534.74-4.96 1.53c-.812.46-1.56.9-2.25 1.3-2.606 1.53-4.488 2.63-6.42 2.63-.754 0-1.364-.61-1.364-1.36s.61-1.36 1.363-1.36c1.19 0 2.89-.99 5.04-2.25.7-.41 1.47-.86 2.3-1.32 1.66-.92 3.71-1.87 6.29-1.87s4.62.95 6.28 1.88c.83.467 1.59.91 2.3 1.327 2.15 1.26 3.85 2.25 5.04 2.25.75 0 1.36.61 1.36 1.363s-.61 1.36-1.37 1.36zm9.542-23.852H12.327c-.753 0-1.363-.61-1.363-1.363 0-.752.61-1.363 1.363-1.363h46.345c.753 0 1.363.61 1.363 1.363 0 .752-.61 1.363-1.363 1.363zm-.056-4.09H12.382c-.754 0-1.363-.61-1.363-1.363s.6-1.363 1.36-1.363h46.23c.75 0 1.36.61 1.36 1.363s-.61 1.363-1.36 1.363z"/>
  </symbol>

  <symbol id="icon-closebird" viewBox="0 0 70 70">
    <path d="M68 49.428l-1.053-3.323c-.077.024-7.877 2.464-19.44 3.485-2.57.23-5.46.393-8.585.43 5.764-.744 10.596-3.317 14.566-7.584 9.256.13 12.633-2.633 13.418-4.142.095-.18.32-.806.32-.946-.234-.004-2.387.878-4.948.557-1.87-.234-3.85-1.02-5.868-2.206 2.455-2.16 3.824-4.89 4.555-6.32l1.06-2.47s-5.45.22-13.365-4.46c-3.503-2.07-6.944-3.88-9.858-4.57-.73-1.02-1.42-2.03-2.063-3-4.2-6.37-16.93-11.82-25.2 3.49 0 0-3.34 1.43-4.75 2.01v.315c1.15.84 2.31 1.674 3.45 2.53-1.13.7-2.25 1.417-3.37 2.127l.05.312c1.362.68 2.74 1.35 4.09 2.054.07.04.146.1.21.167.555 3.044 1.626 5.94 3.134 8.71 3.707 6.817 9.27 11.253 16.86 13.06.095.025.185.07.24.09-.005.033-.01.066-.017.098-8.238-.464-17.508-1.947-26.775-5.36L3.46 47.76c2.83 1.044 5.66 1.91 8.46 2.63C7.954 52.6 3.668 55.91 3 56.43l2.146 2.746c6.642-5.488 12.08-7.585 12.08-7.585 7.273 1.43 14.228 1.92 20.363 1.92 3.75 0 7.2-.18 10.22-.45 3.21-.28 6.12-.67 8.68-1.08-.81 1.27-2.25 2.9-4.8 4.3-2.01 1.1-4.386 1.33-6.9 1.58-4.02.39-8.58.83-11.63 5.31l2.88 1.96c1.844-2.71 4.504-3.304 7.604-3.65l-1.92 3.286 3.01 1.757L47.972 61c1.836-.27 3.668-.712 5.406-1.665 5.093-2.793 6.8-6.55 7.312-8.117 4.46-.9 7.118-1.732 7.307-1.79zm-48.736-26.92c-1.243-.006-2.24-1.003-2.25-2.243-.01-1.26 1.005-2.287 2.263-2.29 1.26-.003 2.276 1.014 2.273 2.277-.002 1.265-1.015 2.265-2.286 2.257zm11.398 1.597c1.268-12.466 19.576 6.178 26.707 4.792-.84 1.645-1.62 3.217-2.76 4.563 1.14-1.346-2.17 2.563 0 0-7.49 8.842-25.19 2.79-23.96-9.355z"/>
  </symbol>
  <symbol id="icon-crickets" viewBox="0 0 70 70">
    <path d="M44.646 34.726c-4.99-8.645-4.633-18.888.013-26.958-4.59-.007-9.24 1.13-13.5 3.594-9.19 5.305-14.04 15.183-13.42 25.092 2.18.07 4.233.847 5.892 2.23 1.57-.87 3.307-1.32 5.115-1.32 4.823 0 8.99 3.245 10.294 7.782 3.4 1.05 5.798 4.176 5.798 7.864 0 3.853-2.664 7.072-6.24 7.986 6.415 1.476 13.38.647 19.534-2.902 4.265-2.46 7.574-5.915 9.86-9.896-9.31-.016-18.36-4.83-23.352-13.472z"/>
    <path d="M42.587 53.007c0-3.127-2.397-5.665-5.442-5.948-.53-4.19-4.06-7.44-8.388-7.44-2.067 0-3.932.76-5.407 1.98-1.386-1.77-3.515-2.93-5.935-2.93-3.613 0-6.623 2.533-7.374 5.92C6.11 44.87 3 48.11 3 52.11c0 4.176 3.388 7.56 7.563 7.56.887 0 1.73-.18 2.52-.46 1.377 1.892 3.59 3.13 6.105 3.13 1.54 0 2.97-.466 4.164-1.256 1.363 1.323 3.215 2.148 5.27 2.148 3.02 0 5.603-1.787 6.814-4.35.37.072.75.12 1.146.12 3.314.006 6.005-2.686 6.005-5.995zm16.487-14.933L60.15 35.7l2.566-.454-1.92-1.762.356-2.583-2.265 1.29-2.342-1.14.523 2.56-1.806 1.88 2.586.296M7.304 31.7l1.842-.948 1.824.98-.33-2.043 1.493-1.44-2.045-.318-.9-1.866-.933 1.854-2.052.275 1.472 1.46m41.485-2.58l.842 1.572.736-1.63 1.76-.308-1.316-1.208.246-1.77-1.557.88-1.6-.78.36 1.752-1.24 1.283m10.24-4.47l.52.967.456-.992 1.08-.193-.81-.745.15-1.08-.956.54-.98-.48.214 1.075-.76.79M18.75 15.9l.52.966.45-1 1.083-.193-.81-.74.15-1.082-.955.54-.98-.48.215 1.08-.76.79"/>
  </symbol>
  <symbol id="icon-cuckoo" viewBox="0 0 70 70">
    <path d="M27.692 28.376c.14.914.333 1.82.55 2.727 1.193 4.912 4.114 9.367 7.655 12.9 3.16 3.16 6.91 5.687 10.87 7.778 6.135 3.24 12.573 4.42 19.468 4.57.643.02 1.022-.72.643-1.24-3.966-5.33-20.104-26.26-35.172-35.06 1.54-.99 2.773-2.41 3.54-4.09l3.587-1.35c.535-.2.674-.88.27-1.27l-3.176-3.09c-.836-4.41-4.71-7.74-9.358-7.74h-.29c-.03 0-.07 0-.1.01-.9.03-1.77.2-2.58.46-3.43 1-8.89 4.1-11.03 13.78-1.32 5.99.43 11.53 3.83 16.15.97 5.17 4.13 14.087 14.27 18.1 1.84.73 3.59 1.317 5.27 1.78V61H16.52c-.13-.82-.355-1.867-.73-2.998-.99-3.03-2.64-5.377-4.802-6.88-.573-.396-1.363-.2-1.69.42L7.67 54.67c-.256.488-.13 1.085.295 1.434 1.472 1.193 2.26 3.246 2.65 4.89H4.13c-.644 0-1.162.52-1.162 1.16v4.185c0 .64.52 1.16 1.163 1.16h56.93c.65 0 1.17-.52 1.17-1.16v-4.19c0-.65-.52-1.17-1.16-1.17H41.88c.154-2.88 3.06-6.73 2.99-6.78-.248-.16-.496-.32-.744-.5-7.746-5.26-14.596-13.05-16.223-22.53-.16-1.12-.275-2.23-.32-3.35l-.017-.47.063.452c.01.184.04.37.07.55zM29.42 7.978c1.07 0 1.937.868 1.937 1.937 0 1.07-.867 1.937-1.937 1.937-.52 0-1-.21-1.348-.542-.364-.356-.597-.844-.597-1.395 0-.31.078-.612.21-.868.326-.636.976-1.07 1.735-1.07z"/>
  </symbol>
  <symbol id="icon-forest" viewBox="0 0 70 70">
    <path d="M19.808 61.976c.733 0 1.422-.21 2.025-.54v4.198h1.354v-4.482c.697.51 1.55.826 2.487.826 2.017 0 3.695-1.418 4.108-3.31.764-.123 1.457-.447 2.03-.914V55.93c-.96.282-1.937.423-2.93.423-2.93 0-5.65-1.16-7.722-3.276-4.03-1.635-6.72-5.56-6.762-9.903-.708.646-1.203 1.53-1.328 2.557-.126 1.01.13 1.96.628 2.75-.87.77-1.424 1.89-1.424 3.14 0 1.5.777 2.8 1.944 3.55-.174.47-.286.97-.286 1.49 0 1.83 1.158 3.36 2.77 3.95.777.85 1.873 1.38 3.106 1.38zm38.572-11.52c0-1.575-.875-2.94-2.16-3.66-1.178.937-2.556 1.636-4.082 2.024-1.42 4.417-5.605 7.53-10.31 7.53-.832 0-1.655-.11-2.452-.305-.035.2-.055.396-.055.604 0 1.82 1.16 3.35 2.78 3.94.77.84 1.87 1.38 3.11 1.38.74 0 1.43-.21 2.03-.54v4.19h1.36v-4.48c.696.51 1.548.83 2.48.83 2.026 0 3.7-1.42 4.11-3.31 2.01-.32 3.556-2.05 3.556-4.15 0-.87-.27-1.68-.716-2.35.23-.52.37-1.1.37-1.72z"/>
    <path d="M36.338 52.154c1.54 1.138 3.428 1.83 5.49 1.83 4.45 0 8.154-3.125 9.065-7.3 4.434-.702 7.83-4.51 7.83-9.143 0-1.91-.582-3.69-1.576-5.17.517-1.15.82-2.43.82-3.78 0-3.98-2.53-7.36-6.06-8.67.733-1.33 1.196-2.84 1.196-4.47 0-5.13-4.158-9.29-9.29-9.29-1.837 0-3.536.55-4.977 1.47C37.223 4.87 34.27 3 30.853 3c-4.396 0-8.05 3.058-9.02 7.154-4 .623-7.28 3.784-7.804 7.997-.28 2.22.28 4.32 1.39 6.07-1.92 1.7-3.15 4.16-3.15 6.92 0 3.3 1.71 6.16 4.29 7.82-.39 1.03-.63 2.14-.63 3.3 0 4.01 2.55 7.39 6.1 8.7 1.7 1.86 4.12 3.04 6.84 3.04 1.62 0 3.14-.45 4.47-1.19v13.56H15.56V68h38.57v-1.643H36.336V52.154h.003z"/>
  </symbol>
  <symbol id="icon-rain" viewBox="0 0 70 70">
    <path d="M3.886 42.326C1.166 49.686 4.92 57.85 12.28 60.57c7.353 2.723 15.52-1.04 18.244-8.392 2.717-7.353-4.98-27.458-4.98-27.458S6.61 34.97 3.886 42.326zm4.66 2.89c.9 8 5.437 10.744 5.437 10.744-8.086-2.413-5.436-10.744-5.436-10.744zM65.56 43.09s-8.313 4.502-9.507 7.73c-1.193 3.23.454 6.814 3.684 8.01 3.228 1.19 6.813-.457 8.008-3.684C68.94 51.92 65.56 43.09 65.56 43.09zm-7.463 8.998c.396 3.513 2.388 4.718 2.388 4.718-3.55-1.056-2.388-4.718-2.388-4.718zm3.26-22.066c2.225-6.02-4.08-22.48-4.08-22.48s-15.495 8.4-17.724 14.415c-2.228 6.017.85 12.712 6.866 14.934 6.02 2.234 12.706-.844 14.935-6.866zm-17.992-5.7c.738 6.548 4.45 8.797 4.45 8.797-6.62-1.977-4.45-8.8-4.45-8.8z"/>
  </symbol>
  <symbol id="icon-thunder" viewBox="0 0 70 70">
    <path d="M55.67 21.3c.16-.705.26-1.432.26-2.186 0-5.506-4.466-9.97-9.97-9.97-2.08 0-4.013.642-5.613 1.735C38.114 6.22 33.367 3 27.857 3c-7.657 0-13.86 6.207-13.86 13.862 0 1.61.285 3.144.79 4.58-3.98 1.018-6.936 4.597-6.936 8.895 0 5.086 4.13 9.21 9.21 9.21h12.16l-3.08 10.13c-.14.45-.05.943.23 1.322.28.38.73.6 1.2.6h4.86l-1.004 15.8c-.018.27.16.512.42.58.26.07.533-.06.65-.3l9.4-19.578c.224-.46.19-1.006-.082-1.44s-.75-.698-1.26-.698H37.4l1.95-6.42h14.59c5.085 0 9.21-4.124 9.21-9.21-.002-4.494-3.222-8.223-7.48-9.036z"/>
  </symbol>
  <symbol id="icon-train" viewBox="0 0 70 70">
    <path d="M68 42.8c0-1.444-1.17-2.615-2.613-2.615h-2.092V29.893c0-1.85-1.457-3.3-3.316-3.3h-2.03c-.02 0-.035-.002-.047-.003-.01-.038-.018-.095-.018-.125l.003-6.024c0-1.29-1.115-2.384-2.435-2.384h-6.65c-1.31 0-2.418 1.094-2.418 2.388v5.844l.005.095c.004.037-.002.144-.02.214h-5.51c-.877 0-1.618-.765-1.618-1.67v-11.4c0-1.826-1.504-3.313-3.353-3.313H11.143c-1.897 0-3.44 1.49-3.44 3.316v26.66h-2.09C4.17 40.183 3 41.353 3 42.797s1.17 2.612 2.614 2.612h.87c-.08.595-.126 1.202-.126 1.82 0 7.475 6.082 13.556 13.558 13.556 4.73 0 8.898-2.436 11.325-6.116 1.627 3.115 4.88 5.246 8.63 5.246 3.256 0 6.14-1.61 7.906-4.073 1.766 2.464 4.65 4.073 7.906 4.073 5.36 0 9.725-4.36 9.725-9.724 0-1.736-.46-3.367-1.262-4.78h1.246c1.44 0 2.61-1.17 2.61-2.614zM16.592 29.66V18.645c0-.518.42-.94.94-.94h11.365c.518 0 .94.423.94.94v11.018c0 .518-.422.938-.94.938H17.532c-.518 0-.94-.42-.94-.94zm3.323 25.903c-4.593 0-8.33-3.737-8.33-8.33 0-4.594 3.737-8.33 8.33-8.33s8.33 3.736 8.33 8.33c0 4.592-3.738 8.33-8.33 8.33zm19.95-.873c-2.48 0-4.496-2.017-4.496-4.496s2.013-4.496 4.492-4.496c2.48 0 4.496 2.017 4.496 4.496s-2.016 4.496-4.496 4.496zm15.813 0c-2.48 0-4.496-2.017-4.496-4.496s2.018-4.496 4.496-4.496c2.48 0 4.496 2.017 4.496 4.496s-2.016 4.496-4.496 4.496z"/>
  </symbol>
  <symbol id="icon-waterfall" viewBox="0 0 70 70">
    <path d="M15.528 22.29c3.784 0 7.375-1.54 9.987-4.164 2.612 2.625 6.203 4.165 9.986 4.165 3.79 0 7.38-1.53 9.99-4.16 2.61 2.63 6.21 4.17 9.99 4.17 5.01 0 9.68-2.69 12.19-7.03.707-1.213.29-2.77-.93-3.47s-2.77-.286-3.47.93c-1.6 2.774-4.583 4.5-7.782 4.5-3.2 0-6.183-1.726-7.786-4.5-.453-.785-1.292-1.27-2.2-1.27-.907 0-1.745.484-2.2 1.27-1.602 2.774-4.584 4.498-7.783 4.498-3.2 0-6.183-1.725-7.79-4.5-.455-.784-1.29-1.27-2.2-1.27-.907 0-1.745.486-2.2 1.27-1.603 2.775-4.586 4.5-7.785 4.5s-6.184-1.726-7.79-4.5c-.7-1.214-2.256-1.63-3.47-.928-1.216.702-1.63 2.256-.93 3.472 2.51 4.34 7.18 7.036 12.187 7.036zm51.202 8.127c-1.216-.702-2.77-.287-3.473.928-1.604 2.774-4.587 4.498-7.785 4.498-3.2 0-6.184-1.724-7.787-4.498-.454-.785-1.293-1.27-2.2-1.27-.907 0-1.745.484-2.2 1.27-1.602 2.775-4.585 4.498-7.784 4.498-3.19 0-6.18-1.724-7.78-4.5-.45-.784-1.29-1.268-2.2-1.268-.9 0-1.74.484-2.2 1.27-1.6 2.774-4.58 4.497-7.78 4.497s-6.18-1.722-7.783-4.497c-.703-1.215-2.257-1.63-3.472-.928-1.213.702-1.63 2.257-.926 3.472 2.51 4.34 7.18 7.03 12.186 7.03 3.783 0 7.374-1.54 9.986-4.17 2.61 2.62 6.2 4.16 9.988 4.16s7.375-1.54 9.984-4.166c2.61 2.626 6.2 4.165 9.987 4.165 5.006 0 9.675-2.696 12.185-7.036.7-1.217.286-2.77-.93-3.474zm0 18.633c-1.216-.7-2.77-.286-3.473.93-1.604 2.773-4.587 4.497-7.785 4.497-3.2 0-6.184-1.724-7.787-4.497-.454-.785-1.293-1.27-2.2-1.27-.907 0-1.745.484-2.2 1.27-1.602 2.774-4.585 4.497-7.784 4.497-3.19 0-6.18-1.724-7.78-4.498-.45-.79-1.29-1.27-2.2-1.27-.9 0-1.74.48-2.2 1.27-1.6 2.77-4.58 4.49-7.78 4.49s-6.18-1.73-7.783-4.5c-.703-1.22-2.257-1.63-3.472-.93-1.213.7-1.63 2.26-.926 3.47 2.51 4.34 7.18 7.032 12.186 7.032 3.783 0 7.374-1.54 9.986-4.166 2.61 2.63 6.2 4.167 9.988 4.167s7.375-1.54 9.984-4.165c2.61 2.624 6.2 4.163 9.987 4.163 5.006 0 9.675-2.695 12.185-7.035.7-1.213.286-2.77-.93-3.47z"/>
  </symbol>
</defs>
</svg>
