<svg style="position: absolute; width: 0; height: 0;" width="0" height="0" version="1.1" xmlns="http://www.w3.org/2000/svg" xmlns:xlink="http://www.w3.org/1999/xlink">
<defs>
<symbol id="icon-sw1" viewBox="0 0 70 70">
  <path d="M9.55 58.673c-1.127 0-2.045-.917-2.045-2.044 0-1.13.917-2.05 2.045-2.05s2.044.91 2.044 2.04-.917 2.04-2.044 2.04zm0-2.726c-.376 0-.682.305-.682.682 0 .37.306.68.682.68.375 0 .68-.31.68-.68 0-.38-.305-.69-.68-.69zm7.497-46.345c-1.128 0-2.045-.917-2.045-2.044 0-1.128.917-2.045 2.045-2.045 1.127 0 2.044.917 2.044 2.045 0 1.127-.91 2.044-2.04 2.044zm0-2.727c-.376 0-.682.305-.682.682 0 .376.306.68.682.68.375 0 .68-.304.68-.68 0-.376-.305-.682-.68-.682zm46.345 2.727c-1.128 0-2.044-.917-2.044-2.044 0-1.128.916-2.045 2.044-2.045s2.045.917 2.045 2.045c0 1.127-.917 2.044-2.045 2.044zm0-2.727c-.376 0-.68.305-.68.682 0 .376.304.68.68.68s.682-.304.682-.68c0-.376-.306-.682-.682-.682zM23.08 31.077c-.47 0-.93-.245-1.182-.682-.376-.652-.153-1.486.5-1.862l29.51-17.04c.652-.374 1.487-.152 1.862.5.377.652.153 1.485-.498 1.862L23.76 30.895c-.215.124-.45.182-.68.182zm24.71 25.08c-.263 0-.524-.074-.75-.225l-5.09-3.358c-.627-.414-.8-1.26-.386-1.89.415-.627 1.262-.8 1.89-.386l4.384 2.895 12.706-7.336-.314-5.244c-.045-.75.528-1.396 1.28-1.44.745-.054 1.396.526 1.44 1.277l.366 6.085c.03.516-.232 1.004-.68 1.262l-14.166 8.18c-.21.12-.445.18-.68.18z"/>
  <path d="M53.852 56.43c-1.75 0-3.488-.61-4.877-1.797-.572-.49-.64-1.35-.15-1.922s1.35-.63 1.923-.14c1.533 1.31 3.74 1.52 5.488.51 1.75-1.01 2.675-3.02 2.307-5-.138-.74.35-1.45 1.09-1.59.74-.14 1.452.35 1.59 1.09.58 3.12-.876 6.28-3.623 7.87-1.166.674-2.46 1.004-3.748 1.004zm-25.56-44.264c-1.363 0-2.725-.372-3.93-1.113-.642-.395-.843-1.234-.448-1.875.394-.642 1.233-.84 1.875-.447 1.49.92 3.37.95 4.88.07 1.52-.87 2.43-2.51 2.38-4.26-.02-.75.57-1.38 1.32-1.4.73-.03 1.38.58 1.4 1.33.07 2.76-1.36 5.33-3.75 6.7-1.167.67-2.46 1.01-3.75 1.01zm6.908 7.19c-.47 0-.93-.243-1.182-.68l-2.045-3.543c-.18-.313-.23-.685-.136-1.034.093-.35.322-.65.635-.83l5.902-3.41c.652-.38 1.486-.15 1.862.5l2.044 3.54c.182.31.23.68.137 1.03-.094.35-.322.64-.635.82l-5.902 3.41c-.217.12-.45.18-.68.18zm-.184-4.405l.682 1.18 3.542-2.04-.682-1.18-3.542 2.05zM21.463 27.29c-.47 0-.93-.245-1.182-.683-.37-.65-.15-1.485.5-1.862l7.84-4.524-.68-1.18-6.45 3.73c-.65.38-1.48.16-1.86-.5-.37-.65-.15-1.48.5-1.86L27.76 16c.314-.18.686-.23 1.036-.13.35.094.647.32.828.636l2.045 3.54c.37.65.15 1.48-.5 1.86l-9.02 5.204c-.22.123-.45.182-.68.182z"/>
  <path d="M37.393 55.867c-.467 0-.92-.24-1.175-.67l-3.24-5.473c-.384-.648-.17-1.484.478-1.867.65-.383 1.484-.168 1.867.48l2.555 4.312L65.04 36.96 51.41 13.35c-2.095-3.625-5.475-6.22-9.52-7.303-4.043-1.08-8.27-.527-11.895 1.567-3.626 2.092-6.22 5.473-7.304 9.517-1.08 4.05-.52 8.27 1.57 11.9l7.18 12.44c.38.65.16 1.49-.5 1.86-.65.38-1.48.16-1.86-.5L21.9 30.4c-2.46-4.257-3.11-9.217-1.84-13.965 1.28-4.747 4.32-8.715 8.58-11.173C32.89 2.8 37.85 2.15 42.6 3.42c4.745 1.27 8.714 4.318 11.17 8.575l14.31 24.79c.37.652.15 1.486-.5 1.863L38.07 55.685c-.215.124-.45.182-.68.182zm28.044 12.348H46.354c-.438 0-.85-.21-1.106-.566-.256-.36-.325-.82-.187-1.23l2.73-8.18c.19-.56.71-.93 1.3-.93h13.63c.59 0 1.11.37 1.3.93l2.73 8.18c.14.41.07.87-.184 1.23-.26.35-.67.56-1.11.56zm-17.193-2.727h15.3l-1.815-5.452H50.06l-1.818 5.452zm-14.16 2.727h-19.08c-.44 0-.85-.21-1.107-.566s-.326-.82-.187-1.23l2.724-8.18c.186-.56.707-.93 1.293-.93h13.63c.588 0 1.11.37 1.294.93l2.73 8.18c.14.41.07.87-.18 1.23-.25.35-.66.56-1.1.56zm-17.19-2.727h15.3l-1.817-5.452H18.71l-1.817 5.452z"/>
  <path d="M58.62 60.036c-.752 0-1.362-.61-1.362-1.363v-5.88c0-.752.61-1.363 1.363-1.363s1.37.61 1.37 1.363v5.88c0 .753-.61 1.363-1.36 1.363zm-5.452 0c-.752 0-1.362-.61-1.362-1.363V55.03c0-.75.61-1.362 1.362-1.362.754 0 1.363.61 1.363 1.363v3.65c0 .76-.6 1.37-1.36 1.37zm-11.586-26.58c-1.274 0-2.473-.497-3.373-1.397-.91-.91-1.4-2.1-1.4-3.38s.49-2.48 1.39-3.38c.9-.9 2.1-1.4 3.37-1.4s2.47.49 3.37 1.39c.9.9 1.39 2.1 1.39 3.375s-.498 2.472-1.4 3.373c-.9.9-2.097 1.394-3.37 1.394zm0-6.816c-.546 0-1.06.213-1.445.6s-.6.9-.6 1.445.213 1.06.6 1.445c.772.772 2.12.772 2.89 0 .388-.386.6-.9.6-1.445 0-.546-.212-1.06-.598-1.446h-.01c-.39-.39-.9-.6-1.45-.6zM7.505 31.41c-2.63 0-4.77-2.14-4.77-4.77s2.14-4.77 4.77-4.77c2.63 0 4.77 2.14 4.77 4.77s-2.14 4.77-4.77 4.77zm0-6.814c-1.127 0-2.044.917-2.044 2.044s.92 2.045 2.05 2.045 2.05-.917 2.05-2.045-.91-2.044-2.04-2.044zm7.497 19.084c-.753 0-1.363-.61-1.363-1.363 0-.754.61-1.363 1.36-1.363 1.12 0 2.04-.918 2.04-2.045 0-.76.61-1.37 1.36-1.37s1.36.61 1.36 1.36c0 2.63-2.14 4.77-4.77 4.77z"/>
  <path d="M21.817 43.68c-2.63 0-4.77-2.14-4.77-4.772 0-.753.61-1.363 1.362-1.363s1.36.61 1.36 1.363c0 1.127.91 2.045 2.04 2.045.75 0 1.36.61 1.36 1.363 0 .752-.61 1.363-1.37 1.363z"/>
  <path d="M18.41 47.086c-.753 0-1.363-.61-1.363-1.362 0-1.128-.917-2.045-2.045-2.045-.753 0-1.363-.61-1.363-1.37 0-.76.61-1.37 1.36-1.37 2.63 0 4.77 2.14 4.77 4.77 0 .75-.61 1.36-1.36 1.36z"/>
  <path d="M18.41 47.086c-.753 0-1.363-.61-1.363-1.362 0-2.63 2.14-4.77 4.77-4.77.754 0 1.364.608 1.364 1.362 0 .752-.61 1.362-1.36 1.362-1.12 0-2.04.917-2.04 2.045 0 .754-.61 1.363-1.36 1.363zm2.725 12.95c-.223 0-.45-.055-.658-.17-.66-.364-.898-1.193-.535-1.853l17.534-31.758c.363-.658 1.192-.898 1.852-.534.66.37.898 1.2.535 1.86L22.33 59.34c-.25.443-.715.7-1.195.7zm7.497 0c-.226 0-.456-.056-.667-.175-.657-.36-.89-1.19-.52-1.85L43.238 29.9c.37-.658 1.2-.893 1.856-.523.656.37.89 1.2.52 1.855L29.822 59.34c-.25.445-.712.696-1.188.696z"/>
  <path d="M41.592 38.23c-.248 0-.497-.01-.746-.03-.75-.06-1.312-.715-1.253-1.465.06-.75.714-1.313 1.465-1.253 1.358.107 2.7-.194 3.888-.868 3.27-1.855 4.42-6.023 2.564-9.292-.37-.655-.142-1.487.514-1.858.654-.37 1.486-.142 1.857.513 2.6 4.576.99 10.412-3.59 13.008-1.44.818-3.05 1.244-4.69 1.244z"/>
</symbol>
<symbol id="icon-sw2" viewBox="0 0 70 70">
  <path d="M47.45 48.48c-3.442 0-7.56-.49-9.28-1.614-.63-.412-.808-1.257-.397-1.887.41-.64 1.256-.81 1.887-.4.905.59 4.26 1.2 8.102 1.17.743-.04 1.368.59 1.376 1.35.008.75-.598 1.37-1.35 1.37h-.338zm-23.885 0c-.114 0-.227 0-.34-.002-.752-.007-1.356-.638-1.35-1.39.008-.75.616-1.365 1.363-1.365h.014c3.847 0 7.196-.564 8.102-1.155.632-.41 1.476-.227 1.887.403.42.64.24 1.48-.39 1.9-1.72 1.12-5.84 1.62-9.28 1.62zm14.668-20.477H32.78c-.752 0-1.362-.61-1.362-1.363v-3.408c0-.753.61-1.363 1.363-1.363s1.37.61 1.37 1.36v2.04h2.73V5.51h-2.73v10.905c0 .753-.61 1.363-1.36 1.363s-1.36-.61-1.36-1.362V4.148c0-.75.61-1.363 1.37-1.363h5.46c.754 0 1.364.61 1.364 1.363V26.64c0 .753-.61 1.363-1.363 1.363z"/>
  <path d="M38.915 50.494H32.1c-.753 0-1.363-.61-1.363-1.363v-3.57c0-2.58 2.096-4.6 4.77-4.6 2.676 0 4.772 2.02 4.772 4.6v3.58c-.01.76-.62 1.37-1.37 1.37zm-5.452-2.726h4.09v-2.215c0-1.086-.86-1.875-2.045-1.875-1.186 0-2.045.79-2.045 1.875v2.215zM23.92 64.125c-.91 0-1.765-.355-2.408-.998-.644-.644-.998-1.5-.998-2.41s.354-1.766.998-2.41c.644-.643 1.5-.998 2.41-.998s1.766.35 2.41.99.997 1.5.997 2.41-.36 1.76-1 2.41c-.65.64-1.5.99-2.41.99zm0-4.09c-.104 0-.307.026-.48.2-.174.173-.2.376-.2.48s.026.31.2.483.376.2.48.2.31-.026.482-.2c.175-.174.2-.377.2-.482s-.025-.31-.2-.48c-.173-.174-.376-.2-.48-.2zm23.174 4.09c-.91 0-1.767-.355-2.41-.998-.644-.644-.998-1.5-.998-2.41s.354-1.766 1-2.41c.642-.643 1.497-.998 2.408-.998.91 0 1.766.35 2.41.99.644.64.997 1.5.997 2.41s-.35 1.76-.99 2.41c-.64.64-1.5 1-2.41 1zm0-4.09c-.105 0-.31.026-.48.2-.175.173-.2.376-.2.48s.025.31.2.483c.172.174.375.2.48.2.104 0 .308-.026.48-.2s.2-.377.2-.482-.025-.31-.2-.48c-.173-.174-.376-.2-.48-.2z"/>
  <path d="M45.05 62.08H25.965c-.753 0-1.363-.61-1.363-1.363 0-.752.61-1.363 1.363-1.363H45.05c.752 0 1.362.61 1.362 1.363s-.61 1.363-1.363 1.363z"/>
  <path d="M25.166 60.152c-.26 0-.524-.074-.758-.23-.625-.42-.792-1.267-.373-1.892l6.933-10.34c.42-.626 1.266-.794 1.89-.374.627.42.794 1.267.374 1.893L26.3 59.55c-.263.39-.695.602-1.134.602zm20.684 0c-.44 0-.87-.21-1.135-.604l-6.933-10.34c-.42-.626-.252-1.473.374-1.893.624-.42 1.47-.252 1.89.373l6.934 10.34c.42.626.252 1.473-.373 1.893-.233.16-.497.24-.758.24zM35.502 62.08c-.753 0-1.363-.61-1.363-1.363V49.13c0-.752.61-1.362 1.36-1.362s1.36.61 1.36 1.363v11.59c0 .76-.61 1.37-1.37 1.37z"/>
  <path d="M31.413 61.398c-.753 0-1.363-.61-1.363-1.363V49.813c0-.753.61-1.363 1.363-1.363s1.363.61 1.363 1.363v10.223c0 .752-.61 1.362-1.363 1.362zm8.177.682c-.75 0-1.362-.61-1.362-1.363V49.813c0-.753.61-1.363 1.363-1.363.76 0 1.37.61 1.37 1.363v10.904c0 .753-.61 1.363-1.36 1.363zm4.09 0c-.752 0-1.362-.61-1.362-1.363v-4.77c0-.754.61-1.364 1.363-1.364s1.37.61 1.37 1.363v4.77c0 .754-.61 1.364-1.36 1.364zm-16.357 0c-.752 0-1.362-.61-1.362-1.363v-4.77c0-.754.61-1.364 1.37-1.364s1.37.61 1.37 1.363v4.77c0 .754-.61 1.364-1.36 1.364zM23.63 42.953c-3.09 0-6.077-.55-7.38-1.87-.91-.923-1.332-2.124-1.224-3.476.203-2.505 2.218-5.033 4.125-6.426 3.24-2.36 10.61-2.66 13.2.19.98 1.08 1.07 3.55 1.06 4.56.12 4.39-.96 5.1-1.31 5.34-1.55 1.03-5.07 1.69-8.46 1.69zm2.486-10.927c-1.983 0-4.13.458-5.356 1.355-1.636 1.2-2.904 3.07-3.016 4.45-.046.56.097.99.446 1.34 1.4 1.42 9.725 1.34 12.228-.07.174-.49.297-1.9.264-3.13.007-1.15-.17-2.44-.37-2.77-.724-.77-2.393-1.15-4.196-1.15zm21.228 10.91c-.208 0-.405-.003-.59-.007-2.703-.06-6.206-.53-7.933-1.67-.35-.24-1.43-.95-1.31-5.38-.01-.97.08-3.44 1.06-4.52 2.59-2.86 9.96-2.55 13.2-.19 1.91 1.39 3.92 3.92 4.13 6.42.11 1.35-.31 2.55-1.22 3.47-1.55 1.57-5.03 1.85-7.32 1.85zm-6.85-3.845c2.505 1.41 10.83 1.5 12.228.08.35-.35.492-.78.447-1.34-.12-1.38-1.39-3.25-3.02-4.44-2.35-1.71-8.03-1.83-9.55-.2-.2.33-.38 1.65-.37 2.73-.04 1.28.09 2.69.26 3.19zm8.044 21.55c-.232 0-.467-.06-.684-.18-.65-.37-.872-1.21-.494-1.86l5.256-9.06c.38-.65 1.21-.87 1.863-.49.65.38.87 1.21.49 1.87l-5.26 9.06c-.25.44-.71.68-1.18.68zM21.134 17.4c-.33 0-.663-.12-.925-.362-.56-.51-.59-1.37-.08-1.92 3.18-3.443 7.6-5.725 12.45-6.424.74-.107 1.43.41 1.54 1.155.1.74-.41 1.43-1.16 1.54-4.23.61-8.08 2.59-10.84 5.57-.27.29-.64.43-1 .43zM17.7 22.71c-.178 0-.357-.034-.53-.107-.694-.293-1.018-1.094-.725-1.787.29-.68.623-1.35.988-2 .37-.65 1.2-.883 1.856-.512.65.37.88 1.2.51 1.858-.32.556-.6 1.138-.85 1.73-.22.518-.73.83-1.26.83zm4.777 37.93c-.47 0-.927-.244-1.18-.68L16.04 50.9c-.378-.65-.156-1.485.495-1.862.65-.38 1.484-.156 1.863.494l5.256 9.06c.378.65.156 1.484-.494 1.863-.216.13-.45.19-.683.19zm32.178.053c-.67 0-1.254-.494-1.348-1.176-.104-.746.417-1.434 1.163-1.537 4.628-.643 10.558-2.785 11.23-3.136.667-.35 1.49-.09 1.84.57s.087 1.49-.58 1.84c-1.1.57-7.317 2.75-12.116 3.416-.064.01-.126.014-.19.014zm-38.075 0c-.063 0-.126-.004-.19-.014-4.912-.68-11.347-2.96-12.334-3.47-.667-.35-.928-1.17-.58-1.84s1.17-.93 1.84-.58c.656.34 6.807 2.54 11.45 3.19.745.1 1.266.79 1.162 1.53-.095.68-.68 1.17-1.35 1.17z"/>
  <path d="M59.362 34.82c-.516 0-1.01-.295-1.238-.793-.22-.472-5.402-11.157-19.43-6.104-.706.254-1.488-.113-1.744-.82-.254-.71.113-1.49.82-1.746 16.437-5.922 22.768 7.395 22.83 7.53.313.684.014 1.494-.67 1.808-.184.084-.378.124-.568.124zm-47.71 0c-.19 0-.383-.04-.567-.126-.685-.314-.984-1.124-.67-1.808.062-.135 6.393-13.45 22.828-7.53.71.255 1.075 1.037.82 1.745s-1.038 1.08-1.744.83c-14.11-5.08-19.22 5.64-19.43 6.1-.23.5-.73.8-1.24.8z"/>
  <path d="M35.504 68.215c-8.08 0-23.57-.943-30.36-4.48-1.843-.958-3.573-3.36-1.352-9.356l6.493-21.13v-3.89c0-12.82 9.604-23.59 22.338-25.05.747-.09 1.425.45 1.51 1.19s-.45 1.42-1.2 1.51C21.577 8.32 13.01 17.93 13.01 29.36v4.297L6.36 55.29c-.563 1.512-1.686 5.127.042 6.025 6.322 3.29 21.268 4.17 29.102 4.17 7.832 0 22.775-.88 29.1-4.17 1.722-.896.597-4.513.033-6.025l-.025-.074-6.644-21.566.03-3.597-.026-.638C57.97 17.93 49.42 8.327 38.077 7.022c-.747-.086-1.284-.762-1.197-1.51.086-.748.758-1.282 1.51-1.198 12.717 1.462 22.307 12.23 22.307 25.05l.027.65-.025 3.24 6.5 21.124c2.22 5.996.49 8.397-1.35 9.355-6.79 3.535-22.28 4.48-30.36 4.48z"/>
</symbol>
</defs>
</svg>
