<svg xmlns="http://www.w3.org/2000/svg" width="70" height="70" viewBox="0 0 70 70">
  <path d="M31.1 37.346c0-1.52-1.238-2.76-2.755-2.76-1.52 0-2.758 1.24-2.758 2.76 0 1.515 1.234 2.756 2.758 2.756 1.516 0 2.755-1.242 2.755-2.756z"/>
  <circle cx="43.833" cy="37.342" r="2.755"/>
  <path d="M36.076 48.177c3.263 0 5.98-2.177 6.845-5.177H29.24c.86 3 3.582 5.177 6.84 5.177z"/>
  <path d="M67.5 12.674c-6.84-7.363-13.744-.694-16.46 2.612-4.293-3.327-9.67-5.31-15.5-5.31-6.137 0-11.77 2.193-16.156 5.835C17.024 12.78 9.72 4.897 2.5 12.676c0 0 2.395 8.4 12.926 7.253C12.15 24.198 10.2 29.53 10.2 35.32c0 13.968 11.368 25.335 25.34 25.335S60.877 49.29 60.877 35.32c0-5.746-1.922-11.05-5.154-15.305 9.558.446 11.777-7.34 11.777-7.34zM35.54 54.48c-10.565 0-19.162-8.716-19.162-19.28 0-1.4.15-2.2.44-4.2h12.24l-.052-5.156L34.28 31h19.99c.286 2 .44 2.8.44 4.2-.008 10.565-8.603 19.28-19.17 19.28z"/>
</svg>
