<svg xmlns="http://www.w3.org/2000/svg" width="70" height="70" viewBox="0 0 70 70">
  <circle cx="50.324" cy="10.655" r="7.869"/>
  <path d="M34 52.243V50.3c0-1.57 1-3.09 2-4.06V40h-7.084c-2.808 0-5.094-2.418-5.094-5.222 0-.46.178-1.04.178-1.463V32h.902c.933-2 2.382-3 4.014-3h6.658c.073 0 .426.045.426-.223V10.754C36 9.25 34.454 8 32.953 8h-22.44C9.006 8 8 9.25 8 10.754V28.78C8 30.284 9.007 32 10.512 32H20v2h-3.403c-1.354 0-2.45 1-2.45 3H3.67c-.7 0-1.67-.04-1.67.66v2.852C2 41.206 2.97 42 3.67 42H7v25h30V55.687s-3-.57-3-3.444zM14.472 27C12.97 27 12 26.402 12 24.9V14.638c0-1.505.97-2.637 2.472-2.637h14.595C30.57 12 32 13.135 32 14.64v10.265c0 1.5-1.427 2.098-2.934 2.098H14.472z"/>
  <path d="M25.856 34c0 1.69 1.366 3 3.054 3h7.128c1.106 0 2.085.3 2.215.266L38.19 45H42V28.297C42 24.98 44.376 21 47.726 21H60.14c-1.236-1-2.836-1-4.573-1H45.154c-6.38 0-6.784 6.305-6.784 6.305s-.85 4.123-1.563 4.618c-.214.152-.47.077-.77.077H28.91c-1.687 0-3.054 1.31-3.054 3z"/>
  <path d="M62.855 24H48.748C46.233 24 44 25.915 44 28.43V47h-4.28C37.97 47 37 48.354 37 50.1v1.147c0 1.19.48 1.753 1.67 1.753H48v3h-1.236S43 56.186 43 59.762v5.132c0 1.154.822 2.1 1.986 2.1 1.16 0 2.05-1.02 2.05-2.18L46.983 60H54v4.894c0 1.154.836 2.1 2 2.1s2-.945 2-2.1v-5.132C58 55.876 54.278 56 54.278 56H53v-3h10v.407c3 0 4-1.823 4-4.075v-20.9C67 25.914 65.368 24 62.855 24z"/>
</svg>
