<svg xmlns="http://www.w3.org/2000/svg" width="70" height="70" viewBox="0 0 70 70">
  <path d="M67.5 32.066c0-4.174-2.262-7.776-5.55-9.528-.535-5.354-4.798-9.526-9.98-9.526-2.277 0-4.37.816-6.055 2.174-1.665-3.44-5.032-5.8-8.926-5.8-3.01 0-5.71 1.416-7.55 3.645-1.84-2.56-4.73-4.22-7.99-4.22-4.83 0-8.86 3.63-9.82 8.46-5.13.48-9.14 5.05-9.14 10.62 0 3.56 1.64 6.69 4.15 8.63-1.19 1.75-1.9 3.9-1.9 6.22 0 5.89 4.49 10.67 10.04 10.67.35 0 .71-.02 1.05-.06 1.64 3.51 5.04 5.93 8.98 5.93 2.16 0 4.15-.73 5.79-1.96 1.84 2.39 4.63 3.91 7.76 3.91 4.24 0 7.85-2.79 9.33-6.75 1.69 1.39 3.81 2.23 6.11 2.23 5.54 0 10.04-4.77 10.04-10.66 0-1.76-.41-3.42-1.13-4.89 2.85-1.88 4.75-5.22 4.75-9.05zm-51.56-.9l.644-3.744-2.72-2.65 3.76-.544 1.68-3.407 1.68 3.41 3.758.55-2.718 2.65.643 3.75-3.363-1.76-3.363 1.77zm12.646 9.114l-2.636 2.73-.565-3.758-3.412-1.664 3.398-1.693.53-3.764 2.67 2.71 3.74-.66-1.75 3.37 1.79 3.36-3.74-.62zm11.01 8.655c-2.456 0-4.773-.573-6.85-1.567 6.107-1.05 10.786-6.835 10.786-13.834 0-7.565-5.46-13.714-12.288-13.998 2.43-1.503 5.282-2.388 8.35-2.388 8.778 0 15.897 7.116 15.897 15.894S48.38 48.935 39.6 48.935z"/>

  <path d="M64.84 17.517c-.094-.102-.192-.208-.28-.306.398.16.695.23.94.23.898 0 .898-.97.898-1.29 0-1.65-5.075-3.41-12.067-4.18-.45-.05-.92-.07-1.38-.07-6.38 0-10.79 4.97-12.45 6.84l-.37.42c-.88.96-2.56 4.09-3.9 6.6-.7 1.32-1.44 2.69-1.61 2.88-.02 0-.06.01-.15.01-.99 0-4.71-.69-7.57-2.33-1.93-1.11-3.03-3.59-4.3-6.46-.78-1.77-1.67-3.79-2.88-5.69-2.13-3.36-5.2-4.95-6.68-5.72-.32-.16-.65-.33-.79-.44 1.21-.73 3.17-2.11 3.46-3.47.05-.24.02-.43-.09-.57-.1-.12-.26-.19-.48-.19-.53 0-1.36.38-2.02.68-.17.08-.35.16-.5.22.08-.11.19-.24.28-.35.52-.64.88-1.13.81-1.47-.02-.11-.09-.2-.19-.25-.06-.03-.12-.04-.19-.04-.43 0-1.05.59-1.88 1.43-.242.24-.53.53-.71.68.027-.13.077-.294.11-.42.15-.5.3-1.01.08-1.305-.063-.087-.193-.193-.44-.193-.5 0-.94.845-1.5 2.035-.14.298-.31.65-.412.816-.05-.146-.097-.41-.12-.6-.1-.616-.19-1.196-.6-1.196-.37 0-.584.62-.897 1.62-.12.38-.294.94-.4 1.07-.12-.05-.37-.365-.52-.56-.316-.4-.59-.75-.88-.75-.02 0-.04 0-.05.007-.34.058-.34.53-.33 1.13 0 .273.01.91-.1.965h-.1c-.17 0-.22-.06-.32-.17-.07-.07-.156-.17-.29-.24-.2-.1-.39-.073-.516.07-.32.35-.26 1.41-.112 3.1l.08 1.07c.04.72.297 1.22.75 1.5-.11.343-.242.796-.32 1.236-.09.525-.08 1.216.09 1.41.05.06.11.09.17.09.056 0 .15-.02.22-.16.26-.54.58-.77.917-.88-.215.32-.156.82-.06 1.61.05.426.115.955.15 1.59.13 2.11 1.41 2.75 1.96 3.02.042.026.07.05.073.07.03.13-.22.53-.52 1-.36.56-.86 1.335-1.41 2.44-1.24 2.48-1.61 6.81-1 11.595.47 3.69 8.03 11.23 12.1 15.28.664.67 1.24 1.24 1.68 1.7.257.26.51.495.76.71-1.81 3.19-3.99 6.984-4.19 7.2 0 .01-.01.01-.032.01-.12 0-.34-.1-.55-.19-.24-.11-.52-.23-.8-.29-.135-.027-.24-.04-.323-.04-.215 0-.28.11-.3.18-.04.15 0 .31.84.82-.32.1-.98.23-1.49.33-.83.16-1.69.33-2.15.513-1.327.53-1.453.68-1.415.88.04.21.32.21.45.21.23 0 .57-.03 1.06-.1 1.85-.256 2.3-.26 2.87-.25l.23.002-.1.07c-.52.37-1.397.99-1.656 1.94-.04.14-.05.26.013.34.04.05.1.08.163.08.13 0 .24-.1.48-.327.208-.19.46-.42.72-.584.53-.324 3.07-1.585 3.73-1.68.056-.01.11-.01.17-.01.32 0 .65.114.97.224.284.1.55.19.79.19.166 0 .23-.09.25-.147.07-.18-.09-.35-.41-.68-.33-.34-.83-.86-.83-1.23 0-.14.2-.563.54-1.17.52-.06 1.15-.24 1.76-.665.687-.48.78-.634.727-.8-.02-.06-.08-.164-.28-.164-.19 0-.53.09-.89.187l-.2.054c-.11.03-.22.04-.34.04.66-1.11 1.495-2.44 2.3-3.7.493.164.99.25 1.5.25.66 0 1.28-.14 1.85-.335-.06 3.63-.21 8.814-.43 9.75-.06-.04-.13-.094-.19-.14-.37-.27-.875-.636-1.275-.66-.08 0-.15.046-.18.118-.052.13.03.22.19.384.07.07.24.24.29.34-.06.01-.23.01-.45-.028-.24-.04-.52-.06-.83-.06-1.31 0-2.884.34-3.48.46l-.17.04c-.17.03-.254.11-.25.23.01.18.02.255 1.82.45.866.09 1.93.18 2.603.23.41.03.62.07.72.1-.09.05-.28.13-.66.24-1.09.31-1.96.895-2.342 1.345-.08.097-.05.42-.04.45l.058.328h.11c.077 0 .167-.26.47-.39.316-.14.753-.42 1.185-.55.715-.21 1.63-.503 2.98-.67.83-.1 1.09-.34 1.28-.49.1-.08.15-.133.266-.15.19-.02.545.14.86.28.372.17.726.32.963.29.116-.014.203-.08.24-.18.09-.247-.11-.633-1.454-2.053-.135-.14-.22-.625-.26-1.334.475-.21 1.036-.56 1.5-1.16.498-.63.55-.81.48-.95-.04-.075-.113-.12-.21-.12-.17 0-.443.164-.913.456l-.18.11c-.19.12-.43.19-.71.215 0-2.31.195-5.59.41-8.18.376-.4.69-.89.995-1.37.602-.95 1.173-1.85 2.115-1.85.16 0 .337.03.51.08.46.13.92.19 1.43.19.325 0 .638-.02.97-.05.36-.023.73-.05 1.14-.05.966 0 1.92.16 3 .5.606.19 1.118.29 1.525.29.726 0 1.013-.31 1.126-.566.36-.82-.49-2.177-1.4-3.17-1.09-1.185-1.9-1.954-2.44-2.464-.26-.25-.5-.47-.61-.607.11-.008.3 0 .53.01.25.004.56.02.935.02 1.79 0 3.63-.26 5.63-.798 1.25-.33 1.49-.69 2.206-1.75l.32-.478c.29-.42.46-.684.568-.86.17-.27.17-.27.33-.323.07-.02.16-.05.28-.094.26-.1.605-.16.97-.22.615-.11 1.314-.23 1.93-.578.41-.23.75-.26 1.05-.285.38-.03.736-.06 1.04-.48.227-.315.265-.674.297-.99.05-.46.09-.7.45-.8.246-.07.405-.18.485-.34.13-.25.024-.543-.106-.92-.097-.262-.2-.56-.26-.92-.09-.59.03-.66.44-.91.26-.153.61-.37 1.01-.792.71-.75.45-1.27.28-1.62-.118-.23-.15-.33-.08-.44 1.49-2.24 2.07-3.4 2.29-3.98.255-.675.145-1.11.03-1.576-.11-.44-.227-.9-.026-1.67.26-1.005.125-1.365-.066-1.863-.13-.334-.278-.714-.35-1.43-.086-.87-.77-1.2-1.21-1.35l.904-.255c.22-.06.47-.09.74-.09 1.51 0 3.643.954 5.52 1.8 1.694.76 3.294 1.474 4.34 1.474.27 0 .502-.05.69-.15.28-.145.45-.36.495-.636.17-.93-1.11-2.31-1.954-3.23z"/>

  <path d="M50 30.227v-4.564C50 24.013 48.978 23 47.33 23h-7.765c1.57-2 2.215-4.188 1.92-6.152-.367-2.437-2.088-4.445-3.608-6.148-2.172-2.436-3.353-3.952-2.3-5.974.34-.65.152-1.476-.437-1.91-.588-.438-1.412-.392-1.934.124-6.985 6.857-3.28 11.506-.575 14.787C34.36 19.824 35.4 21 35.06 23h-8.94c1.57-2 2.216-4.188 1.92-6.152-.365-2.437-2.088-4.445-3.607-6.148-2.174-2.436-3.354-3.952-2.302-5.974.34-.65.16-1.476-.43-1.91-.59-.438-1.41-.392-1.93.124-6.98 6.857-3.28 11.506-.57 14.787C20.92 19.824 21.96 21 21.61 23H9.97C8.32 23 7 24.013 7 25.662v31.38C7 62.81 11.675 68 17.44 68h22.417c5.28 0 9.65-4.19 10.35-9.286 7.177-.7 12.652-6.89 12.652-14.25 0-7.32-5.86-13.488-12.86-14.237zm-30 25.32c0 1.65-1.35 2.99-3 2.99s-3-1.34-3-2.99V33.134c0-1.65 1.35-2.988 3-2.988s3 1.34 3 2.988V55.55zm30-3.13v-16.15c4 .706 6.725 4.056 6.725 8.075 0 4.02-2.725 7.37-6.725 8.074z"/>

  <path d="M50 30.227v-4.564C50 24.013 48.978 23 47.33 23h-7.765c1.57-2 2.215-4.188 1.92-6.152-.367-2.437-2.088-4.445-3.608-6.148-2.172-2.436-3.353-3.952-2.3-5.974.34-.65.152-1.476-.437-1.91-.588-.438-1.412-.392-1.934.124-6.985 6.857-3.28 11.506-.575 14.787C34.36 19.824 35.4 21 35.06 23h-8.94c1.57-2 2.216-4.188 1.92-6.152-.365-2.437-2.088-4.445-3.607-6.148-2.174-2.436-3.354-3.952-2.302-5.974.34-.65.16-1.476-.43-1.91-.59-.438-1.41-.392-1.93.124-6.98 6.857-3.28 11.506-.57 14.787C20.92 19.824 21.96 21 21.61 23H9.97C8.32 23 7 24.013 7 25.662v31.38C7 62.81 11.675 68 17.44 68h22.417c5.28 0 9.65-4.19 10.35-9.286 7.177-.7 12.652-6.89 12.652-14.25 0-7.32-5.86-13.488-12.86-14.237zm-30 25.32c0 1.65-1.35 2.99-3 2.99s-3-1.34-3-2.99V33.134c0-1.65 1.35-2.988 3-2.988s3 1.34 3 2.988V55.55zm30-3.13v-16.15c4 .706 6.725 4.056 6.725 8.075 0 4.02-2.725 7.37-6.725 8.074z"/>

  <path d="M65.338 38.395c-.203 0-.285.03-.493.086l-2.283.65-2.404-6c-.69-1.68-2.7-3.12-4.517-3.12H48V25.6c0-1.69-.637-4.205-1.277-5.768l-.506-.83h.297C47.876 19 49 17.638 49 16.274V14.89c0-1.166-.813-2.014-1.92-2.014-.203 0-.415.03-.622.086l-2.35.646-2.436-5.747C40.982 6.18 38.942 5 37.124 5H14.327C12.51 5 10.47 6.18 9.78 7.862l-2.433 5.833-2.316-.685c-.2-.057-.66-.11-.86-.11-1.11 0-2.16.824-2.16 1.99v1.384C2 17.637 3.61 19 4.97 19h.266l-.232.83C4.36 21.39 4 23.907 4 25.595v11.79C4 38.745 4.788 40 6.15 40h3.227C10.74 40 12 38.747 12 37.385V34h15.783l-1.92 4.898-2.316-.528c-.207-.057-.423-.03-.626-.03-1.1 0-1.92.902-1.92 2.068v1.383c0 1.37 1.13 2.21 2.49 2.21h.27l-.49 1.09c-.65 1.56-1.27 4.34-1.27 6.03V62.9c0 1.366 1.31 2.1 2.67 2.1h3.23c1.36 0 2.11-.734 2.11-2.098V60h28v2.902C58 64.266 59.23 65 60.59 65h3.228C65.18 65 66 64.266 66 62.902V51.114c0-1.688-.378-4.464-1.02-6.025L64.73 44h.3c1.362 0 1.97-.846 1.97-2.21v-1.38c0-1.166-.554-2.013-1.662-2.013zM43 28.012c0 .546-.442.988-.987.988h-7.025c-.546 0-.988-.442-.988-.988V24.99c0-.548.442-.99.987-.99h7.025c.546 0 .988.442.988.988v3.024zm-26 0c0 .546-.442.988-.988.988H8.988C8.442 29 8 28.558 8 28.012V24.99c0-.548.442-.99.988-.99h7.023c.55 0 .99.442.99.988v3.024zM10.345 19c-1.087 0-1.64-.707-1.226-1.713L12.8 8.57C13.216 7.564 14.442 7 15.53 7h20.392c1.087 0 2.314.622 2.727 1.628l3.68 8.76C42.74 18.394 42.19 19 41.1 19H10.34zm17.29 24.046l3.685-9.097c.412-1.01 1.64-1.95 2.726-1.95h20.392c1.088 0 2.314.88 2.728 1.88l3.685 9.13c.42 1.01-.14 1.99-1.22 1.99H28.86c-1.087 0-1.638-.95-1.225-1.96zM36 54.012c0 .546-.442.988-.988.988H27.99c-.548 0-.99-.442-.99-.988V50.99c0-.548.442-.99.988-.99h7.023c.55 0 .99.442.99.988v3.024zm26 0c0 .546-.442.988-.988.988H53.99c-.548 0-.99-.442-.99-.988V50.99c0-.548.442-.99.988-.99h7.023c.55 0 .99.442.99.988v3.024z"/>

  <path d="M44.5 11h-19c-9.392 0-17.006 8-17.006 17h53.012c0-9-7.614-17-17.005-17zm-16.27 4.323c-.564 0-1.022-.458-1.022-1.02 0-.564.46-1.022 1.02-1.022.564 0 1.022.46 1.022 1.03s-.458 1.02-1.02 1.02zm2.397 3.286c-.563 0-1.02-.46-1.02-1.03s.457-1.02 1.02-1.02 1.02.46 1.02 1.02-.458 1.02-1.02 1.02zM35 15.32c-.563 0-1.02-.458-1.02-1.02 0-.564.457-1.022 1.02-1.022s1.02.46 1.02 1.022c0 .563-.457 1.02-1.02 1.02zm4.373 3.286c-.563 0-1.02-.46-1.02-1.022s.457-1.02 1.02-1.02 1.02.458 1.02 1.02-.456 1.02-1.02 1.02zm2.398-3.287c-.56 0-1.02-.46-1.02-1.02s.46-1.02 1.02-1.02 1.03.46 1.03 1.02-.46 1.02-1.02 1.02zM17.12 59h35.765c5.327 0 9.646-5 9.646-10H7.47c0 5 4.318 10 9.646 10zm43.5-27H9.383C5.58 32 2.5 35.2 2.5 39s3.08 7 6.883 7h51.235c3.8 0 6.882-3.2 6.882-7s-3.08-7-6.882-7zm-2.456 9.567c-2.685 0-4.095-.61-5.34-1.148-1.104-.48-1.978-.86-3.926-.86s-2.82.38-3.928.85c-1.243.53-2.653 1.14-5.338 1.14-2.684 0-4.094-.61-5.338-1.15-1.105-.48-1.98-.86-3.927-.86s-2.82.37-3.927.85c-1.243.54-2.653 1.15-5.338 1.15-2.684 0-4.094-.61-5.337-1.15-1.105-.48-1.98-.86-3.927-.86-.98 0-1.776-.8-1.776-1.78S10.857 36 11.838 36c2.684 0 4.094.612 5.338 1.15 1.104.48 1.978.856 3.926.856 1.95 0 2.82-.377 3.927-.855 1.24-.53 2.65-1.15 5.33-1.15s4.09.62 5.34 1.15c1.1.48 1.98.86 3.92.86s2.82-.37 3.93-.85c1.25-.54 2.66-1.16 5.34-1.16s4.09.62 5.34 1.15c1.1.48 1.98.86 3.93.86.98 0 1.78.8 1.78 1.78s-.8 1.78-1.78 1.78z"/>

  <path d="M67.5 29.51c0-7.25-5.896-13.147-13.146-13.147-1.4 0-2.792.226-4.114.66-.717-2.956-2.29-5.65-4.562-7.748C42.8 6.615 39.056 5.15 35.134 5.15c-7.264 0-13.49 5.087-15.125 11.96-1.4-.492-2.88-.747-4.37-.747-7.25 0-13.14 5.897-13.14 13.147 0 5.27 3.19 10.015 7.94 12.068-.17.858-.25 1.732-.25 2.613 0 7.74 6.29 14.04 14.03 14.04 4.23 0 8.17-1.89 10.81-5.08 2.64 3.19 6.58 5.09 10.81 5.09 7.74 0 14.03-6.29 14.03-14.03 0-.89-.09-1.77-.25-2.64 4.7-2.07 7.86-6.8 7.86-12.03zM30 44H19v-1.62L25.693 32H19v-2h11v1.224L23.43 41H30v3zm0-7v-1.818L36.142 25H30v-2h10v1.024L33.877 34H40v3H30zm21-5.776L44.22 41H51v3H40v-1.62L46.483 32H40v-2h11v1.224zM7.78 54.288c-2.91 0-5.28 2.368-5.28 5.28s2.37 5.28 5.28 5.28c2.912 0 5.28-2.368 5.28-5.28s-2.367-5.28-5.28-5.28z"/>
</svg>
