<svg xmlns="http://www.w3.org/2000/svg" width="70" height="70" viewBox="0 0 70 70">
  <path d="M68 49.428l-1.053-3.323c-.077.024-7.877 2.464-19.44 3.485-2.57.23-5.46.393-8.585.43 5.764-.744 10.596-3.317 14.566-7.584 9.256.13 12.633-2.633 13.418-4.142.095-.18.32-.806.32-.946-.234-.004-2.387.878-4.948.557-1.87-.234-3.85-1.02-5.868-2.206 2.455-2.16 3.824-4.89 4.555-6.32l1.06-2.47s-5.45.22-13.365-4.46c-3.503-2.07-6.944-3.88-9.858-4.57-.73-1.02-1.42-2.03-2.063-3-4.2-6.37-16.93-11.82-25.2 3.49 0 0-3.34 1.43-4.75 2.01v.315c1.15.84 2.31 1.674 3.45 2.53-1.13.7-2.25 1.417-3.37 2.127l.05.312c1.362.68 2.74 1.35 4.09 2.054.07.04.146.1.21.167.555 3.044 1.626 5.94 3.134 8.71 3.707 6.817 9.27 11.253 16.86 13.06.095.025.185.07.24.09-.005.033-.01.066-.017.098-8.238-.464-17.508-1.947-26.775-5.36L3.46 47.76c2.83 1.044 5.66 1.91 8.46 2.63C7.954 52.6 3.668 55.91 3 56.43l2.146 2.746c6.642-5.488 12.08-7.585 12.08-7.585 7.273 1.43 14.228 1.92 20.363 1.92 3.75 0 7.2-.18 10.22-.45 3.21-.28 6.12-.67 8.68-1.08-.81 1.27-2.25 2.9-4.8 4.3-2.01 1.1-4.386 1.33-6.9 1.58-4.02.39-8.58.83-11.63 5.31l2.88 1.96c1.844-2.71 4.504-3.304 7.604-3.65l-1.92 3.286 3.01 1.757L47.972 61c1.836-.27 3.668-.712 5.406-1.665 5.093-2.793 6.8-6.55 7.312-8.117 4.46-.9 7.118-1.732 7.307-1.79zm-48.736-26.92c-1.243-.006-2.24-1.003-2.25-2.243-.01-1.26 1.005-2.287 2.263-2.29 1.26-.003 2.276 1.014 2.273 2.277-.002 1.265-1.015 2.265-2.286 2.257zm11.398 1.597c1.268-12.466 19.576 6.178 26.707 4.792-.84 1.645-1.62 3.217-2.76 4.563 1.14-1.346-2.17 2.563 0 0-7.49 8.842-25.19 2.79-23.96-9.355z"/>
</svg>
