<svg xmlns="http://www.w3.org/2000/svg" width="70" height="70" viewBox="0 0 70 70">
  <path d="M44.646 34.726c-4.99-8.645-4.633-18.888.013-26.958-4.59-.007-9.24 1.13-13.5 3.594-9.19 5.305-14.04 15.183-13.42 25.092 2.18.07 4.233.847 5.892 2.23 1.57-.87 3.307-1.32 5.115-1.32 4.823 0 8.99 3.245 10.294 7.782 3.4 1.05 5.798 4.176 5.798 7.864 0 3.853-2.664 7.072-6.24 7.986 6.415 1.476 13.38.647 19.534-2.902 4.265-2.46 7.574-5.915 9.86-9.896-9.31-.016-18.36-4.83-23.352-13.472z"/>
  <path d="M42.587 53.007c0-3.127-2.397-5.665-5.442-5.948-.53-4.19-4.06-7.44-8.388-7.44-2.067 0-3.932.76-5.407 1.98-1.386-1.77-3.515-2.93-5.935-2.93-3.613 0-6.623 2.533-7.374 5.92C6.11 44.87 3 48.11 3 52.11c0 4.176 3.388 7.56 7.563 7.56.887 0 1.73-.18 2.52-.46 1.377 1.892 3.59 3.13 6.105 3.13 1.54 0 2.97-.466 4.164-1.256 1.363 1.323 3.215 2.148 5.27 2.148 3.02 0 5.603-1.787 6.814-4.35.37.072.75.12 1.146.12 3.314.006 6.005-2.686 6.005-5.995zm16.487-14.933L60.15 35.7l2.566-.454-1.92-1.762.356-2.583-2.265 1.29-2.342-1.14.523 2.56-1.806 1.88 2.586.296M7.304 31.7l1.842-.948 1.824.98-.33-2.043 1.493-1.44-2.045-.318-.9-1.866-.933 1.854-2.052.275 1.472 1.46m41.485-2.58l.842 1.572.736-1.63 1.76-.308-1.316-1.208.246-1.77-1.557.88-1.6-.78.36 1.752-1.24 1.283m10.24-4.47l.52.967.456-.992 1.08-.193-.81-.745.15-1.08-.956.54-.98-.48.214 1.075-.76.79M18.75 15.9l.52.966.45-1 1.083-.193-.81-.74.15-1.082-.955.54-.98-.48.215 1.08-.76.79"/>
</svg>
