<svg xmlns="http://www.w3.org/2000/svg" width="70" height="70" viewBox="0 0 70 70">
  <path d="M27.692 28.376c.14.914.333 1.82.55 2.727 1.193 4.912 4.114 9.367 7.655 12.9 3.16 3.16 6.91 5.687 10.87 7.778 6.135 3.24 12.573 4.42 19.468 4.57.643.02 1.022-.72.643-1.24-3.966-5.33-20.104-26.26-35.172-35.06 1.54-.99 2.773-2.41 3.54-4.09l3.587-1.35c.535-.2.674-.88.27-1.27l-3.176-3.09c-.836-4.41-4.71-7.74-9.358-7.74h-.29c-.03 0-.07 0-.1.01-.9.03-1.77.2-2.58.46-3.43 1-8.89 4.1-11.03 13.78-1.32 5.99.43 11.53 3.83 16.15.97 5.17 4.13 14.087 14.27 18.1 1.84.73 3.59 1.317 5.27 1.78V61H16.52c-.13-.82-.355-1.867-.73-2.998-.99-3.03-2.64-5.377-4.802-6.88-.573-.396-1.363-.2-1.69.42L7.67 54.67c-.256.488-.13 1.085.295 1.434 1.472 1.193 2.26 3.246 2.65 4.89H4.13c-.644 0-1.162.52-1.162 1.16v4.185c0 .64.52 1.16 1.163 1.16h56.93c.65 0 1.17-.52 1.17-1.16v-4.19c0-.65-.52-1.17-1.16-1.17H41.88c.154-2.88 3.06-6.73 2.99-6.78-.248-.16-.496-.32-.744-.5-7.746-5.26-14.596-13.05-16.223-22.53-.16-1.12-.275-2.23-.32-3.35l-.017-.47.063.452c.01.184.04.37.07.55zM29.42 7.978c1.07 0 1.937.868 1.937 1.937 0 1.07-.867 1.937-1.937 1.937-.52 0-1-.21-1.348-.542-.364-.356-.597-.844-.597-1.395 0-.31.078-.612.21-.868.326-.636.976-1.07 1.735-1.07z"/>
</svg>
