<svg xmlns="http://www.w3.org/2000/svg" width="70" height="70" viewBox="0 0 70 70">
  <path d="M19.808 61.976c.733 0 1.422-.21 2.025-.54v4.198h1.354v-4.482c.697.51 1.55.826 2.487.826 2.017 0 3.695-1.418 4.108-3.31.764-.123 1.457-.447 2.03-.914V55.93c-.96.282-1.937.423-2.93.423-2.93 0-5.65-1.16-7.722-3.276-4.03-1.635-6.72-5.56-6.762-9.903-.708.646-1.203 1.53-1.328 2.557-.126 1.01.13 1.96.628 2.75-.87.77-1.424 1.89-1.424 3.14 0 1.5.777 2.8 1.944 3.55-.174.47-.286.97-.286 1.49 0 1.83 1.158 3.36 2.77 3.95.777.85 1.873 1.38 3.106 1.38zm38.572-11.52c0-1.575-.875-2.94-2.16-3.66-1.178.937-2.556 1.636-4.082 2.024-1.42 4.417-5.605 7.53-10.31 7.53-.832 0-1.655-.11-2.452-.305-.035.2-.055.396-.055.604 0 1.82 1.16 3.35 2.78 3.94.77.84 1.87 1.38 3.11 1.38.74 0 1.43-.21 2.03-.54v4.19h1.36v-4.48c.696.51 1.548.83 2.48.83 2.026 0 3.7-1.42 4.11-3.31 2.01-.32 3.556-2.05 3.556-4.15 0-.87-.27-1.68-.716-2.35.23-.52.37-1.1.37-1.72z"/>
  <path d="M36.338 52.154c1.54 1.138 3.428 1.83 5.49 1.83 4.45 0 8.154-3.125 9.065-7.3 4.434-.702 7.83-4.51 7.83-9.143 0-1.91-.582-3.69-1.576-5.17.517-1.15.82-2.43.82-3.78 0-3.98-2.53-7.36-6.06-8.67.733-1.33 1.196-2.84 1.196-4.47 0-5.13-4.158-9.29-9.29-9.29-1.837 0-3.536.55-4.977 1.47C37.223 4.87 34.27 3 30.853 3c-4.396 0-8.05 3.058-9.02 7.154-4 .623-7.28 3.784-7.804 7.997-.28 2.22.28 4.32 1.39 6.07-1.92 1.7-3.15 4.16-3.15 6.92 0 3.3 1.71 6.16 4.29 7.82-.39 1.03-.63 2.14-.63 3.3 0 4.01 2.55 7.39 6.1 8.7 1.7 1.86 4.12 3.04 6.84 3.04 1.62 0 3.14-.45 4.47-1.19v13.56H15.56V68h38.57v-1.643H36.336V52.154h.003z"/>
</svg>
