<svg xmlns="http://www.w3.org/2000/svg" width="70" height="70" viewBox="0 0 70 70">
  <path d="M3.886 42.326C1.166 49.686 4.92 57.85 12.28 60.57c7.353 2.723 15.52-1.04 18.244-8.392 2.717-7.353-4.98-27.458-4.98-27.458S6.61 34.97 3.886 42.326zm4.66 2.89c.9 8 5.437 10.744 5.437 10.744-8.086-2.413-5.436-10.744-5.436-10.744zM65.56 43.09s-8.313 4.502-9.507 7.73c-1.193 3.23.454 6.814 3.684 8.01 3.228 1.19 6.813-.457 8.008-3.684C68.94 51.92 65.56 43.09 65.56 43.09zm-7.463 8.998c.396 3.513 2.388 4.718 2.388 4.718-3.55-1.056-2.388-4.718-2.388-4.718zm3.26-22.066c2.225-6.02-4.08-22.48-4.08-22.48s-15.495 8.4-17.724 14.415c-2.228 6.017.85 12.712 6.866 14.934 6.02 2.234 12.706-.844 14.935-6.866zm-17.992-5.7c.738 6.548 4.45 8.797 4.45 8.797-6.62-1.977-4.45-8.8-4.45-8.8z"/>
</svg>
