<svg xmlns="http://www.w3.org/2000/svg" width="70" height="70" viewBox="0 0 70 70">
  <path d="M55.67 21.3c.16-.705.26-1.432.26-2.186 0-5.506-4.466-9.97-9.97-9.97-2.08 0-4.013.642-5.613 1.735C38.114 6.22 33.367 3 27.857 3c-7.657 0-13.86 6.207-13.86 13.862 0 1.61.285 3.144.79 4.58-3.98 1.018-6.936 4.597-6.936 8.895 0 5.086 4.13 9.21 9.21 9.21h12.16l-3.08 10.13c-.14.45-.05.943.23 1.322.28.38.73.6 1.2.6h4.86l-1.004 15.8c-.018.27.16.512.42.58.26.07.533-.06.65-.3l9.4-19.578c.224-.46.19-1.006-.082-1.44s-.75-.698-1.26-.698H37.4l1.95-6.42h14.59c5.085 0 9.21-4.124 9.21-9.21-.002-4.494-3.222-8.223-7.48-9.036z"/>
</svg>
