<svg xmlns="http://www.w3.org/2000/svg" width="70" height="70" viewBox="0 0 70 70">
  <path d="M68 42.8c0-1.444-1.17-2.615-2.613-2.615h-2.092V29.893c0-1.85-1.457-3.3-3.316-3.3h-2.03c-.02 0-.035-.002-.047-.003-.01-.038-.018-.095-.018-.125l.003-6.024c0-1.29-1.115-2.384-2.435-2.384h-6.65c-1.31 0-2.418 1.094-2.418 2.388v5.844l.005.095c.004.037-.002.144-.02.214h-5.51c-.877 0-1.618-.765-1.618-1.67v-11.4c0-1.826-1.504-3.313-3.353-3.313H11.143c-1.897 0-3.44 1.49-3.44 3.316v26.66h-2.09C4.17 40.183 3 41.353 3 42.797s1.17 2.612 2.614 2.612h.87c-.08.595-.126 1.202-.126 1.82 0 7.475 6.082 13.556 13.558 13.556 4.73 0 8.898-2.436 11.325-6.116 1.627 3.115 4.88 5.246 8.63 5.246 3.256 0 6.14-1.61 7.906-4.073 1.766 2.464 4.65 4.073 7.906 4.073 5.36 0 9.725-4.36 9.725-9.724 0-1.736-.46-3.367-1.262-4.78h1.246c1.44 0 2.61-1.17 2.61-2.614zM16.592 29.66V18.645c0-.518.42-.94.94-.94h11.365c.518 0 .94.423.94.94v11.018c0 .518-.422.938-.94.938H17.532c-.518 0-.94-.42-.94-.94zm3.323 25.903c-4.593 0-8.33-3.737-8.33-8.33 0-4.594 3.737-8.33 8.33-8.33s8.33 3.736 8.33 8.33c0 4.592-3.738 8.33-8.33 8.33zm19.95-.873c-2.48 0-4.496-2.017-4.496-4.496s2.013-4.496 4.492-4.496c2.48 0 4.496 2.017 4.496 4.496s-2.016 4.496-4.496 4.496zm15.813 0c-2.48 0-4.496-2.017-4.496-4.496s2.018-4.496 4.496-4.496c2.48 0 4.496 2.017 4.496 4.496s-2.016 4.496-4.496 4.496z"/>
</svg>
