<svg xmlns="http://www.w3.org/2000/svg" width="70" height="70" viewBox="0 0 70 70">
  <path d="M15.528 22.29c3.784 0 7.375-1.54 9.987-4.164 2.612 2.625 6.203 4.165 9.986 4.165 3.79 0 7.38-1.53 9.99-4.16 2.61 2.63 6.21 4.17 9.99 4.17 5.01 0 9.68-2.69 12.19-7.03.707-1.213.29-2.77-.93-3.47s-2.77-.286-3.47.93c-1.6 2.774-4.583 4.5-7.782 4.5-3.2 0-6.183-1.726-7.786-4.5-.453-.785-1.292-1.27-2.2-1.27-.907 0-1.745.484-2.2 1.27-1.602 2.774-4.584 4.498-7.783 4.498-3.2 0-6.183-1.725-7.79-4.5-.455-.784-1.29-1.27-2.2-1.27-.907 0-1.745.486-2.2 1.27-1.603 2.775-4.586 4.5-7.785 4.5s-6.184-1.726-7.79-4.5c-.7-1.214-2.256-1.63-3.47-.928-1.216.702-1.63 2.256-.93 3.472 2.51 4.34 7.18 7.036 12.187 7.036zm51.202 8.127c-1.216-.702-2.77-.287-3.473.928-1.604 2.774-4.587 4.498-7.785 4.498-3.2 0-6.184-1.724-7.787-4.498-.454-.785-1.293-1.27-2.2-1.27-.907 0-1.745.484-2.2 1.27-1.602 2.775-4.585 4.498-7.784 4.498-3.19 0-6.18-1.724-7.78-4.5-.45-.784-1.29-1.268-2.2-1.268-.9 0-1.74.484-2.2 1.27-1.6 2.774-4.58 4.497-7.78 4.497s-6.18-1.722-7.783-4.497c-.703-1.215-2.257-1.63-3.472-.928-1.213.702-1.63 2.257-.926 3.472 2.51 4.34 7.18 7.03 12.186 7.03 3.783 0 7.374-1.54 9.986-4.17 2.61 2.62 6.2 4.16 9.988 4.16s7.375-1.54 9.984-4.166c2.61 2.626 6.2 4.165 9.987 4.165 5.006 0 9.675-2.696 12.185-7.036.7-1.217.286-2.77-.93-3.474zm0 18.633c-1.216-.7-2.77-.286-3.473.93-1.604 2.773-4.587 4.497-7.785 4.497-3.2 0-6.184-1.724-7.787-4.497-.454-.785-1.293-1.27-2.2-1.27-.907 0-1.745.484-2.2 1.27-1.602 2.774-4.585 4.497-7.784 4.497-3.19 0-6.18-1.724-7.78-4.498-.45-.79-1.29-1.27-2.2-1.27-.9 0-1.74.48-2.2 1.27-1.6 2.77-4.58 4.49-7.78 4.49s-6.18-1.73-7.783-4.5c-.703-1.22-2.257-1.63-3.472-.93-1.213.7-1.63 2.26-.926 3.47 2.51 4.34 7.18 7.032 12.186 7.032 3.783 0 7.374-1.54 9.986-4.166 2.61 2.63 6.2 4.167 9.988 4.167s7.375-1.54 9.984-4.165c2.61 2.624 6.2 4.163 9.987 4.163 5.006 0 9.675-2.695 12.185-7.035.7-1.213.286-2.77-.93-3.47z"/>
</svg>
