<svg xmlns="http://www.w3.org/2000/svg" width="70" height="70" viewBox="0 0 70 70">
  <path d="M39.59 63.443h-8.18c-.752 0-1.362-.61-1.362-1.363v-1.818c0-2.86 2.878-4.998 5.452-4.998s5.453 2.14 5.453 4.998v1.818c0 .752-.61 1.363-1.363 1.363zm-6.817-2.726h5.453v-.455c0-1.17-1.536-2.27-2.727-2.27s-2.73 1.1-2.73 2.27v.455zm-4.77-34.077c-1.128 0-2.045-.917-2.045-2.046 0-1.127.917-2.043 2.045-2.043 1.127 0 2.045.92 2.045 2.05s-.918 2.05-2.045 2.05zm0-2.726c-.376 0-.682.305-.682.68 0 .377.31.682.69.682s.68-.305.68-.682c0-.375-.3-.68-.68-.68zm14.995 2.726c-1.13 0-2.045-.917-2.045-2.046 0-1.127.916-2.043 2.045-2.043 1.127 0 2.045.92 2.045 2.05s-.918 2.05-2.045 2.05zm0-2.726c-.377 0-.682.305-.682.68 0 .377.305.682.682.682.375 0 .682-.305.682-.682 0-.375-.307-.68-.682-.68zm8.86 44.3H19.142c-.753 0-1.363-.61-1.363-1.364 0-.752.61-1.36 1.36-1.36h32.71c.75 0 1.36.608 1.36 1.36 0 .754-.61 1.363-1.37 1.363z"/>
  <path d="M64.125 68.213H51.857c-.752 0-1.363-.61-1.363-1.363V61.4c0-.755.61-1.364 1.363-1.364h12.268c.754 0 1.363.61 1.363 1.363v5.45c0 .75-.61 1.36-1.363 1.36zM53.22 65.488h9.542V62.76h-9.54v2.728zm-34.077 2.725H6.875c-.753 0-1.363-.61-1.363-1.363V61.4c0-.755.61-1.364 1.363-1.364h12.268c.753 0 1.363.61 1.363 1.363v5.45c0 .75-.61 1.36-1.363 1.36zM8.238 65.488h9.54V62.76H8.24v2.728z"/>
  <path d="M6.875 68.213H4.148c-.753 0-1.363-.61-1.363-1.363 0-.752.61-1.36 1.363-1.36h2.727c.753 0 1.363.608 1.363 1.36 0 .754-.61 1.363-1.363 1.363zm59.977 0h-2.727c-.752 0-1.363-.61-1.363-1.363 0-.752.61-1.36 1.363-1.36h2.727c.752 0 1.363.608 1.363 1.36 0 .754-.61 1.363-1.363 1.363zM46.064 60.72c-.52 0-1.016-.298-1.242-.802C43.168 56.262 39.51 53.9 35.5 53.9c-4.01 0-7.667 2.36-9.32 6.016-.31.686-1.118.99-1.803.68-.687-.31-.99-1.12-.68-1.805 2.092-4.62 6.726-7.61 11.803-7.61 5.078 0 9.713 2.99 11.805 7.62.31.69.006 1.49-.68 1.8-.182.09-.373.12-.56.13z"/>
  <path d="M45.723 60.717h-6.29c-.753 0-1.362-.61-1.362-1.363s.61-1.363 1.37-1.363h6.29c.76 0 1.36.62 1.36 1.37s-.61 1.37-1.36 1.37zm-14.16 0h-6.286c-.753 0-1.362-.61-1.362-1.363s.61-1.363 1.362-1.363h6.286c.753 0 1.363.62 1.363 1.37s-.61 1.37-1.363 1.37zm6.657 7.496c-.752 0-1.362-.61-1.362-1.363v-4.77c0-.754.61-1.363 1.363-1.363.76 0 1.37.61 1.37 1.363v4.77c0 .754-.61 1.363-1.36 1.363zm-5.45 0c-.754 0-1.364-.61-1.364-1.363v-4.77c0-.754.61-1.363 1.363-1.363s1.36.61 1.36 1.363v4.77c0 .754-.61 1.363-1.37 1.363z"/>
  <path d="M25.958 68.215c-.154 0-.312-.027-.466-.084-.707-.25-1.072-1.03-.814-1.74l2.726-7.5c.258-.7 1.04-1.07 1.747-.81.71.26 1.08 1.04.82 1.75l-2.73 7.5c-.2.56-.72.9-1.28.9zm19.085 0c-.56 0-1.08-.344-1.28-.898l-2.728-7.496c-.258-.7.107-1.49.814-1.74.7-.25 1.49.11 1.74.82l2.72 7.5c.25.71-.11 1.49-.82 1.75-.16.06-.31.09-.47.09zm1.02-7.495c-.12 0-.24-.017-.362-.05-.72-.2-1.15-.95-.95-1.678.03-.11 3.08-11.125 3.63-14.725.83-5.38 2.04-21.414 2.12-22.45-.02-8.243-6.74-14.942-14.99-14.942-8.26 0-14.99 6.727-14.99 14.994 0 .75-.61 1.36-1.36 1.36s-1.36-.61-1.36-1.37c0-9.77 7.95-17.72 17.72-17.72s17.72 7.95 17.72 17.72v.1c-.05.69-1.27 17.07-2.146 22.72-.58 3.75-3.57 14.57-3.696 15.03-.17.6-.714 1-1.312 1z"/>
  <path d="M24.708 60.49c-.6 0-1.147-.398-1.313-1.002-.123-.45-3.02-11.016-3.566-14.684-.85-5.672-2-22.143-2.05-22.842-.06-.75.51-1.402 1.26-1.455.75-.043 1.4.516 1.45 1.266.01.17 1.19 17.063 2.02 22.627.52 3.51 3.47 14.258 3.5 14.365.2.727-.23 1.477-.96 1.676-.12.04-.248.05-.36.05zM35.5 20.506c-5.69 0-11.07-2.762-14.396-7.385-.438-.61-.3-1.46.312-1.9s1.462-.3 1.902.31c2.814 3.92 7.37 6.26 12.183 6.26 4.82 0 9.37-2.33 12.19-6.24.44-.61 1.29-.75 1.9-.31.61.44.75 1.29.31 1.9-3.32 4.63-8.7 7.39-14.39 7.39z"/>
  <path d="M21.463 47.54c-.238 0-.48-.062-.7-.194-.645-.387-.854-1.225-.467-1.87 3.188-5.313 9.015-8.612 15.204-8.612 6.2 0 11.844 3.154 15.1 8.44.393.64.193 1.48-.447 1.874-.643.395-1.48.193-1.875-.445-2.754-4.473-7.53-7.145-12.777-7.145-5.31 0-10.12 2.727-12.86 7.29-.25.427-.71.663-1.17.663zM56.63 32.092h-5.454c-.752 0-1.363-.61-1.363-1.363s.61-1.37 1.363-1.37h4.09v-9.54h-3.764c-.752 0-1.363-.61-1.363-1.37 0-.76.61-1.37 1.36-1.37h5.12c.75 0 1.36.61 1.36 1.36v12.27c0 .75-.61 1.36-1.37 1.36z"/>
  <path d="M53.896 19.824c-.752 0-1.363-.61-1.363-1.363V4.15c0-.754.61-1.363 1.363-1.363.754 0 1.363.61 1.363 1.363v14.31c0 .753-.61 1.364-1.37 1.364zM19.81 32.092h-4.074c-.753 0-1.363-.61-1.363-1.363V18.46c0-.753.61-1.362 1.363-1.362H19.5c.752 0 1.362.61 1.362 1.363s-.61 1.37-1.363 1.37h-2.4v9.54h2.71c.75 0 1.36.61 1.36 1.37s-.61 1.36-1.37 1.36z"/>
</svg>
