<svg xmlns="http://www.w3.org/2000/svg" width="70" height="70" viewBox="0 0 70 70">
  <path d="M10.742 32.81c-.47 0-.928-.245-1.182-.683-2.61-4.523-3.307-9.794-1.953-14.84 1.352-5.046 4.588-9.263 9.11-11.875s9.794-3.308 14.84-1.953c5.046 1.35 9.265 4.58 11.876 9.11.377.65.152 1.48-.5 1.86-.654.37-1.484.15-1.86-.5-2.25-3.9-5.878-6.68-10.22-7.84-4.342-1.17-8.877-.57-12.77 1.68-3.896 2.25-6.68 5.88-7.843 10.22-1.164 4.34-.566 8.88 1.682 12.77.377.65.154 1.48-.498 1.86-.215.12-.45.18-.682.18z"/>
  <path d="M15.71 34.14c-.116 0-.235-.015-.35-.046l-4.972-1.332c-.727-.194-1.158-.942-.963-1.67.193-.726.94-1.16 1.668-.963l4.426 1.18 24.23-13.99 1.18-4.43c.19-.73.94-1.16 1.67-.97.73.19 1.16.94.96 1.67l-1.34 4.97c-.1.35-.32.64-.64.83l-25.2 14.56c-.21.12-.45.18-.69.18z"/>
  <path d="M23.242 23.237c-.592 0-1.188-.077-1.773-.234-1.76-.472-3.23-1.6-4.14-3.176s-1.16-3.412-.68-5.17c.47-1.76 1.6-3.23 3.17-4.14 1.57-.91 3.41-1.15 5.17-.68 1.76.47 3.23 1.6 4.14 3.175.9 1.576 1.15 3.413.68 5.17-.47 1.76-1.6 3.23-3.18 4.14-1.05.606-2.22.915-3.4.915zm-.017-10.907c-.707 0-1.406.186-2.037.55-.945.546-1.62 1.427-1.904 2.482-.283 1.055-.137 2.156.408 3.102.547.946 1.428 1.623 2.482 1.905 1.055.28 2.156.13 3.102-.41.947-.55 1.623-1.43 1.906-2.48s.137-2.16-.41-3.11c-.545-.95-1.426-1.62-2.48-1.91-.354-.1-.712-.14-1.067-.14zm11.597 4.09c-.707 0-1.396-.367-1.773-1.022-.57-.978-.23-2.23.74-2.792s2.23-.228 2.79.748c.56.978.22 2.23-.75 2.792-.32.185-.68.273-1.02.273zm.586-2.385l-1.18.68c.188.327.605.44.93.252.326-.188.438-.605.252-.93l-.002-.002zm-.592-.34c-.115 0-.23.028-.338.09-.326.187-.438.605-.252.93l1.182-.68c-.127-.22-.355-.34-.592-.34zm9.544 25.898c-1.128 0-2.044-.917-2.044-2.045 0-1.127.916-2.044 2.043-2.044 1.12 0 2.04.917 2.04 2.044 0 1.128-.92 2.045-2.05 2.045zm0-2.727c-.376 0-.683.306-.683.682s.307.682.682.682c.37 0 .68-.306.68-.682s-.31-.682-.68-.682zM25.96 55.27c-1.13 0-2.046-.918-2.046-2.046 0-1.127.916-2.045 2.045-2.045 1.12 0 2.04.91 2.04 2.04s-.92 2.04-2.05 2.04zm0-2.728c-.378 0-.683.306-.683.682s.305.682.682.682c.37 0 .68-.306.68-.682s-.31-.682-.68-.682z"/>
  <path d="M38.227 68.218C24.32 68.218 13.01 56.905 13.01 43c0-3.97.854-8.184 2.285-11.27.318-.684 1.127-.98 1.81-.663s.98 1.128.663 1.81c-1.27 2.745-2.033 6.528-2.033 10.124 0 12.41 10.09 22.49 22.492 22.49 12.4 0 22.49-10.08 22.49-22.49 0-12.03-9.406-21.9-21.414-22.46-.752-.03-1.334-.67-1.3-1.42.038-.75.69-1.31 1.427-1.3 13.465.64 24.014 11.7 24.014 25.19 0 13.91-11.313 25.22-25.217 25.22z"/>
  <path d="M61.924 41.648c-.223 0-.45-.056-.66-.173-8.875-4.94-15.965-12.35-20.502-21.427-.338-.674-.064-1.492.61-1.83.673-.337 1.49-.062 1.827.61 4.29 8.585 10.99 15.593 19.39 20.266.65.365.89 1.195.52 1.854-.25.448-.72.7-1.2.7zm-25.14 26.528c-.21 0-.427-.05-.628-.153-2.285-1.187-3.945-2.97-4.8-5.154-.946-2.43-.83-5.11.34-7.77 1.67-3.79 5.23-6.97 9.765-8.72 7.92-3.06 16.28-.65 18.63 5.37.29.73.48 1.49.57 2.27.09.75-.45 1.42-1.19 1.51-.74.09-1.42-.45-1.51-1.2-.06-.55-.19-1.09-.39-1.6-1.8-4.63-8.58-6.34-15.1-3.83-3.8 1.47-6.89 4.19-8.25 7.28-.87 1.97-.97 3.93-.29 5.67.61 1.56 1.827 2.85 3.517 3.73.665.34.93 1.17.58 1.83-.244.47-.72.74-1.21.74zm-16.28-19.723c-2.237 0-4.415-.428-6.47-1.272-.695-.28-1.03-1.08-.742-1.77.285-.69 1.082-1.03 1.777-.74 1.72.71 3.55 1.07 5.43 1.07 7.89 0 14.31-6.42 14.31-14.31 0-2.91-.87-5.7-2.51-8.09-.43-.62-.27-1.47.35-1.89.62-.42 1.47-.27 1.89.35 1.95 2.85 2.98 6.18 2.98 9.64 0 9.4-7.65 17.04-17.04 17.04z"/>
  <path d="M36.932 51.925c-.38 0-.754-.156-1.023-.462l-6.32-7.168c-.5-.565-.45-1.426.12-1.924s1.42-.44 1.92.13l6.31 7.17c.5.57.44 1.43-.12 1.93-.26.23-.58.34-.9.34zM54.67 49.18c-.102 0-.207-.01-.31-.034-.733-.17-1.19-.903-1.02-1.637l2.454-10.59c.17-.74.9-1.19 1.637-1.02.74.17 1.19.9 1.02 1.63L56 48.12c-.146.63-.707 1.057-1.326 1.057zM35.092 27.027c-.64 0-1.21-.45-1.336-1.103-.145-.74.338-1.454 1.078-1.6l9.38-1.825c.737-.15 1.454.33 1.597 1.07.15.74-.33 1.45-1.07 1.6L35.36 27c-.09.02-.18.027-.266.027zM7.557 68.217h-3.41c-.75 0-1.362-.61-1.362-1.362s.61-1.363 1.363-1.363h3.408c.752 0 1.363.61 1.363 1.363s-.61 1.363-1.37 1.363zm49.073 0H13.01c-.754 0-1.363-.61-1.363-1.362s.61-1.363 1.363-1.363h43.62c.75 0 1.36.61 1.36 1.363s-.61 1.363-1.36 1.363zm10.222 0H62.08c-.752 0-1.363-.61-1.363-1.362s.61-1.363 1.363-1.363h4.77c.753 0 1.364.61 1.364 1.363s-.61 1.363-1.362 1.363zm-44.756-29.08c-3.738 0-6.846-2.8-7.23-6.513-.076-.75.467-1.42 1.215-1.497.76-.085 1.42.468 1.5 1.216.24 2.32 2.19 4.07 4.52 4.07 2.51 0 4.55-2.04 4.55-4.544 0-1.45-.7-2.83-1.87-3.68-.61-.45-.74-1.3-.3-1.91.44-.61 1.3-.75 1.91-.3 1.88 1.36 3 3.56 3 5.88 0 4-3.26 7.27-7.27 7.27zm23.236 26.336c-1.262 0-2.453-.325-3.436-.96-1.232-.794-2.03-2.014-2.246-3.435-.49-3.194 2.014-6.505 5.697-7.536 2.014-.563 4.043-.323 5.566.66 1.23.794 2.03 2.014 2.246 3.435.48 3.194-2.02 6.505-5.7 7.537-.72.2-1.44.3-2.13.3zm2.152-9.506c-.45 0-.922.066-1.4.2-2.303.645-4.014 2.705-3.74 4.5.125.818.63 1.298 1.03 1.557.868.56 2.09.678 3.353.325 2.3-.65 4.014-2.71 3.738-4.5-.125-.82-.63-1.3-1.03-1.56-.54-.35-1.214-.53-1.95-.53z"/>
</svg>
