<svg xmlns="http://www.w3.org/2000/svg" width="70" height="70" viewBox="0 0 70 70">
  <path d="M12.428 48.773c-.148 0-.3-.025-.447-.076L7.13 47.01c-.496-.172-.85-.613-.907-1.137l-1.37-12.268c-.07-.622.297-1.213.885-1.43l4.09-1.505c.707-.26 1.49.102 1.75.81.26.705-.102 1.488-.81 1.75L7.68 34.366l1.15 10.35 4.043 1.405c.71.25 1.088 1.03.84 1.74-.194.57-.722.92-1.286.92zm46.226-.163c-.577 0-1.113-.37-1.298-.95-.23-.717.167-1.484.884-1.713l3.93-1.254 1.147-10.317-3.042-1.086c-.71-.253-1.08-1.033-.826-1.742.25-.71 1.03-1.076 1.74-.825l4.06 1.448c.59.22.96.81.89 1.44l-1.36 12.27c-.06.54-.43.99-.94 1.15l-4.77 1.528c-.14.043-.28.064-.42.064zM49.58 65.035c-.597 0-1.144-.395-1.313-.996-.203-.73.22-1.48.944-1.68l4.71-1.32-.01-5.93c0-.76.61-1.21 1.36-1.21h.008c.75 0 1.36.45 1.363 1.2l.017 7.05c0 .36-.145.67-.4.92-.205.2-.466.313-.746.36l-5.552 1.55c-.12.034-.243.04-.365.04zm-27.77.272c-.135 0-.27-.02-.403-.063l-6.024-1.854c-.222-.063-.426-.182-.592-.348-.25-.256-.4-.602-.4-.963l.01-7.15c0-.76.61-1.37 1.37-1.37s1.365.61 1.364 1.36l-.004 6.14 5.094 1.563c.72.22 1.124.982.9 1.703-.18.59-.72.965-1.3.965zM46.42 40.27c-1.127 0-2.044-.916-2.044-2.043 0-1.13.917-2.045 2.045-2.045s2.05.916 2.05 2.045c0 1.127-.91 2.043-2.04 2.043zm0-2.725c-.375 0-.68.305-.68.682 0 .375.305.682.68.682s.683-.31.683-.69c0-.38-.306-.68-.682-.68z"/>
  <path d="M46.42 47.768c-5.26 0-9.54-4.28-9.54-9.54 0-5.263 4.28-9.543 9.54-9.543 5.262 0 9.542 4.28 9.542 9.542 0 5.26-4.28 9.54-9.54 9.54zm0-16.357c-3.757 0-6.814 3.06-6.814 6.82 0 3.76 3.058 6.82 6.815 6.82s6.82-3.05 6.82-6.81-3.05-6.813-6.81-6.813z"/>
  <path d="M46.42 47.768c-.752 0-1.362-.61-1.362-1.363v-3.408c0-.752.61-1.363 1.363-1.363s1.37.61 1.37 1.363v3.408c0 .75-.61 1.363-1.36 1.363zm0-12.95c-.752 0-1.362-.61-1.362-1.363v-3.407c0-.753.61-1.363 1.363-1.363s1.37.61 1.37 1.363v3.407c0 .753-.61 1.363-1.36 1.363zm4.09 11.822c-.753 0-1.363-.608-1.363-1.362V31.41c0-.752.61-1.362 1.363-1.362s1.363.61 1.363 1.363v13.87c0 .76-.61 1.37-1.363 1.37zm-8.18 0c-.752 0-1.362-.608-1.362-1.362V31.116c0-.752.61-1.362 1.363-1.362s1.37.61 1.37 1.362v14.162c0 .753-.61 1.363-1.36 1.363zm-17.72-6.37c-1.127 0-2.044-.916-2.044-2.043 0-1.13.917-2.045 2.045-2.045s2.05.916 2.05 2.045c0 1.127-.91 2.043-2.04 2.043zm0-2.725c-.375 0-.68.305-.68.682 0 .375.305.682.68.682s.683-.31.683-.69c0-.38-.306-.68-.682-.68z"/>
  <path d="M24.61 47.768c-5.26 0-9.54-4.28-9.54-9.54 0-5.263 4.28-9.543 9.54-9.543 5.262 0 9.542 4.28 9.542 9.542 0 5.26-4.28 9.54-9.54 9.54zm0-16.357c-3.757 0-6.814 3.06-6.814 6.82 0 3.76 3.058 6.82 6.815 6.82s6.82-3.05 6.82-6.81-3.05-6.813-6.81-6.813z"/>
  <path d="M24.61 47.768c-.752 0-1.362-.61-1.362-1.363v-3.408c0-.752.61-1.363 1.363-1.363s1.37.61 1.37 1.363v3.408c0 .75-.61 1.363-1.36 1.363zm0-12.95c-.752 0-1.362-.61-1.362-1.363v-3.407c0-.753.61-1.363 1.363-1.363s1.37.61 1.37 1.363v3.407c0 .753-.61 1.363-1.36 1.363zM28.7 46.64c-.753 0-1.363-.608-1.363-1.362V31.14c0-.75.61-1.36 1.363-1.36s1.363.61 1.363 1.36v14.137c0 .754-.61 1.364-1.363 1.364zm-8.18 0c-.752 0-1.36-.608-1.36-1.362V31.14c0-.75.608-1.36 1.36-1.36s1.364.61 1.364 1.36v14.137c0 .754-.61 1.364-1.363 1.364zm17.72 4.585c-.284 0-.572-.09-.817-.273l-1.946-1.465-1.846 1.447c-.59.465-1.44.36-1.91-.232-.46-.592-.36-1.45.23-1.914l3.5-2.738 3.62 2.723c.6.453.72 1.307.27 1.908-.27.36-.68.55-1.09.55zm3.41 10.173H29.38c-.753 0-1.363-.61-1.363-1.363v-4.09c0-.752.61-1.363 1.362-1.363h12.27c.75 0 1.36.61 1.36 1.363v4.09c0 .754-.61 1.363-1.37 1.363zm-10.905-2.726h9.542V57.31h-9.542v1.362z"/>
  <path d="M53.236 59.354H41.65c-.753 0-1.363-.61-1.363-1.363 0-.75.61-1.36 1.362-1.36h10.84c4.5-5.98 6.87-14.44 6.87-24.53 0-8.94-7.65-18.45-21.81-18.45h-4.09c-14.17 0-21.81 9.51-21.81 18.45 0 10.09 2.37 18.56 6.87 24.54h10.85c.753 0 1.363.61 1.363 1.366s-.61 1.364-1.363 1.364H17.8c-.564 0-1.07-.35-1.27-.87-4.968-6.473-7.59-15.586-7.59-26.39 0-10.27 8.6-21.178 24.536-21.178h4.09C53.5 10.92 62.1 21.83 62.1 32.092c0 10.856-2.648 20.004-7.66 26.48-.223.467-.68.78-1.203.78z"/>
  <path d="M46.588 68.215H24.716c-1.806 0-3.377-1.16-3.908-2.887l-2.134-6.938c-.222-.72.183-1.482.902-1.703.715-.223 1.482.182 1.703.902l2.13 6.93c.18.57.7.96 1.3.96h21.87c.6 0 1.12-.39 1.3-.97l2.13-6.936c.223-.72.99-1.126 1.704-.903.72.22 1.122.985.9 1.704l-2.135 6.94c-.53 1.728-2.1 2.888-3.91 2.888zm14.145-36.123c-.753 0-1.363-.61-1.363-1.363 0-13.44-11.147-25.22-23.854-25.22S11.662 17.29 11.662 30.73c0 .752-.61 1.362-1.363 1.362s-1.37-.61-1.37-1.363c0-14.89 12.42-27.95 26.58-27.95s26.58 13.06 26.58 27.94c0 .75-.61 1.36-1.37 1.36z"/>
  <path d="M35.516 10.283c-1.127 0-2.044-.917-2.044-2.045s.917-2.045 2.044-2.045c1.128 0 2.045.917 2.045 2.045s-.91 2.045-2.04 2.045zm0-2.727c-.376 0-.682.306-.682.682s.306.682.682.682.682-.306.682-.682-.306-.682-.682-.682z"/>
</svg>
