<svg xmlns="http://www.w3.org/2000/svg" width="70" height="70" viewBox="0 0 70 70">
  <path d="M26.64 23.232c-1.127 0-2.044-.917-2.044-2.045 0-1.127.917-2.044 2.044-2.044s2.045.917 2.045 2.044c0 1.128-.918 2.045-2.045 2.045zm0-2.726c-.375 0-.68.306-.68.68 0 .377.305.683.68.683.376 0 .682-.31.682-.69 0-.38-.306-.68-.682-.68z"/>
  <path d="M26.64 31.41c-5.637 0-10.223-4.585-10.223-10.223 0-5.637 4.586-10.223 10.223-10.223 5.637 0 10.224 4.586 10.224 10.223 0 5.638-4.587 10.224-10.224 10.224zm0-17.72c-4.134 0-7.497 3.363-7.497 7.497 0 4.135 3.363 7.497 7.497 7.497s7.497-3.362 7.497-7.497c0-4.134-3.364-7.496-7.497-7.496zm39.53 7.497c-1.128 0-2.045-.917-2.045-2.044 0-1.128.917-2.045 2.045-2.045 1.127 0 2.045.917 2.045 2.045 0 1.127-.918 2.044-2.045 2.044zm0-2.726c-.376 0-.682.31-.682.69 0 .38.306.68.682.68.375 0 .682-.3.682-.68 0-.37-.307-.68-.682-.68zm-6.135 48.4c-1.127 0-2.044-.91-2.044-2.04s.92-2.04 2.05-2.04 2.05.92 2.05 2.05-.91 2.05-2.04 2.05zm0-2.72c-.375 0-.682.31-.682.68 0 .38.307.68.682.68.376 0 .682-.31.682-.68 0-.38-.306-.68-.682-.68zm1.363-51.79c-2.63 0-4.77-2.14-4.77-4.77 0-2.63 2.14-4.77 4.77-4.77s4.77 2.14 4.77 4.77c.002 2.63-2.14 4.78-4.77 4.78zm0-6.81c-1.127 0-2.045.92-2.045 2.05s.918 2.05 2.045 2.05c1.128 0 2.045-.914 2.045-2.042 0-1.13-.917-2.043-2.045-2.043zm5.454 31.35H4.15c-.754 0-1.364-.61-1.364-1.36s.61-1.36 1.363-1.36h62.7c.75 0 1.36.61 1.36 1.37 0 .75-.61 1.36-1.37 1.36zM53.22 10.29h-8.86c-.752 0-1.362-.61-1.362-1.36s.61-1.36 1.362-1.36h8.86c.753 0 1.363.61 1.363 1.37s-.61 1.362-1.362 1.362zm8.178 10.224H51.176c-.753 0-1.363-.61-1.363-1.363s.61-1.36 1.363-1.36H61.4c.752 0 1.362.61 1.362 1.37s-.61 1.37-1.364 1.37zm-1.363 4.09H49.13c-.752 0-1.362-.61-1.362-1.364s.61-1.364 1.363-1.364h10.91c.76 0 1.37.61 1.37 1.36s-.61 1.37-1.36 1.37zm-4.09-9.543H49.13c-.752 0-1.362-.61-1.362-1.36 0-.75.61-1.36 1.363-1.36h6.82c.76 0 1.37.61 1.37 1.36s-.61 1.36-1.36 1.36zm-4.77 53.16H35.5c-.753 0-1.363-.61-1.363-1.36 0-.75.61-1.36 1.363-1.36h15.676c.752 0 1.363.61 1.363 1.36 0 .76-.62 1.37-1.37 1.37zm12.95-12.95H53.902c-.754 0-1.363-.61-1.363-1.36 0-.75.6-1.36 1.36-1.36h10.22c.75 0 1.36.61 1.36 1.37 0 .75-.61 1.37-1.37 1.37zm-2.045-4.09H47.768c-.752 0-1.363-.61-1.363-1.36s.61-1.36 1.363-1.36H62.08c.753 0 1.363.61 1.363 1.37s-.61 1.37-1.363 1.37zm-3.408 8.86h-6.814c-.753 0-1.363-.61-1.363-1.36 0-.75.61-1.36 1.363-1.36h6.814c.754 0 1.363.61 1.363 1.36 0 .76-.61 1.37-1.363 1.37zm7.923-27.26h-7.24c-.753 0-1.363-.61-1.363-1.36s.61-1.36 1.362-1.36h7.24c.754 0 1.363.61 1.363 1.36s-.61 1.37-1.362 1.37zm-.69 11.59h-4.507c-.752 0-1.363-.61-1.363-1.36 0-.75.61-1.36 1.363-1.36h4.507c.753 0 1.363.61 1.363 1.36 0 .76-.61 1.37-1.363 1.37zm.663-3.4h-3.125c-.753 0-1.363-.61-1.363-1.36s.61-1.36 1.363-1.36h3.125c.754 0 1.363.61 1.363 1.37.01.75-.6 1.363-1.36 1.363zm-29.593 20.4c-.717 0-1.317-.56-1.36-1.28-.043-.75.53-1.39 1.282-1.44.396-.02.79-.06 1.182-.1.74-.07 1.42.46 1.5 1.21s-.46 1.42-1.21 1.505c-.44.05-.88.08-1.33.11h-.08zm-4.88.05c-.068 0-.137-.002-.206-.014-6.89-1.04-13.45-5.14-17.57-10.97-.44-.61-.29-1.46.32-1.9.61-.43 1.46-.29 1.9.33 3.69 5.23 9.58 8.91 15.74 9.84.74.11 1.26.81 1.14 1.55-.11.68-.69 1.16-1.35 1.16zm27.26-20.443H57.99c-.753 0-1.363-.61-1.363-1.363s.61-1.36 1.36-1.36h1.363c.754 0 1.363.61 1.363 1.36s-.61 1.366-1.363 1.366zm-3.41 3.407h-1.362c-.753 0-1.362-.61-1.362-1.36 0-.753.61-1.36 1.37-1.36h1.37c.76 0 1.37.607 1.37 1.36 0 .753-.61 1.36-1.36 1.36zm-12.265 6.8h-1.364c-.753 0-1.363-.61-1.363-1.363s.61-1.363 1.363-1.363h1.363c.75 0 1.36.61 1.36 1.365s-.61 1.364-1.36 1.364zm2.724-30.67H45.04c-.75 0-1.36-.61-1.36-1.363s.61-1.363 1.36-1.363h1.364c.753 0 1.363.61 1.363 1.365s-.61 1.364-1.363 1.364z"/>
  <path d="M35.5 68.215C17.46 68.215 2.786 53.54 2.786 35.5c0-18.038 14.676-32.714 32.714-32.714 4.21 0 8.31.79 12.182 2.344.104.042.232.108.323.174.296.214 7.186 5.345 10.062 19.743.93.393 3.333 1.146 7.563.796.658-.05 1.256.367 1.428 1.002l.06.22c.74 2.782 1.1 5.503 1.1 8.322 0 3.98-.716 7.854-2.126 11.508-.203.527-.71.873-1.272.873-3.808-.104-5.013.477-5.302.668-2.52 12.71-8.272 15.807-8.98 16.145-4.65 2.42-9.708 3.64-15.038 3.64zm0-62.703C18.964 5.512 5.512 18.964 5.512 35.5S18.965 65.49 35.5 65.49c4.898 0 9.543-1.126 13.803-3.34.023-.015.05-.026.073-.038.11-.053 5.198-2.605 7.49-14.33.122-1.098 1.27-2.73 7.004-2.75 1.073-3.082 1.618-6.32 1.618-9.645 0-2.288-.26-4.507-.79-6.753-5.74.256-8.315-1.35-8.604-1.545-.303-.21-.512-.53-.578-.88-2.385-12.72-8.11-17.88-9-18.61-3.524-1.39-7.22-2.09-11.016-2.09z"/>
</svg>
