<svg xmlns="http://www.w3.org/2000/svg" width="70" height="70" viewBox="0 0 70 70">
  <path d="M25.4 35.39c-.35 0-.7-.132-.965-.397l-11.867-11.87c-.533-.53-.533-1.395 0-1.926.532-.533 1.395-.533 1.927 0l11.867 11.867c.533.53.533 1.395 0 1.928-.265.266-.614.4-.963.4zm5.256-4.38c-.35 0-.697-.133-.963-.398L17.5 18.418c-.532-.533-.532-1.396 0-1.928.532-.533 1.395-.533 1.928 0L31.62 28.684c.533.53.533 1.395 0 1.928-.266.265-.615.398-.964.398zM18.17 54.87c-.522 0-1.046-.202-1.444-.6-.797-.798-.797-2.095 0-2.892.797-.8 2.095-.797 2.892 0 .797.797.797 2.094 0 2.89-.4.4-.923.6-1.447.6zm0-2.727c-.173 0-.348.066-.48.2-.266.265-.266.698 0 .964s.698.266.963 0c.266-.268.266-.697 0-.963-.132-.133-.307-.2-.482-.2zm4.82-2.093c-.522 0-1.046-.2-1.445-.6-.797-.798-.797-2.093 0-2.892.797-.797 2.095-.797 2.89 0 .798.8.798 2.094 0 2.893-.397.4-.92.6-1.444.6zm0-2.726c-.174 0-.348.066-.48.2-.267.265-.267.696 0 .962.265.268.697.268.963 0 .266-.266.266-.697 0-.963-.133-.132-.307-.2-.482-.2zm-9.572-.406c-1.127 0-2.044-.918-2.044-2.045s.917-2.045 2.044-2.045 2.045.918 2.045 2.045-.918 2.045-2.045 2.045zm0-2.727c-.375 0-.682.31-.682.69 0 .38.306.68.682.68.376 0 .682-.3.682-.68 0-.37-.306-.68-.682-.68zm6.134-.16c-1.128 0-2.045-.92-2.045-2.04s.917-2.04 2.045-2.04c1.127 0 2.044.92 2.044 2.05s-.916 2.05-2.044 2.05zm0-2.72c-.376 0-.682.31-.682.68 0 .38.306.69.682.69.375 0 .68-.3.68-.68 0-.37-.304-.68-.68-.68zm6.572 18.33c-1.127 0-2.044-.92-2.044-2.04s.917-2.04 2.044-2.04 2.044.92 2.044 2.05-.917 2.047-2.044 2.047zm0-2.72c-.375 0-.682.31-.682.68 0 .38.306.68.682.68.376 0 .682-.3.682-.68 0-.37-.306-.68-.682-.68zm2.89-3.41c-1.126 0-2.043-.91-2.043-2.04 0-1.12.92-2.04 2.05-2.04s2.05.92 2.05 2.048c0 1.13-.91 2.04-2.04 2.04zm0-2.72c-.374 0-.68.31-.68.69 0 .376.305.68.68.68s.683-.305.683-.682c0-.375-.306-.68-.682-.68zm7.736-19.01c-.348 0-.697-.13-.962-.4-.533-.53-.533-1.39 0-1.93l22.384-22.4-1.348-1.35-31.35 9.64c-.72.226-1.482-.18-1.704-.9-.22-.72.183-1.48.902-1.702l32.133-9.88c.482-.15 1.008-.02 1.365.34l2.89 2.89c.534.53.534 1.396 0 1.93l-23.344 23.34c-.266.266-.615.4-.964.4z"/>
  <path d="M57.208 19.008c-.35 0-.698-.133-.964-.4l-3.855-3.855c-.54-.53-.54-1.395 0-1.928.53-.53 1.39-.53 1.92 0l3.85 3.855c.53.533.53 1.396 0 1.928-.27.267-.62.4-.97.4zm1.046 21.262h-.038c-.753 0-1.345-.74-1.325-1.493.17-5.805-1.68-11.44-5.18-15.79-.47-.587-.38-1.47.21-1.942.59-.47 1.45-.39 1.92.195 3.91 4.854 5.97 11.166 5.79 17.62-.02.74-.62 1.41-1.36 1.41z"/>
  <path d="M59.31 39.076c-.137 0-.274-.02-.41-.063-.718-.227-1.117-.992-.892-1.71l7.29-23.136-1.343-1.344-22.63 22.6c-.532.533-1.396.53-1.93-.002-.53-.53-.53-1.39.003-1.92L62.992 9.94c.53-.533 1.395-.533 1.927 0l2.89 2.89c.36.36.49.89.33 1.373l-7.53 23.92c-.19.58-.72.953-1.3.953z"/>
  <path d="M60.582 47.44c-.104 0-.207-.01-.31-.036l-17.577-4.082c-.732-.17-1.19-.904-1.02-1.637.172-.732.904-1.19 1.637-1.02l16.84 3.912 4.767-4.766c.79-.79.79-2.09 0-2.89-.8-.79-2.1-.79-2.9 0l-2.84 2.8c-.34.33-.82.47-1.28.36L40.03 35.8c-.73-.176-1.185-.912-1.01-1.645.175-.734.91-1.186 1.644-1.01l17.137 4.11 2.29-2.257c1.86-1.85 4.88-1.853 6.74.007 1.86 1.86 1.86 4.89 0 6.745l-5.3 5.3c-.26.263-.6.403-.96.403z"/>
  <path d="M53.6 53.953c-.347 0-.693-.13-.96-.396L39.707 40.695c-.533-.53-.536-1.393-.006-1.928.54-.533 1.4-.535 1.93-.004l12.94 12.86c.54.53.54 1.394.01 1.93-.26.267-.61.4-.96.4zm-4.688 4.95c-.352 0-.702-.134-.97-.403L35.418 45.85c-.53-.535-.525-1.398.01-1.928.536-.53 1.4-.525 1.928.01l12.525 12.65c.53.535.53 1.396-.01 1.928-.26.263-.61.394-.95.394z"/>
  <path d="M32.785 47.082c-2.443 0-4.887-.93-6.747-2.79-3.72-3.722-3.72-9.774 0-13.493 3.72-3.73 9.774-3.73 13.493 0 3.73 3.71 3.73 9.77 0 13.49-1.85 1.86-4.3 2.79-6.74 2.79zm0-16.35c-1.746 0-3.49.664-4.82 1.992-2.657 2.658-2.657 6.982 0 9.64 2.658 2.657 6.982 2.657 9.64 0 2.656-2.657 2.656-6.98 0-9.64-1.33-1.326-3.075-1.992-4.82-1.992z"/>
  <path d="M8.218 35.5c-.75 0-1.358-.604-1.363-1.354-.005-.754.602-1.367 1.354-1.373l17.18-.11h.01c.74 0 1.35.606 1.36 1.356 0 .75-.6 1.36-1.36 1.37l-17.18.11h-.01zm28.63 28.688c-.736 0-1.342-.586-1.363-1.326L35 44.926c-.02-.752.573-1.38 1.326-1.398h.037c.736 0 1.342.586 1.363 1.326l.484 17.936c.02.752-.574 1.38-1.326 1.398h-.036z"/>
  <path d="M32.924 68.213c-7.764 0-15.72-3.32-21.282-8.883-5.715-5.715-8.87-13.313-8.883-21.395-.01-.38.15-.744.43-1.002l3.75-3.48c.92-5.353 3.58-10.44 7.5-14.363 9.59-9.59 24.79-10.444 35.37-1.986.59.47.68 1.328.21 1.916-.47.586-1.33.682-1.92.213-9.49-7.588-23.14-6.82-31.74 1.785-3.64 3.633-6.06 8.365-6.82 13.326-.05.305-.2.584-.42.793l-3.65 3.385c.16 7.135 3.01 13.82 8.07 18.88 4.85 4.856 12.01 7.92 18.8 8.08L36 61.858c.21-.205.475-.338.76-.38 5.08-.757 9.69-3.083 13.335-6.726 2.746-2.744 4.796-6.143 5.93-9.826.225-.72.987-1.125 1.707-.902.72.22 1.124.984.903 1.705-1.266 4.1-3.55 7.89-6.61 10.95-3.95 3.95-8.92 6.51-14.41 7.42l-3.75 3.71c-.25.25-.6.39-.96.39z"/>
</svg>
