<svg xmlns="http://www.w3.org/2000/svg" width="70" height="70" viewBox="0 0 70 70">
  <path d="M9.55 58.673c-1.127 0-2.045-.917-2.045-2.044 0-1.13.917-2.05 2.045-2.05s2.044.91 2.044 2.04-.917 2.04-2.044 2.04zm0-2.726c-.376 0-.682.305-.682.682 0 .37.306.68.682.68.375 0 .68-.31.68-.68 0-.38-.305-.69-.68-.69zm7.497-46.345c-1.128 0-2.045-.917-2.045-2.044 0-1.128.917-2.045 2.045-2.045 1.127 0 2.044.917 2.044 2.045 0 1.127-.91 2.044-2.04 2.044zm0-2.727c-.376 0-.682.305-.682.682 0 .376.306.68.682.68.375 0 .68-.304.68-.68 0-.376-.305-.682-.68-.682zm46.345 2.727c-1.128 0-2.044-.917-2.044-2.044 0-1.128.916-2.045 2.044-2.045s2.045.917 2.045 2.045c0 1.127-.917 2.044-2.045 2.044zm0-2.727c-.376 0-.68.305-.68.682 0 .376.304.68.68.68s.682-.304.682-.68c0-.376-.306-.682-.682-.682zM23.08 31.077c-.47 0-.93-.245-1.182-.682-.376-.652-.153-1.486.5-1.862l29.51-17.04c.652-.374 1.487-.152 1.862.5.377.652.153 1.485-.498 1.862L23.76 30.895c-.215.124-.45.182-.68.182zm24.71 25.08c-.263 0-.524-.074-.75-.225l-5.09-3.358c-.627-.414-.8-1.26-.386-1.89.415-.627 1.262-.8 1.89-.386l4.384 2.895 12.706-7.336-.314-5.244c-.045-.75.528-1.396 1.28-1.44.745-.054 1.396.526 1.44 1.277l.366 6.085c.03.516-.232 1.004-.68 1.262l-14.166 8.18c-.21.12-.445.18-.68.18z"/>
  <path d="M53.852 56.43c-1.75 0-3.488-.61-4.877-1.797-.572-.49-.64-1.35-.15-1.922s1.35-.63 1.923-.14c1.533 1.31 3.74 1.52 5.488.51 1.75-1.01 2.675-3.02 2.307-5-.138-.74.35-1.45 1.09-1.59.74-.14 1.452.35 1.59 1.09.58 3.12-.876 6.28-3.623 7.87-1.166.674-2.46 1.004-3.748 1.004zm-25.56-44.264c-1.363 0-2.725-.372-3.93-1.113-.642-.395-.843-1.234-.448-1.875.394-.642 1.233-.84 1.875-.447 1.49.92 3.37.95 4.88.07 1.52-.87 2.43-2.51 2.38-4.26-.02-.75.57-1.38 1.32-1.4.73-.03 1.38.58 1.4 1.33.07 2.76-1.36 5.33-3.75 6.7-1.167.67-2.46 1.01-3.75 1.01zm6.908 7.19c-.47 0-.93-.243-1.182-.68l-2.045-3.543c-.18-.313-.23-.685-.136-1.034.093-.35.322-.65.635-.83l5.902-3.41c.652-.38 1.486-.15 1.862.5l2.044 3.54c.182.31.23.68.137 1.03-.094.35-.322.64-.635.82l-5.902 3.41c-.217.12-.45.18-.68.18zm-.184-4.405l.682 1.18 3.542-2.04-.682-1.18-3.542 2.05zM21.463 27.29c-.47 0-.93-.245-1.182-.683-.37-.65-.15-1.485.5-1.862l7.84-4.524-.68-1.18-6.45 3.73c-.65.38-1.48.16-1.86-.5-.37-.65-.15-1.48.5-1.86L27.76 16c.314-.18.686-.23 1.036-.13.35.094.647.32.828.636l2.045 3.54c.37.65.15 1.48-.5 1.86l-9.02 5.204c-.22.123-.45.182-.68.182z"/>
  <path d="M37.393 55.867c-.467 0-.92-.24-1.175-.67l-3.24-5.473c-.384-.648-.17-1.484.478-1.867.65-.383 1.484-.168 1.867.48l2.555 4.312L65.04 36.96 51.41 13.35c-2.095-3.625-5.475-6.22-9.52-7.303-4.043-1.08-8.27-.527-11.895 1.567-3.626 2.092-6.22 5.473-7.304 9.517-1.08 4.05-.52 8.27 1.57 11.9l7.18 12.44c.38.65.16 1.49-.5 1.86-.65.38-1.48.16-1.86-.5L21.9 30.4c-2.46-4.257-3.11-9.217-1.84-13.965 1.28-4.747 4.32-8.715 8.58-11.173C32.89 2.8 37.85 2.15 42.6 3.42c4.745 1.27 8.714 4.318 11.17 8.575l14.31 24.79c.37.652.15 1.486-.5 1.863L38.07 55.685c-.215.124-.45.182-.68.182zm28.044 12.348H46.354c-.438 0-.85-.21-1.106-.566-.256-.36-.325-.82-.187-1.23l2.73-8.18c.19-.56.71-.93 1.3-.93h13.63c.59 0 1.11.37 1.3.93l2.73 8.18c.14.41.07.87-.184 1.23-.26.35-.67.56-1.11.56zm-17.193-2.727h15.3l-1.815-5.452H50.06l-1.818 5.452zm-14.16 2.727h-19.08c-.44 0-.85-.21-1.107-.566s-.326-.82-.187-1.23l2.724-8.18c.186-.56.707-.93 1.293-.93h13.63c.588 0 1.11.37 1.294.93l2.73 8.18c.14.41.07.87-.18 1.23-.25.35-.66.56-1.1.56zm-17.19-2.727h15.3l-1.817-5.452H18.71l-1.817 5.452z"/>
  <path d="M58.62 60.036c-.752 0-1.362-.61-1.362-1.363v-5.88c0-.752.61-1.363 1.363-1.363s1.37.61 1.37 1.363v5.88c0 .753-.61 1.363-1.36 1.363zm-5.452 0c-.752 0-1.362-.61-1.362-1.363V55.03c0-.75.61-1.362 1.362-1.362.754 0 1.363.61 1.363 1.363v3.65c0 .76-.6 1.37-1.36 1.37zm-11.586-26.58c-1.274 0-2.473-.497-3.373-1.397-.91-.91-1.4-2.1-1.4-3.38s.49-2.48 1.39-3.38c.9-.9 2.1-1.4 3.37-1.4s2.47.49 3.37 1.39c.9.9 1.39 2.1 1.39 3.375s-.498 2.472-1.4 3.373c-.9.9-2.097 1.394-3.37 1.394zm0-6.816c-.546 0-1.06.213-1.445.6s-.6.9-.6 1.445.213 1.06.6 1.445c.772.772 2.12.772 2.89 0 .388-.386.6-.9.6-1.445 0-.546-.212-1.06-.598-1.446h-.01c-.39-.39-.9-.6-1.45-.6zM7.505 31.41c-2.63 0-4.77-2.14-4.77-4.77s2.14-4.77 4.77-4.77c2.63 0 4.77 2.14 4.77 4.77s-2.14 4.77-4.77 4.77zm0-6.814c-1.127 0-2.044.917-2.044 2.044s.92 2.045 2.05 2.045 2.05-.917 2.05-2.045-.91-2.044-2.04-2.044zm7.497 19.084c-.753 0-1.363-.61-1.363-1.363 0-.754.61-1.363 1.36-1.363 1.12 0 2.04-.918 2.04-2.045 0-.76.61-1.37 1.36-1.37s1.36.61 1.36 1.36c0 2.63-2.14 4.77-4.77 4.77z"/>
  <path d="M21.817 43.68c-2.63 0-4.77-2.14-4.77-4.772 0-.753.61-1.363 1.362-1.363s1.36.61 1.36 1.363c0 1.127.91 2.045 2.04 2.045.75 0 1.36.61 1.36 1.363 0 .752-.61 1.363-1.37 1.363z"/>
  <path d="M18.41 47.086c-.753 0-1.363-.61-1.363-1.362 0-1.128-.917-2.045-2.045-2.045-.753 0-1.363-.61-1.363-1.37 0-.76.61-1.37 1.36-1.37 2.63 0 4.77 2.14 4.77 4.77 0 .75-.61 1.36-1.36 1.36z"/>
  <path d="M18.41 47.086c-.753 0-1.363-.61-1.363-1.362 0-2.63 2.14-4.77 4.77-4.77.754 0 1.364.608 1.364 1.362 0 .752-.61 1.362-1.36 1.362-1.12 0-2.04.917-2.04 2.045 0 .754-.61 1.363-1.36 1.363zm2.725 12.95c-.223 0-.45-.055-.658-.17-.66-.364-.898-1.193-.535-1.853l17.534-31.758c.363-.658 1.192-.898 1.852-.534.66.37.898 1.2.535 1.86L22.33 59.34c-.25.443-.715.7-1.195.7zm7.497 0c-.226 0-.456-.056-.667-.175-.657-.36-.89-1.19-.52-1.85L43.238 29.9c.37-.658 1.2-.893 1.856-.523.656.37.89 1.2.52 1.855L29.822 59.34c-.25.445-.712.696-1.188.696z"/>
  <path d="M41.592 38.23c-.248 0-.497-.01-.746-.03-.75-.06-1.312-.715-1.253-1.465.06-.75.714-1.313 1.465-1.253 1.358.107 2.7-.194 3.888-.868 3.27-1.855 4.42-6.023 2.564-9.292-.37-.655-.142-1.487.514-1.858.654-.37 1.486-.142 1.857.513 2.6 4.576.99 10.412-3.59 13.008-1.44.818-3.05 1.244-4.69 1.244z"/>
</svg>
