<svg xmlns="http://www.w3.org/2000/svg" width="70" height="70">
  <path d="M35.5 65.367c-3.758 0-6.815-3.058-6.815-6.816 0-3.41 2.654-9.93 6.815-9.93s6.815 6.52 6.815 9.93c0 3.76-3.057 6.82-6.815 6.82zm0-14.02c-1.806 0-4.09 4.467-4.09 7.204 0 2.26 1.835 4.09 4.09 4.09s4.09-1.83 4.09-4.09c0-2.73-2.285-7.2-4.09-7.2zm14.313 8.373c-1.274 0-2.473-.496-3.373-1.397-.9-.9-1.398-2.1-1.398-3.373 0-1.274.497-2.473 1.398-3.374.9-.9 2.1-1.397 3.373-1.397 1.273 0 2.473.49 3.373 1.39.9.9 1.397 2.1 1.397 3.37s-.496 2.47-1.397 3.37c-.9.9-2.1 1.39-3.373 1.39zm0-6.816c-.546 0-1.06.213-1.446.6-.386.385-.6.898-.6 1.445 0 .54.214 1.05.6 1.44.772.77 2.12.77 2.892 0 .38-.39.59-.9.59-1.45 0-.55-.22-1.06-.6-1.45s-.9-.6-1.45-.6zM21.188 59.72c-1.274 0-2.473-.496-3.373-1.397-.9-.9-1.398-2.1-1.398-3.373 0-1.274.497-2.473 1.398-3.374.9-.9 2.1-1.397 3.373-1.397 1.273 0 2.473.49 3.373 1.39.91.9 1.4 2.1 1.4 3.37s-.49 2.47-1.39 3.37c-.9.9-2.1 1.39-3.37 1.39zm0-6.816c-.546 0-1.06.213-1.446.6-.386.385-.6.898-.6 1.445 0 .54.214 1.05.6 1.44.772.77 2.12.77 2.892 0 .386-.39.6-.9.6-1.45 0-.55-.214-1.06-.6-1.45s-.9-.6-1.446-.6z"/>
  <path d="M47.768 67.212c-2.443 0-4.887-.93-6.747-2.79-.66-.663-1.45-1.76-1.92-2.666-.34-.67-.08-1.492.59-1.838.67-.348 1.49-.086 1.84.583.35.67.96 1.53 1.43 2 2.66 2.66 6.98 2.66 9.64 0l3.4-3.41c1.48-1.48 2.19-3.52 1.96-5.6-.04-.34.05-.68.25-.95 1.9-2.61 4.56-6.97 4.56-8.49 0-2.25-1.83-4.09-4.09-4.09-.75 0-1.36-.61-1.36-1.36s.61-1.36 1.37-1.36h1.185l-1.022-8.18h-.16c-.75 0-1.366-.61-1.366-1.36v-8.18c0-8.26-6.72-14.99-14.99-14.99H28.69c-8.27 0-15 6.73-15 15v8.18c0 .75-.606 1.36-1.36 1.36h-.16l-1.02 8.18h1.18c.753 0 1.363.61 1.363 1.37s-.61 1.365-1.36 1.365c-2.26 0-4.09 1.834-4.09 4.09 0 1.514 2.67 5.875 4.56 8.488.2.278.29.618.25.958-.24 2.08.47 4.12 1.95 5.6l3.4 3.406c2.66 2.653 6.98 2.653 9.64 0 .476-.475 1.09-1.33 1.436-1.996.34-.665 1.17-.925 1.83-.58s.93 1.17.587 1.84c-.47.904-1.263 2-1.927 2.664-3.72 3.72-9.78 3.72-13.5 0l-3.406-3.41c-1.94-1.94-2.94-4.58-2.78-7.3-1.265-1.79-4.788-7-4.788-9.68 0-2.224 1.07-4.203 2.73-5.447 0-.06.003-.12.01-.178l1.37-10.9c.084-.686.67-1.198 1.35-1.198v-6.82c0-9.77 7.954-17.72 17.725-17.72h13.63c9.774 0 17.718 7.95 17.718 17.72v6.813c.68 0 1.27.51 1.353 1.196l1.365 10.9c.01.058.01.114.01.173 1.66 1.246 2.73 3.226 2.73 5.45 0 2.677-3.52 7.89-4.786 9.674.16 2.72-.84 5.352-2.78 7.293l-3.407 3.41c-1.867 1.86-4.31 2.79-6.753 2.79z"/>
  <path d="M49.81 37.23c-4.558 0-11.585-4.098-11.585-9.543 0-.753.61-1.363 1.364-1.363h13.63c.75 0 1.35.61 1.35 1.363v4.77c0 2.63-2.14 4.772-4.77 4.772zm-8.604-8.18c1.12 3.03 5.69 5.453 8.604 5.453 1.128 0 2.042-.917 2.042-2.044v-3.41H41.206zm-20.02 8.18c-2.63 0-4.774-2.14-4.774-4.772v-4.77c0-.754.615-1.364 1.368-1.364h13.63c.753 0 1.362.61 1.362 1.363 0 5.444-7.03 9.542-11.587 9.542zm-2.048-8.18v3.408c0 1.127.92 2.044 2.047 2.044 2.912 0 7.487-2.424 8.608-5.453H19.138zm29.992 18.4c-1.932 0-3.814-1.1-6.42-2.624-.69-.404-1.438-.842-2.252-1.295-1.424-.79-3.01-1.53-4.958-1.53s-3.534.74-4.96 1.53c-.812.46-1.56.9-2.25 1.3-2.606 1.53-4.488 2.63-6.42 2.63-.754 0-1.364-.61-1.364-1.36s.61-1.36 1.363-1.36c1.19 0 2.89-.99 5.04-2.25.7-.41 1.47-.86 2.3-1.32 1.66-.92 3.71-1.87 6.29-1.87s4.62.95 6.28 1.88c.83.467 1.59.91 2.3 1.327 2.15 1.26 3.85 2.25 5.04 2.25.75 0 1.36.61 1.36 1.363s-.61 1.36-1.37 1.36zm9.542-23.852H12.327c-.753 0-1.363-.61-1.363-1.363 0-.752.61-1.363 1.363-1.363h46.345c.753 0 1.363.61 1.363 1.363 0 .752-.61 1.363-1.363 1.363zm-.056-4.09H12.382c-.754 0-1.363-.61-1.363-1.363s.6-1.363 1.36-1.363h46.23c.75 0 1.36.61 1.36 1.363s-.61 1.363-1.36 1.363z"/>
</svg>
