<svg xmlns="http://www.w3.org/2000/svg" width="70" height="70" viewBox="0 0 70 70">
  <path d="M5.957 61.304L62.155 5.106l3.803 3.803L9.76 65.103zm22.6-26.734L45.3 17.828c-4.827-7.25-9.343-12.72-9.343-12.72S15.113 30.365 15.113 44.262c0 1.175.12 2.32.308 3.442l5.21-5.21c.524-7.322 8.64-17.712 13.33-27.406-.354 3.526-3.42 11.556-5.402 19.48zm22.756-6.79L27.635 51.458c.54 2.62 1.262 5.25 1.853 6.738-2.042-1.003-3.606-2.302-4.858-3.732l-3.95 3.95c3.81 4.106 9.233 6.694 15.277 6.694 11.515 0 20.846-9.33 20.846-20.845 0-4.672-2.362-10.63-5.49-16.48z"/>
</svg>
