<svg xmlns="http://www.w3.org/2000/svg" width="100" height="100" viewBox="0 0 100 100">
  <g fill="#231F20">
    <path d="M8.6 70.785l16.19-16.288-.004.014c4.763-4.76 11.335-7.705 18.583-7.705v6.578c-.85 0-1.715.056-2.59.174-9.577 1.3-16.988 9.58-17.134 19.245-.165 11.01 8.745 20.024 19.72 20.024 10.877 0 19.725-8.85 19.725-19.724V55.637l15.06 15.148c1.272 1.28 1.272 3.348 0 4.63L61.958 91.7l.01-.028c-4.763 4.77-11.342 7.724-18.6 7.724-7.248 0-13.82-2.946-18.582-7.707l.005.01L8.6 75.413c-1.273-1.28-1.273-3.348 0-4.63"/>
    <path d="M87.575 4.65L56.028 20.37 49 23.623V61.73c-2-1.124-3.707-1.78-6.103-1.78-7.424 0-13.194 6.186-12.902 13.67.263 6.764 5.16 12.412 11.92 12.672C49.403 86.582 55 80.34 55 73.335V36.71l32-15.72v15.35c-2-1.124-3.545-1.778-5.94-1.778-7.423 0-13.11 6.185-12.82 13.67.265 6.763 5.438 12.407 12.2 12.668C87.924 61.19 94 54.874 94 47.87V1.396L87.575 4.65zm-37.79 68.557c0 3.502-2.79 6.52-6.416 6.52-3.628 0-6.577-2.975-6.577-6.6 0-3.626 2.792-6.59 6.417-6.59 3.623 0 6.58 3.038 6.58 6.656l-.005.014z"/>
  </g>
</svg>
