<svg xmlns="http://www.w3.org/2000/svg" width="498" height="111" viewBox="0 0 498 111">
  <path fill="#231F20" d="M113.632 3.816c4.06-.914 9.44-1.32 15.126-1.32 6.396 0 12.588.813 17.36 4.873 3.653 3.04 5.177 7.61 5.177 12.38 0 6.09-3.147 11.98-9.848 14.92v.4c7.92 2.23 12.08 8.73 12.08 16.34 0 5.58-1.827 10.05-5.075 13.4-4.06 4.46-10.964 6.9-22.436 6.9-5.075 0-9.34-.31-12.385-.82V3.81zm13.3 27.105h2.842c4.77 0 8.426-4.06 8.426-9.64 0-4.97-2.335-8.83-7.716-8.83-1.522 0-2.74.1-3.553.41v18.07zm0 30.36c.812.21 1.826.21 2.943.21 5.48 0 9.847-3.35 9.847-10.25s-4.67-10.45-9.948-10.45h-2.843v20.5zm46.59-5.68l-3.045 15.64h-12.893L172.406 2.8h15.938l13.3 68.424H188.75l-2.944-15.635h-12.283zm11.068-10.36l-2.238-14.31c-.71-4.16-1.624-11.06-2.233-15.53h-.31c-.71 4.57-1.73 11.58-2.44 15.53l-2.54 14.32h9.74zM209.15 2.8h13.298v57.154h17.463v11.27h-30.76V2.8zm50.25 52.79l-3.046 15.634H243.46L258.284 2.8h15.938l13.3 68.424H274.63l-2.945-15.635H259.4zm11.066-10.355l-2.233-14.314c-.71-4.16-1.624-11.06-2.233-15.53h-.305c-.71 4.57-1.726 11.58-2.437 15.53l-2.538 14.32h9.746zm32.787-35.43h-12.486V2.8h32.79v7.006H311.07v61.418h-7.816V9.806zm60.603 26.7c0 25.684-8.73 35.53-19.796 35.53-11.37 0-18.984-12.08-18.984-35.124 0-22.63 8.223-34.92 20.1-34.92 11.676 0 18.68 12.69 18.68 34.52zm-30.658.508c0 14.11 2.74 28.12 11.47 28.12s11.066-14.924 11.066-28.323c0-12.792-2.335-27.917-11.167-27.917-8.63 0-11.37 14.21-11.37 28.12zm40.097 34.21V2.8h7.31l12.588 32.08c2.843 7.412 6.396 16.446 8.73 23.858h.203c-.61-10.762-.914-19.594-.914-31.47V2.8h7.005v68.424h-7.31L387.913 38.33c-2.842-6.9-5.786-14.718-8.223-23.246h-.203c.61 9.136.813 17.867.813 32.485v23.65h-7.005zm72.075-32.486h-17.156V64.42h19.49v6.804h-27.308V2.8h26.09v6.803h-18.272V32.14h17.156v6.597zm-331.64 62.19l-1.75 8.022h-2.978l6.116-26.78h3.377l5.957 26.77h-3.02l-1.746-8.02h-5.957zm5.52-2.463l-1.39-6.793c-.398-1.9-.756-4.13-1.073-6.11h-.12c-.317 2.03-.714 4.33-1.11 6.12l-1.392 6.8h5.084zm8.58 10.486V82.18h2.86l4.925 12.55c1.112 2.9 2.502 6.436 3.416 9.334h.08c-.23-4.21-.35-7.666-.35-12.313v-9.57h2.74v26.77h-2.86l-5.08-12.86c-1.11-2.7-2.26-5.76-3.21-9.09h-.08c.24 3.58.32 6.99.32 12.71v9.26h-2.74zm31.578-.676c-1.112.477-3.06.913-4.727.913-2.34 0-4.52-.636-6.31-2.58-1.94-2.067-3.25-5.76-3.21-10.687.04-10.445 5.36-13.98 10.09-13.98 1.67 0 2.98.318 3.78.755l-.67 2.62c-.71-.356-1.63-.635-3.06-.635-3.33 0-6.95 2.662-6.95 10.963 0 8.262 3.14 10.922 6.36 10.922 1.03 0 1.63-.158 1.87-.316v-8.74h-3.46v-2.54h6.315v13.3zM166.6 82.18v17.952c0 4.806 1.627 6.434 3.613 6.434 2.264 0 3.733-1.747 3.733-6.434V82.18h3.06v17.476c0 6.95-2.86 9.61-6.833 9.61-4.012 0-6.633-2.62-6.633-9.253V82.18h3.06zm15.132 0h3.058v24.188h7.507v2.58h-10.564V82.18zm17 18.747l-1.748 8.022h-2.98l6.117-26.78h3.38l5.96 26.77h-3.02l-1.74-8.02h-5.95zm5.52-2.463l-1.39-6.793c-.396-1.9-.754-4.13-1.07-6.11h-.12c-.318 2.03-.715 4.33-1.112 6.12l-1.39 6.8h5.083zm8.582-15.888c1.27-.357 2.86-.517 4.37-.517 2.66 0 4.645.55 6.036 1.9 1.31 1.35 1.866 3.14 1.866 5.24 0 3.41-1.59 5.64-4.29 6.91v.08c1.986.59 3.02 2.5 3.575 6 .64 3.65 1.16 5.92 1.55 6.75h-3.09c-.39-.8-.91-3.34-1.43-6.6-.59-3.7-1.75-5.05-4.37-5.05h-1.19v11.63h-3.02V82.57zm3.02 12.353h1.31c2.9 0 4.846-2.15 4.846-5.37 0-3.1-1.27-5.01-4.528-5.05-.635 0-1.23.04-1.628.16v10.25zm22.48-12.75v11.47h7.508V82.17h3.06v26.772h-3.06v-12.51h-7.507v12.51h-3.06V82.18h3.06zm18.552 18.74l-1.748 8.02h-2.98l6.118-26.78h3.376l5.957 26.77h-3.02l-1.75-8.02h-5.96zm5.52-2.47l-1.39-6.8c-.397-1.91-.755-4.13-1.072-6.12h-.12c-.317 2.02-.714 4.33-1.11 6.11l-1.392 6.793h5.084zm19.464 10.01c-.834.43-2.185.71-3.853.71-5.203 0-8.977-4.21-8.977-13.31 0-10.57 5.243-13.94 9.493-13.94 1.59 0 2.78.31 3.297.67l-.676 2.58c-.636-.28-1.27-.56-2.66-.56-2.86 0-6.236 2.78-6.236 10.96s3.02 10.886 6.315 10.886c1.15 0 2.145-.28 2.78-.557l.517 2.545zm3.14-26.3h3.018v12.71h.08c.635-1.12 1.15-2.19 1.668-3.22l5.005-9.49h3.38l-6.55 11.44 6.71 15.33h-3.29l-5.48-12.91-1.51 2.58v10.32h-3.02V82.18zm19.502 18.74l-1.748 8.02h-2.98l6.118-26.77h3.376l5.957 26.77h-3.02l-1.746-8.02h-5.96zm5.52-2.47l-1.39-6.794c-.397-1.905-.755-4.13-1.072-6.114h-.12c-.317 2.025-.714 4.33-1.11 6.115l-1.392 6.79h5.084zm9.296-13.545h-4.886v-2.74h12.83v2.74h-4.887v24.03h-3.058v-24zm13.982-2.74v11.48h7.507V82.17h3.06v26.772h-3.06v-12.51h-7.507v12.51h-3.058V82.18h3.058zm29.393 13.182c0 10.05-3.416 13.9-7.745 13.9-4.448 0-7.428-4.725-7.428-13.74 0-8.857 3.218-13.66 7.865-13.66 4.568 0 7.308 4.964 7.308 13.503zm-11.995.2c0 5.52 1.072 11 4.488 11s4.33-5.837 4.33-11.08c0-5.005-.914-10.92-4.37-10.92-3.376 0-4.448 5.56-4.448 11zm15.69 13.386V82.18h2.86l4.925 12.55c1.11 2.9 2.502 6.436 3.415 9.334h.08c-.238-4.21-.357-7.666-.357-12.313v-9.57h2.74v26.77h-2.85l-5.08-12.86c-1.11-2.7-2.26-5.76-3.22-9.09h-.08c.24 3.58.32 6.99.32 12.71v9.26h-2.74zm23.595 0v-1.985l2.145-2.94c3.1-4.29 6.713-9.136 6.713-13.98 0-2.86-1.23-4.608-3.65-4.608-1.86 0-3.1.99-3.73 1.43l-.75-2.307c.88-.754 2.7-1.75 5.05-1.75 4.29 0 6.12 3.18 6.12 7.07 0 4.85-3.13 9.536-6.35 13.9l-1.7 2.388v.08h8.58v2.7H390zM418.195 96c0 9.414-2.98 13.267-6.713 13.267-4.012 0-6.435-4.766-6.435-13.186 0-8.69 2.582-13.26 6.792-13.26 4.17 0 6.35 4.97 6.35 13.19zm-10.09.04c-.04 6.236 1.033 10.605 3.575 10.605 2.463 0 3.456-4.408 3.456-10.605 0-6.037-.993-10.604-3.456-10.604-2.5 0-3.574 4.37-3.574 10.604zm18.63-9.81h-.08l-4.29 2.462-.595-2.383 5.44-3.18h2.504v25.81h-2.98V86.22zm20.495-.834c-.515 0-1.11.08-1.826.238-4.29 1.073-5.997 5.402-6.633 9.334h.12c1-1.47 2.43-2.462 4.37-2.462 3.26 0 5.56 3.02 5.56 7.943 0 4.88-2.22 8.81-6.35 8.81-4.53 0-6.79-4.57-6.79-10.53 0-5.01 1.31-8.86 3.34-11.64 1.55-2.15 4.02-3.58 6.28-4.05.8-.12 1.47-.2 1.95-.24v2.58zm-1.468 15.292c0-3.892-1.39-5.84-3.455-5.84-1.31 0-2.62.835-3.376 2.782-.07.238-.19.794-.19 1.55.04 5.28 1.63 7.704 3.77 7.704 1.71 0 3.26-1.708 3.26-6.196zm50.915 1.677l-34.33 6.57v-4.023l16.554-2.903c4.33-.77 8.15-1.28 12.38-1.74v-.16c-4.33-.46-8.04-1.23-12.43-2.09l-16.5-3.16v-3.31l16.15-3.21c4.08-.77 8-1.53 12.79-1.99v-.15c-4.94-.56-8.66-1.18-12.58-1.79l-16.35-2.85V77.7l34.33 6.67v3.87l-16.7 3.26c-3.61.713-7.48 1.324-11.25 1.783v.1c3.87.458 7.59 1.07 11.41 1.885l16.56 3.36v3.72zM486.387 71.6l10.29 2.24v3.82l-34.33-7.845v-4.33l34.33-7.64v3.872l-10.29 2.24V71.6zm-3.157-7.08l-8.71 1.782c-2.444.51-5.297.967-7.844 1.375v.152c2.598.4 5.552.91 7.844 1.42l8.71 1.78v-6.52zm13.447-14.112l-34.33 7.844v-4.228l16.096-3.31c3.87-.815 8.812-1.835 13.192-2.446v-.152c-4.432-.51-9.22-1.477-13.294-2.292l-15.99-3.26v-4.177l34.33 7.996v4.025zm-16.3-28.372v8.608h12.888v-9.78h3.412v13.702h-34.33v-13.09h3.413v9.168h11.308v-8.608h3.31zm11.767-4.736c.764-1.122 1.375-3.21 1.375-4.89 0-3.617-2.35-5.756-5.81-5.756-3.16 0-5.1 1.833-7.13 4.533-1.89 2.75-5.1 6.47-9.53 6.47-5.2 0-9.02-3.617-9.02-9.067 0-2.14.66-3.973 1.27-4.788l3.36.917c-.61.86-1.17 2.29-1.17 4.07 0 3.41 2.54 4.99 4.89 4.99 3.41 0 4.73-1.78 7.08-5.04 2.9-4.13 6.06-5.96 9.88-5.96 5.91 0 9.62 4.12 9.62 9.62 0 2.34-.76 4.78-1.48 5.75l-3.36-.87z"/>
  <g fill="#231F20">
    <path d="M2.813 78.094l18.025-18.132-.006.015c5.302-5.3 12.618-8.58 20.688-8.58h.002v7.32c-.946 0-1.908.062-2.882.193-10.66 1.448-18.91 10.666-19.074 21.424-.184 12.258 9.735 22.292 21.954 22.292 12.107 0 21.956-9.85 21.956-21.957V61.23l16.762 16.863c1.417 1.426 1.417 3.727 0 5.153l-18.024 18.13.01-.032c-5.302 5.31-12.626 8.6-20.704 8.6-8.07 0-15.386-3.28-20.688-8.58l.006.013-18.025-18.13c-1.417-1.427-1.417-3.727 0-5.153"/>
    <path d="M90.79 4.47l-35.043 17.5L48 25.592v42.42c-2-1.25-4.232-1.98-6.9-1.98-8.264 0-14.74 6.885-14.416 15.218.293 7.527 5.983 13.815 13.51 14.105C48.53 95.678 55 88.73 55 80.932v-40.77l35-17.5V39.75c-2-1.252-3.9-1.98-6.567-1.98-8.264 0-14.574 6.885-14.25 15.218.294 7.528 6.124 13.813 13.65 14.103C91.167 67.42 98 60.38 98 52.59V.85l-7.21 3.62zM48.662 80.79c0 3.898-3.108 7.257-7.145 7.257-4.035 0-7.318-3.31-7.318-7.347s3.1-7.335 7.14-7.335c4.03 0 7.32 3.38 7.32 7.41l-.01.015z"/>
  </g>
</svg>
