<svg xmlns="http://www.w3.org/2000/svg" width="70" height="70" viewBox="0 0 70 70">
  <path d="M63.722 34.535c-1.21-1.21-2.96-1.556-4.482-1.047l5.674-18.006c.14-.444.02-.93-.31-1.258l-8.83-8.83c-.327-.328-.81-.45-1.25-.31l-27.73 8.522c-4.07 1.062-7.907 3.19-11.076 6.358-.63.63-1.223 1.295-1.78 1.986-.022.025-.043.05-.063.078-2.584 3.236-4.34 7.085-5.036 11.1L5.4 36.313c-.255.236-.4.57-.4.918.012 7.41 2.903 14.37 8.14 19.61 5.096 5.1 12.386 8.14 19.5 8.14.33 0 .645-.13.878-.36l3.437-3.4c5.025-.83 9.584-3.18 13.205-6.8 2.525-2.52 4.473-5.59 5.682-8.93l1.856.43c.094.03.19.04.283.04.33 0 .65-.12.89-.36l4.86-4.85c1.71-1.7 1.71-4.48 0-6.18z"/>
  <path d="M57.308 27h-6.923C46.137 27 43 23.864 43 19.615v-6.922C43 8.443 39.248 5 35 5s-8 3.444-8 7.692v6.922C27 23.864 23.864 27 19.615 27h-6.923C8.444 27 5 30.752 5 35s3.444 8 7.692 8h6.923C23.865 43 27 46.137 27 50.385v6.923C27 61.556 30.752 65 35 65s8-3.444 8-7.692v-6.923C43 46.137 46.137 43 50.385 43h6.923C61.556 43 65 39.248 65 35s-3.444-8-7.692-8z"/>
  <path d="M60.464 31h-16.39C41.566 31 39 28.433 39 25.927V9.537C39 7.03 37.006 5 34.5 5S30 7.03 30 9.537v16.39C30 28.433 28.433 31 25.927 31H9.537C7.03 31 5 32.994 5 35.5S7.03 40 9.537 40h16.39C28.433 40 30 41.567 30 44.073v16.39C30 62.97 31.994 65 34.5 65s4.5-2.03 4.5-4.536v-16.39C39 41.566 41.567 40 44.073 40h16.39C62.97 40 65 38.006 65 35.5S62.97 31 60.464 31z"/>
  <path d="M64.33 30.867c-1.34-5.112-2.346-7.542-6.62-12.15-3.55-3.83-7.457-5.95-15-5.867-7.54.084-12.57 1.34-16.424 11.48-4.17 10.967-6.754 9.146-12.65 11C8.1 37.067 5 41.095 5 46.453c0 6.34 5.74 11.23 12.067 10.81 2.515-.167 7.03-.04 11.812-6.515s8.68-9.052 15.25-1.195c8.13 9.722 16.68 1.183 18.77-4.274 1.01-2.34 3.19-7.67 1.42-14.42z"/>
  <path d="M44.356 14.357C42.524 9.444 40.166 5 35 5s-7.485 4.25-9.356 9.357c-1.107 3.02-12.924 34.902-12.924 39.94C12.72 60.21 22.695 65 35 65c12.306 0 22.28-4.79 22.28-10.702 0-5.16-11.696-36.652-12.924-39.94z"/>
  <path d="M60.124 20.068s4.188-5.038 4.524-5.363c.488-.487.488-1.07 0-1.56-.25-.236-.574-.145-.9-.145h-6.013c-2.736-5-7.7-7.716-13.35-7.716-8.626 0-15.626 6.857-15.626 15.482 0 5.176-4.2 9.233-9.38 9.233H7.48c-1.377 0-2.5 1.15-2.5 2.53l.132.35C6.23 43.76 14 52.78 24 56.14v5.8c0 1.728 1.275 3.127 3 3.127s3-1.4 3-3.13v-4.49c1 .072 1.662.11 2.5.11.836 0 1.5-.04 2.5-.114v4.487c0 1.727 1.275 3.126 3 3.126 1.726 0 3-1.4 3-3.127v-5.8c11-3.65 19-13.95 19-26.08V28h3.748c.326 0 .65-.34.9-.578.488-.487.488-1.396 0-1.883-.338-.33-4.524-5.48-4.524-5.48z"/>
  <path d="M56.33 33.762c.092-.522.15-1.06.15-1.607 0-5.12-4.152-9.27-9.272-9.27-1.114 0-2.184.206-3.177.568-3.02-4.68-8.26-7.787-14.24-7.787-9.36 0-16.95 7.592-16.95 16.957 0 .44.03.87.07 1.303C8.36 35.063 5 38.916 5 43.8 5 49.563 9.672 54 15.435 54h39.13C60.328 54 65 49.563 65 43.8c0-5.158-3.75-9.198-8.67-10.038z"/>
  <path d="M62.148 28.93c-2.77-2.197-4.183-5.606-3.778-9.12.265-2.298-.52-4.555-2.157-6.19-1.636-1.635-3.893-2.42-6.19-2.156-3.515.403-6.923-1.008-9.12-3.778-1.44-1.813-3.59-2.853-5.903-2.853s-4.465 1.04-5.902 2.852c-2.198 2.77-5.606 4.182-9.12 3.778-2.3-.266-4.555.52-6.19 2.157-1.637 1.635-2.423 3.892-2.158 6.19.404 3.513-1.008 6.922-3.778 9.12C6.04 30.37 5 32.52 5 34.834c0 2.313 1.04 4.465 2.85 5.903 2.772 2.198 4.184 5.607 3.78 9.12-.266 2.3.52 4.555 2.156 6.19 1.637 1.636 3.895 2.422 6.19 2.157 3.513-.404 6.923 1.008 9.12 3.777 1.44 1.82 3.59 2.86 5.903 2.86s4.46-1.04 5.9-2.85c2.2-2.77 5.6-4.18 9.12-3.77 2.3.27 4.55-.52 6.19-2.15s2.42-3.89 2.15-6.19c-.41-3.51 1.01-6.92 3.78-9.12 1.82-1.45 2.86-3.6 2.86-5.91s-1.04-4.46-2.86-5.9z"/>
  <path d="M65 27.21c0 7.376-4.062 13.396-12.417 18.406-10.542 6.32-15.72 13.93-15.772 14.006-.4.604-1.08.966-1.81.966s-1.4-.36-1.81-.963c-.08-.117-5.31-7.74-15.77-14.01C9.06 40.605 5 34.585 5 27.21c0-8.79 5.73-18.132 16.346-18.132 7.112 0 11.423 3.148 13.654 5.508 2.23-2.36 6.542-5.508 13.654-5.508C59.27 9.078 65 18.42 65 27.21z"/>
  <path d="M64.99 25.53c-.008-.088-.004-.17-.017-.252-.03-.19-.09-.378-.164-.56-.02-.038-.02-.078-.04-.118 0-.002-.01-.006-.01-.01 0-.003 0-.005-.01-.008l-6.64-14.09c-.02-.03-.05-.06-.06-.093-.03-.04-.03-.09-.06-.13-.05-.09-.12-.15-.18-.23-.06-.08-.12-.17-.18-.23-.1-.11-.22-.19-.33-.28-.08-.06-.14-.12-.22-.17-.14-.08-.28-.14-.43-.2-.08-.03-.15-.06-.23-.08-.23-.07-.47-.09-.71-.09h-39.1c-.24 0-.46.02-.68.08-.08.02-.15.05-.22.08-.13.05-.27.09-.4.16-.08.04-.15.1-.22.15-.11.07-.22.15-.32.24-.07.06-.12.14-.18.22-.07.08-.16.16-.21.25l-9 14.1c-.04.05-.05.12-.08.17-.03.04-.07.08-.09.13-.03.05-.03.1-.05.16-.05.12-.09.25-.12.39-.02.1-.04.21-.05.31-.02.13-.02.26-.01.39l.03.32c.023.13.064.25.105.377.04.102.07.21.12.31.02.034.026.074.04.11.05.09.12.156.177.235.044.07.072.14.125.2l27.253 32.2c.47.554 1.177.947 1.88.93.01 0 .087-.013.093-.013.04.003.78.076 1.56-.5.173-.13.345-.25.49-.424L64.37 27.41c.04-.043.06-.09.09-.133.05-.055.1-.1.14-.16.04-.06.06-.13.09-.197.05-.082.09-.17.13-.26.05-.132.09-.27.12-.404.02-.096.05-.18.05-.276.02-.15.02-.3.01-.45z"/>
  <path d="M62.076 42.746c-2.543 2.904-6.53 4.377-11.85 4.377-9.648 0-13.604-3.183-15.227-5.823-1.63 2.64-5.58 5.823-15.23 5.823-5.32 0-9.31-1.473-11.85-4.377-3.55-4.05-2.89-9.34-2.86-9.563.08-.595.61-1.02 1.21-.974.6.05 1.05.56 1.03 1.16-.01.41.16 2.56 3.74 2.64h.03c1.6 0 3.3-2.69 4.94-5.29 2.47-3.91 5.27-8.34 9.89-8.34 5.09 0 7.77 2.29 9.06 4.04 1.292-1.75 3.97-4.04 9.07-4.04 4.62 0 7.42 4.42 9.89 8.33 1.65 2.6 3.35 5.29 4.95 5.29h.035c3.58-.09 3.75-2.23 3.747-2.66-.02-.6.436-1.11 1.033-1.16.595-.05 1.13.38 1.21.98.03.22.69 5.51-2.856 9.56z"/>
  <path d="M64.696 27.498c-.73-2.244-2.67-3.88-5.004-4.218L46.47 21.358l-5.912-11.98C39.514 7.26 37.358 5.92 35 5.92c-2.36 0-4.514 1.34-5.558 3.455l-5.912 11.98-13.223 1.923c-2.334.34-4.274 1.975-5.003 4.218-.73 2.244-.12 4.707 1.568 6.354l9.568 9.326-2.26 13.17c-.4 2.324.557 4.674 2.466 6.06s4.44 1.57 6.527.473L35 56.66l11.826 6.218c.907.48 1.897.713 2.884.713 1.285 0 2.564-.4 3.644-1.18 1.91-1.39 2.865-3.74 2.466-6.06l-2.26-13.17 9.568-9.32c1.688-1.64 2.297-4.11 1.568-6.35z"/>
  <path d="M63.504 48.508c.545-.665.873-1.516.873-2.443 0-2.132-1.728-3.86-3.86-3.86-.394 0-.774.062-1.134.172-.857-1.896-2.706-3.248-4.887-3.393-.123-1.22-.49-2.37-1.052-3.4.227-.676.352-1.4.352-2.154 0-1.22-.324-2.366-.89-3.356 2.59-2.052 4.25-5.22 4.25-8.78 0-.47-.032-.934-.088-1.39 2.054-.515 3.574-2.373 3.574-4.586 0-2.613-2.118-4.73-4.73-4.73-1.39 0-2.638.6-3.503 1.552-1.83-1.29-4.06-2.05-6.46-2.05-5.39 0-9.88 3.8-10.96 8.864-.72-.335-1.52-.523-2.37-.523-1.34 0-2.58.48-3.54 1.26-1.4-2.74-4.25-4.62-7.54-4.62-4.68 0-8.47 3.79-8.47 8.47 0 3.35 1.94 6.24 4.76 7.62-.26.65-.41 1.36-.41 2.1 0 .73.14 1.43.39 2.07-1.25.75-2.14 2.05-2.34 3.56-.18-.01-.36-.02-.55-.02-3.78 0-6.85 3.07-6.85 6.85 0 1.66.59 3.18 1.57 4.36H9.5C7.033 50.05 5 52.09 5 54.59c0 2.51 2.034 4.545 4.543 4.545 1.368 0 1.26-.187 3.454-.7 2.24.747 2.567 1.12 4.2.95 2.338-.246 4.376-1.387 5.306-3.385.18.014.362.022.545.022 3.987 0 6.146-.996 8.294-4.776.112-.198 2.754-.327 5.04-1.26 2.147-.877 2.522-1.262 4.162-2.554 1.426.943 3.135 1.494 4.973 1.494 1.375 0 2.678-.31 3.844-.858 1.05 1.497 2.79 2.478 4.75 2.478 1.52 0 2.89-.582 3.93-1.534.68.568 1.54.91 2.49.91.16 0 .31-.01.46-.028-.05.187-.08.385-.08.59 0 1.135.92 2.054 2.06 2.054s2.05-.92 2.05-2.054c0-.94-.63-1.732-1.49-1.976z"/>
</svg>
