<svg xmlns="http://www.w3.org/2000/svg" width="600" height="600" viewBox="0 0 600 600">
  <circle cx="300" cy="300" r="300" fill="none" stroke="#231F20" stroke-width=".25" stroke-miterlimit="10"/>
  <circle cx="300" cy="300" r="200" fill="none" stroke="#231F20" stroke-width=".25" stroke-miterlimit="10"/>
  <path d="M447.672 307.447c-6.646-6.646-16.254-8.54-24.604-5.75l31.146-98.85c.767-2.435.113-5.097-1.696-6.905l-48.48-48.473c-1.793-1.8-4.436-2.47-6.863-1.71l-152.23 46.79c-22.33 5.83-43.404 17.5-60.8 34.9-3.46 3.46-6.71 7.1-9.765 10.9-.125.14-.242.28-.353.43-14.187 17.76-23.82 38.89-27.644 60.93l-18.876 17.5c-1.403 1.29-2.202 3.12-2.196 5.04.07 40.65 15.94 78.87 44.69 107.61 27.98 27.98 68 44.68 107.05 44.68 1.81 0 3.55-.71 4.83-1.98l18.87-18.69c27.59-4.58 52.62-17.47 72.5-37.34 13.86-13.87 24.56-30.72 31.19-49.03l10.2 2.37c.52.12 1.04.18 1.56.18 1.8 0 3.55-.71 4.85-2.02l26.66-26.66c9.36-9.36 9.36-24.58 0-33.95z"/>
  <path d="M445 250.5h-45c-27.614 0-50.25-22.636-50.25-50.25l-.25-.25v-45c0-27.614-22.386-50-50-50s-50 22.386-50 50v45.5h.25c0 27-22.26 50-49.875 50H200h-45c-27.614 0-50 22.386-50 50s22.386 50 50 50h45c27.614 0 49.5 21.886 49.5 49.5v45c0 27.614 22.386 50 50 50s50-22.386 50-50v-45c0-27.614 22.886-49.5 50.5-49.5h45c27.614 0 50-22.386 50-50s-22.386-50-50-50z"/>
  <path d="M465.513 271.5H358.975c-16.285 0-30.475-14.19-30.475-30.475V134.487C328.5 118.202 315.285 105 299 105s-29.5 13.202-29.5 29.487v106.538c0 16.285-12.19 30.475-28.475 30.475H134.487C118.202 271.5 105 284.715 105 301s13.202 29.5 29.487 29.5h106.538c16.285 0 28.475 12.19 28.475 28.475v106.538C269.5 481.798 282.715 495 299 495s29.5-13.202 29.5-29.487V358.975c0-16.285 14.19-28.475 30.475-28.475h106.538C481.798 330.5 495 317.285 495 301s-13.202-29.5-29.487-29.5z"/>
  <path d="M479 273c-8-30.5-14-45-39.5-72.5-21.177-22.837-44.5-35.5-89.5-35s-75 8-98 68.5c-24.875 65.433-40.296 54.57-75.48 65.624C143.5 310 125 334.03 125 366c0 37.83 34.252 67.017 72 64.5 15-1 41.946-.246 70.473-38.873s51.832-54 91.027-7.127c48.5 58 99.548 7.06 112-25.5 6.003-13.966 19.055-45.762 8.5-86z"/>
  <path d="M340 145.5c-7.833-21-17.91-40-40-40-22.092 0-32 18.167-40 40-4.73 12.908-55.25 149.207-55.25 170.75 0 25.268 42.645 45.75 95.25 45.75s95.25-20.482 95.25-45.75c0-22.057-50.005-156.687-55.25-170.75z"/>
  <path d="M435.05 214.562s16.905-20.34 18.266-21.65c1.97-1.97 1.97-5.09 0-7.058-1.007-.958-2.317-1.354-3.633-1.354h-24.277c-11.046-18-31.09-30.387-53.896-30.387-34.818 0-63.082 28.488-63.082 63.308 0 20.9-16.952 38.08-37.847 38.08h-48.03c-5.56 0-10.09 4.26-10.09 9.81l.68 1.23c4.49 43.9 34.37 80.1 76.37 93.67v23.41c0 6.97 5.04 12.62 12 12.62 6.97 0 12-5.64 12-12.62V365.5c3 .303 7.12.454 10.5.454s6.5-.15 10.5-.455v18.11c0 6.97 5.54 12.62 12.5 12.62 6.97 0 12.5-5.65 12.5-12.62V360.2c43-14.742 75-56.32 75-105.266V244.5h15.19c1.32 0 2.63-.336 3.64-1.293 1.97-1.968 1.97-5.113 0-7.083-1.36-1.31-18.26-21.562-18.26-21.562z"/>
  <path d="M440.99 347.09c2.92-3.565 4.677-8.122 4.677-13.09 0-11.414-9.253-20.667-20.667-20.667-2.116 0-4.157.32-6.08.912-4.593-10.156-14.493-17.392-26.168-18.167-.662-6.54-2.63-12.696-5.635-18.202 1.215-3.627 1.883-7.505 1.883-11.542 0-6.54-1.736-12.67-4.762-17.973C398.1 237.37 407 220.4 407 201.34c0-2.52-.174-4.995-.475-7.432 10.998-2.762 19.142-12.712 19.142-24.567 0-13.99-11.342-25.33-25.333-25.33-7.438 0-14.127 3.21-18.762 8.31-9.774-6.9-21.694-10.97-34.572-10.97-28.837 0-52.914 20.35-58.68 47.47-3.845-1.79-8.13-2.8-12.653-2.8-7.188 0-13.783 2.53-18.95 6.75-7.5-14.68-22.762-24.74-40.384-24.74C191.296 168 171 188.3 171 213.34c0 17.93 10.41 33.42 25.512 40.774-1.4 3.47-2.178 7.26-2.178 11.23 0 3.92.758 7.65 2.123 11.08-6.702 4.03-11.458 10.958-12.546 19.048-.96-.08-1.93-.13-2.91-.13-20.25 0-36.66 16.42-36.66 36.67 0 8.88 3.15 17.01 8.4 23.36-.24-.01-.48-.02-.73-.02-13.44 0-24.33 10.89-24.33 24.33C127.67 393.11 138.56 404 152 404c7.325 0 6.75-1 18.5-3.75 12 4 13.75 6 22.5 5.084 12.515-1.31 23.427-7.42 28.412-18.12.965.07 1.938.12 2.92.12 21.356 0 32.918-5.334 44.418-25.584.602-1.06 14.75-1.75 27-6.75 11.494-4.69 13.5-6.75 22.282-13.672 7.638 5.055 16.79 8.005 26.635 8.005 7.362 0 14.336-1.653 20.58-4.598 5.605 8.017 14.897 13.265 25.42 13.265 8.108 0 15.486-3.116 21.01-8.213 3.6 3.04 8.244 4.88 13.323 4.88.836 0 1.656-.064 2.466-.16-.3 1-.466 2.06-.466 3.16 0 6.075 4.925 11 11 11s11-4.925 11-11c0-5.037-3.39-9.273-8.01-10.578z"/>
  <path d="M441.604 252.772c.472-2.688.767-5.455.767-8.274 0-26.36-21.36-47.72-47.72-47.72-5.73 0-11.24 1.06-16.35 2.93-15.54-24.09-42.55-40.083-73.34-40.083-48.21 0-87.28 39.08-87.28 87.286 0 2.27.17 4.49.34 6.71-23.33 5.86-40.62 26.97-40.62 52.11 0 29.67 24.05 53.78 53.72 53.78h201.43c29.66 0 53.72-24.11 53.72-53.77 0-26.55-19.29-48.62-44.62-52.95z"/>
  <path d="M425.61 289.308c-14.982-11.89-22.622-30.33-20.434-49.335 1.43-12.43-2.823-24.635-11.67-33.48-8.85-8.847-21.05-13.1-33.48-11.667-19.01 2.184-37.445-5.45-49.335-20.433-7.77-9.803-19.41-15.425-31.92-15.425-12.51 0-24.15 5.622-31.92 15.424-11.89 14.982-30.32 22.618-49.33 20.435-12.43-1.436-24.63 2.82-33.48 11.667-8.84 8.845-13.1 21.05-11.67 33.483 2.19 19-5.45 37.442-20.43 49.334-9.8 7.78-15.42 19.42-15.42 31.93s5.62 24.15 15.42 31.93c14.99 11.89 22.63 30.33 20.44 49.34-1.43 12.43 2.82 24.64 11.67 33.48 8.85 8.85 21.06 13.1 33.48 11.67 19-2.18 37.45 5.45 49.34 20.44 7.78 9.8 19.41 15.43 31.93 15.43 12.51 0 24.15-5.62 31.93-15.42 11.89-14.98 30.33-22.62 49.33-20.44 12.44 1.43 24.64-2.82 33.48-11.67 8.85-8.84 13.11-21.05 11.67-33.48-2.19-19 5.45-37.44 20.44-49.33 9.8-7.77 15.42-19.41 15.42-31.92s-5.62-24.14-15.42-31.92z"/>
  <path d="M479.763 254.32c0 44.197-24.337 80.274-74.402 110.293-63.16 37.876-94.2 83.472-94.5 83.928-2.43 3.62-6.5 5.79-10.85 5.79s-8.41-2.16-10.84-5.77c-.47-.7-31.85-46.37-94.51-83.94-50.06-30.02-74.4-66.1-74.4-110.29 0-52.67 34.33-108.64 97.95-108.64 42.61 0 68.45 18.87 81.82 33.01 13.38-14.13 39.21-33 81.82-33 63.62 0 97.95 55.98 97.95 108.65z"/>
  <path d="M447.178 283.506c-.036-.498-.013-.963-.086-1.418-.166-1.07-.506-2.118-.918-3.127-.093-.21-.093-.44-.19-.66-.013-.01-.032-.03-.038-.05 0-.02-.013-.03-.023-.05l-37.14-78.85c-.085-.18-.245-.34-.343-.52-.13-.22-.173-.49-.314-.71-.283-.47-.67-.85-1.004-1.28-.338-.44-.646-.91-1.023-1.3-.56-.58-1.19-1.07-1.84-1.55-.41-.32-.79-.67-1.23-.93-.75-.45-1.57-.77-2.39-1.08-.41-.15-.81-.07-1.25-.19-1.28-.36-2.61-.25-3.99-.25H176.54c-1.297 0-2.556-.14-3.78.18-.43.11-.82.18-1.24.32-.75.28-1.523.45-2.227.86-.45.26-.82.57-1.238.85-.604.43-1.23.82-1.765 1.34-.377.37-.68.8-1.015 1.22-.396.47-.86.89-1.185 1.41l-50.435 78.86c-.188.31-.277.66-.447.98-.144.26-.385.48-.51.76-.133.3-.14.61-.265.89-.27.73-.486 1.45-.656 2.2-.126.6-.234 1.18-.295 1.76-.07.74-.064 1.48-.028 2.22.046.61.09 1.2.185 1.8.13.723.36 1.404.59 2.103.21.596.39 1.19.67 1.75.09.19.13.417.22.616.26.493.65.88.98 1.32.25.385.41.79.71 1.134l152.44 180.05c2.63 3.103 6.57 5.31 10.49 5.195.05 0 .1.102.13.102.21.013.42.095.65.095h.03c1.31 0 2.61-.33 3.85-.66.37-.115.7-.274 1.07-.415.92-.32 1.81-.77 2.66-1.274.28-.164.58-.34.86-.53 1-.693 1.95-1.5 2.76-2.465l154-180.05c.19-.23.31-.52.48-.763.25-.31.55-.57.76-.92.22-.35.33-.74.52-1.11.26-.48.5-.96.69-1.48.29-.75.48-1.51.66-2.27.11-.52.23-1.01.28-1.526.1-.85.06-1.68 0-2.524z"/>
  <path d="M461.836 354.748c-15.197 17.36-39.022 26.16-70.817 26.16-57.68 0-81.33-19.02-91.02-34.803-9.7 15.782-33.35 34.804-91.02 34.804-31.79 0-55.62-8.81-70.82-26.17-21.2-24.21-17.26-55.83-17.08-57.16.47-3.56 3.66-6.1 7.23-5.82 3.58.29 6.29 3.35 6.17 6.93-.02 2.48.98 15.31 22.38 15.81h.21c9.58-.01 19.74-16.08 29.57-31.63 14.76-23.35 31.49-49.81 59.14-49.81 30.47 0 46.45 13.72 54.19 24.15 7.75-10.43 23.73-24.15 54.2-24.15 27.65 0 44.38 26.46 59.14 49.8 9.83 15.54 19.99 31.62 29.57 31.62h.21c21.4-.5 22.4-13.33 22.38-15.9-.12-3.59 2.6-6.6 6.17-6.9 3.55-.29 6.76 2.3 7.23 5.86.17 1.33 4.11 32.95-17.08 57.16z"/>
  <path d="M479.4 239.134c-4.405-13.555-16.12-23.432-30.227-25.482l-79.878-11.607-35.718-72.378c-6.307-12.782-19.322-20.872-33.575-20.872-14.253 0-27.27 8.092-33.576 20.87l-35.722 72.38-79.88 11.607c-14.104 2.05-25.82 11.928-30.225 25.482-4.41 13.554-.74 28.433 9.47 38.382l57.8 56.342-13.65 79.555c-2.41 14.048 3.36 28.244 14.89 36.62 11.53 8.378 26.82 9.483 39.43 2.852L300 415.322l71.446 37.563c5.477 2.88 11.457 4.3 17.417 4.3 7.765 0 15.49-2.41 22.013-7.15 11.53-8.378 17.306-22.573 14.895-36.62l-13.64-79.557 57.8-56.343c10.2-9.95 13.88-24.828 9.47-38.38z"/>
</svg>
