<svg xmlns="http://www.w3.org/2000/svg" width="600" height="600" viewBox="0 0 600 600">
  <path fill="none" stroke="#231F20" stroke-miterlimit="10" d="M447.672 307.447c-6.646-6.646-16.254-8.54-24.604-5.75l31.146-98.85c.767-2.435.113-5.097-1.696-6.905l-48.48-48.473c-1.793-1.8-4.436-2.467-6.863-1.71l-152.23 46.79c-22.33 5.83-43.404 17.507-60.8 34.906-3.46 3.458-6.71 7.106-9.765 10.9-.125.14-.242.28-.353.428-14.187 17.765-23.82 38.892-27.644 60.93l-18.876 17.498c-1.403 1.297-2.202 3.122-2.196 5.04.068 40.652 15.938 78.868 44.683 107.614 27.98 27.98 68 44.68 107.05 44.68 1.81 0 3.543-.707 4.826-1.982l18.863-18.687c27.592-4.578 52.614-17.468 72.495-37.34 13.86-13.87 24.553-30.718 31.187-49.025l10.193 2.367c.516.127 1.038.186 1.554.186 1.8 0 3.548-.706 4.847-2.014l26.665-26.662c9.355-9.354 9.355-24.58 0-33.943z"/>
</svg>
