<svg xmlns="http://www.w3.org/2000/svg" width="600" height="600" viewBox="0 0 600 600">
  <path fill="none" stroke="#231F20" stroke-miterlimit="10" d="M230.653 269.46c30.607-27.677 18.21-87.267 87.236-100.402 88.29-16.804 122.62 31.272 141.132 59.873 17.514 27.06 33.33 74.277 11.438 129.58-20.49 51.754-60.02 60.647-84.45 48.565-26.98-13.34-28.623-31.445-53.023-46.13-23.75-14.29-48.453 7.943-58.57 19.233-9.203 10.264-20.84 38.057-54.028 47.4-25.95 7.305-62.16-.926-75.52-16.806-12.486-14.834-23.72-26.813-14.736-64.21 10.81-45 72.83-52.06 100.512-77.096z"/>
</svg>
