<svg xmlns="http://www.w3.org/2000/svg" width="70" height="70" viewBox="0 0 70 70">
  <circle cx="33.453" cy="41.383" r="5.225"/>
  <path d="M63.68 37.9c-.105-.112-.268-.147-.406-.088l-3.31 1.387c-.59-7.17-4.037-13.52-9.175-17.96l1.87-2.827c1.1-1.662.644-3.9-1.016-5-1.665-1.107-3.9-.65-5 1.01l-2.44 2.88C41.822 16.18 39 15.403 36 15.033V12h1.51c2.656 0 4.81-1.844 4.81-4.5 0-2.657-2.154-4.5-4.81-4.5h-8.115c-2.657 0-4.81 1.843-4.81 4.5 0 2.656 2.153 4.5 4.81 4.5H30v3.036C16 16.808 6.913 27.932 6.913 41.383 6.913 56.06 18.815 68 33.493 68c9.257 0 17.397-4.756 22.168-11.946-1.16-.208-2.18-.917-2.7-1.997l-2.08-4.184c-3.155 6.45-9.77 10.91-17.42 10.91-10.7 0-19.403-8.702-19.403-19.4 0-10.7 8.702-19.405 19.402-19.406 9.97 0 18.196 7.563 19.272 17.25l-3.385-1.415c-.14-.06-.3-.024-.407.087-.104.11-.093.27-.026.404C51.434 43.414 51 43.034 56 52.58v.002c0 .143.182.232.342.232.158 0 .288-.09.358-.232 5.704-11.533 4.228-8.566 7.048-14.273.065-.14.033-.3-.068-.41z"/>
</svg>
