<svg xmlns="http://www.w3.org/2000/svg" viewBox="0 0 600 600" width="600" height="600">
  <g id="shape">
    <path id="display-shape" d="M435.05 214.562s16.905-20.34 18.266-21.65c1.97-1.97 1.97-5.09 0-7.058-1.007-.958-2.317-1.354-3.633-1.354h-24.277c-11.046-18-31.09-30.387-53.896-30.387-34.818 0-63.082 28.488-63.082 63.308 0 20.9-16.952 38.08-37.847 38.08h-48.03c-5.56 0-10.09 4.26-10.09 9.81l.68 1.23c4.49 43.9 34.37 80.1 76.37 93.67v23.41c0 6.97 5.04 12.62 12 12.62 6.97 0 12-5.64 12-12.62V365.5c3 .303 7.12.454 10.5.454s6.5-.15 10.5-.455v18.11c0 6.97 5.54 12.62 12.5 12.62 6.97 0 12.5-5.65 12.5-12.62V360.2c43-14.742 75-56.32 75-105.266V244.5h15.19c1.32 0 2.63-.336 3.64-1.293 1.97-1.968 1.97-5.113 0-7.083-1.36-1.31-18.26-21.562-18.26-21.562z"/>
    <path d="M0,300a300,300 0 1,0 600,0a300,300 0 1,0 -600,0"/>
  </g>
  <g id="octagon">
    <path id="top" d="M298.5 100v160"/>
    <path id="top-right" d="M328.23 272.168L441.37 159.03"/>
    <path id="right" d="M340 301.5h160"/>
    <path id="right-bottom" d="M328.23 328.632L441.37 441.77"/>
    <path id="bottom" d="M298.5 340v160"/>
    <path id="bottom-left" d="M158.632 441.77l113.136-113.14"/>
    <path id="left" d="M100 301.5h160"/>
    <path id="left-top" d="M158.632 159.032L271.77 272.168"/>
  </g>
</svg>
