<svg xmlns="http://www.w3.org/2000/svg" viewBox="0 0 600 600" width="600" height="600">
  <g id="shape">
    <path id="display-shape" d="M441.604 252.772c.472-2.688.767-5.455.767-8.274 0-26.36-21.36-47.72-47.72-47.72-5.73 0-11.24 1.06-16.35 2.93-15.54-24.09-42.55-40.083-73.34-40.083-48.21 0-87.28 39.08-87.28 87.286 0 2.27.17 4.49.34 6.71-23.33 5.86-40.62 26.97-40.62 52.11 0 29.67 24.05 53.78 53.72 53.78h201.43c29.66 0 53.72-24.11 53.72-53.77 0-26.55-19.29-48.62-44.62-52.95z"/>
    <path d="M0,300a300,300 0 1,0 600,0a300,300 0 1,0 -600,0"/>
  </g>
  <g id="octagon">
    <path id="top" d="M298.5 100v160"/>
    <path id="top-right" d="M328.23 272.168L441.37 159.03"/>
    <path id="right" d="M340 301.5h160"/>
    <path id="right-bottom" d="M328.23 328.632L441.37 441.77"/>
    <path id="bottom" d="M298.5 340v160"/>
    <path id="bottom-left" d="M158.632 441.77l113.136-113.14"/>
    <path id="left" d="M100 301.5h160"/>
    <path id="left-top" d="M158.632 159.032L271.77 272.168"/>
  </g>
</svg>
