<svg xmlns="http://www.w3.org/2000/svg" viewBox="0 0 600 600" width="600" height="600">
  <g id="shape">
    <path id="display-shape" d="M438.99 350.09c2.92-3.565 4.677-8.122 4.677-13.09 0-11.414-9.253-20.667-20.667-20.667-2.116 0-4.157.32-6.08.912-4.593-10.156-14.493-17.392-26.168-18.167-.662-6.54-2.63-12.696-5.635-18.202 1.215-3.627 1.883-7.505 1.883-11.542 0-6.54-1.736-12.67-4.762-17.973C396.1 240.37 405 223.398 405 204.335c0-2.52-.174-4.995-.475-7.432 10.998-2.762 19.142-12.712 19.142-24.567 0-13.99-11.342-25.333-25.333-25.333-7.438 0-14.127 3.206-18.762 8.31-9.774-6.905-21.694-10.976-34.572-10.976-28.837 0-52.914 20.347-58.68 47.465-3.845-1.792-8.13-2.8-12.653-2.8-7.188 0-13.783 2.53-18.95 6.747-7.5-14.685-22.762-24.746-40.384-24.746C189.296 171 169 191.297 169 216.334c0 17.93 10.41 33.422 25.512 40.777-1.4 3.468-2.178 7.254-2.178 11.223 0 3.916.758 7.652 2.123 11.082-6.702 4.028-11.458 10.954-12.546 19.044-.96-.078-1.93-.127-2.91-.127-20.25 0-36.665 16.417-36.665 36.667 0 8.874 3.152 17.01 8.397 23.353-.242-.007-.485-.02-.73-.02-13.44 0-24.333 10.896-24.333 24.334C125.666 396.105 136.56 407 150 407c7.325 0 13.89-3.24 18.35-8.36 5.705 5.97 13.74 9.694 22.65 9.694 12.583 0 23.427-7.42 28.412-18.12.965.07 1.938.12 2.92.12 21.356 0 38.668-17.313 38.668-38.667 0-1.218-.063-2.42-.173-3.608 7.312 2.754 15.23 4.273 23.506 4.273 11.475 0 22.27-2.9 31.7-8.006 7.637 5.055 16.79 8.005 26.634 8.005 7.362 0 14.336-1.653 20.58-4.598 5.605 8.017 14.897 13.265 25.42 13.265 8.108 0 15.486-3.117 21.01-8.214 3.6 3.04 8.244 4.88 13.323 4.88.836 0 1.656-.064 2.466-.16-.3 1-.466 2.06-.466 3.16 0 6.075 4.925 11 11 11s11-4.925 11-11c0-5.037-3.39-9.273-8.01-10.578z"/>
    <path d="M0,300a300,300 0 1,0 600,0a300,300 0 1,0 -600,0"></path>
  </g>
  <g id="octagon">
    <path id="top" d="M298.5 100v160"/>
    <path id="top-right" d="M328.23 272.168L441.37 159.03"/>
    <path id="right" d="M340 301.5h160"/>
    <path id="right-bottom" d="M328.23 328.632L441.37 441.77"/>
    <path id="bottom" d="M298.5 340v160"/>
    <path id="bottom-left" d="M158.632 441.77l113.136-113.14"/>
    <path id="left" d="M100 301.5h160"/>
    <path id="left-top" d="M158.632 159.032L271.77 272.168"/>
  </g>
</svg>
