  <svg xmlns="http://www.w3.org/2000/svg" viewBox="0 0 600 600" width="600" height="600">
    <g id="shape">
      <path id="display-shape" d="M495 300c0-27.614-22.386-50-50-50h-45c-27.614 0-50-22.386-50-50v-45c0-27.614-22.386-50-50-50s-50 22.386-50 50v45c0 27.614-22.386 50-50 50h-45c-27.614 0-50 22.386-50 50s22.386 50 50 50h45c27.614 0 50 22.386 50 50v45c0 27.614 22.386 50 50 50s50-22.386 50-50v-45c0-27.614 22.386-50 50-50h45c27.614 0 50-22.386 50-50z"/>
      <path d="M0,300a300,300 0 1,0 600,0a300,300 0 1,0 -600,0"></path>
    </g>
    <g id="octagon">
      <path id="top" d="M298.5 100v160"/>
      <path id="top-right" d="M328.23 272.168L441.37 159.03"/>
      <path id="right" d="M340 301.5h160"/>
      <path id="right-bottom" d="M328.23 328.632L441.37 441.77"/>
      <path id="bottom" d="M298.5 340v160"/>
      <path id="bottom-left" d="M158.632 441.77l113.136-113.14"/>
      <path id="left" d="M100 301.5h160"/>
      <path id="left-top" d="M158.632 159.032L271.77 272.168"/>
    </g>
  </svg>
