<svg xmlns="http://www.w3.org/2000/svg" viewBox="0 0 600 600" width="600" height="600">
  <g id="shape">
    <path id="display-shape" d="M465.513 271.5H358.975c-16.285 0-30.475-14.19-30.475-30.475V134.487C328.5 118.202 315.285 105 299 105s-29.5 13.202-29.5 29.487v106.538c0 16.285-12.19 30.475-28.475 30.475H134.487C118.202 271.5 105 284.715 105 301s13.202 29.5 29.487 29.5h106.538c16.285 0 28.475 12.19 28.475 28.475v106.538C269.5 481.798 282.715 495 299 495s29.5-13.202 29.5-29.487V358.975c0-16.285 14.19-28.475 30.475-28.475h106.538C481.798 330.5 495 317.285 495 301s-13.202-29.5-29.487-29.5z"/>
    <path d="M0,300a300,300 0 1,0 600,0a300,300 0 1,0 -600,0"/>
  </g>
  <g id="octagon">
    <path id="top" d="M298.5 100v160"/>
    <path id="top-right" d="M328.23 272.168L441.37 159.03"/>
    <path id="right" d="M340 301.5h160"/>
    <path id="right-bottom" d="M328.23 328.632L441.37 441.77"/>
    <path id="bottom" d="M298.5 340v160"/>
    <path id="bottom-left" d="M158.632 441.77l113.136-113.14"/>
    <path id="left" d="M100 301.5h160"/>
    <path id="left-top" d="M158.632 159.032L271.77 272.168"/>
  </g>
</svg>
