<svg xmlns="http://www.w3.org/2000/svg" viewBox="0 0 600 600" width="600" height="600">
  <g id="shape">
    <path id="display-shape" d="M495 300.5c0-16.285-13.202-29.5-29.487-29.5H358.975C342.69 271 329 257.31 329 241.025V134.487C329 118.202 315.785 105 299.5 105S270 118.202 270 134.487v106.538C270 257.31 257.31 271 241.025 271H134.487C118.202 271 105 284.215 105 300.5s13.202 29.5 29.487 29.5h106.538C257.31 330 270 342.69 270 358.975v106.538C270 481.798 283.215 495 299.5 495s29.5-13.202 29.5-29.487V358.975C329 342.69 342.69 330 358.975 330h106.538C481.798 330 495 316.785 495 300.5z"/>
    <path d="M0,300a300,300 0 1,0 600,0a300,300 0 1,0 -600,0"></path>
  </g>
  <g id="octagon">
    <path id="top" d="M298.5 100v160"/>
    <path id="top-right" d="M328.23 272.168L441.37 159.03"/>
    <path id="right" d="M340 301.5h160"/>
    <path id="right-bottom" d="M328.23 328.632L441.37 441.77"/>
    <path id="bottom" d="M298.5 340v160"/>
    <path id="bottom-left" d="M158.632 441.77l113.136-113.14"/>
    <path id="left" d="M100 301.5h160"/>
    <path id="left-top" d="M158.632 159.032L271.77 272.168"/>
  </g>
</svg>
