<svg xmlns="http://www.w3.org/2000/svg" viewBox="0 0 600 600" width="600" height="600">
  <g id="shape">
    <path id="display-shape" d="M425.61 289.308c-14.982-11.89-22.622-30.33-20.434-49.335 1.43-12.43-2.823-24.635-11.67-33.48-8.85-8.847-21.05-13.1-33.48-11.667-19.01 2.184-37.445-5.45-49.335-20.433-7.77-9.803-19.41-15.425-31.92-15.425-12.51 0-24.15 5.622-31.92 15.424-11.89 14.982-30.32 22.618-49.33 20.435-12.43-1.436-24.63 2.82-33.48 11.667-8.84 8.845-13.1 21.05-11.67 33.483 2.19 19-5.45 37.442-20.43 49.334-9.8 7.78-15.42 19.42-15.42 31.93s5.62 24.15 15.42 31.93c14.99 11.89 22.63 30.33 20.44 49.34-1.43 12.43 2.82 24.64 11.67 33.48 8.85 8.85 21.06 13.1 33.48 11.67 19-2.18 37.45 5.45 49.34 20.44 7.78 9.8 19.41 15.43 31.93 15.43 12.51 0 24.15-5.62 31.93-15.42 11.89-14.98 30.33-22.62 49.33-20.44 12.44 1.43 24.64-2.82 33.48-11.67 8.85-8.84 13.11-21.05 11.67-33.48-2.19-19 5.45-37.44 20.44-49.33 9.8-7.77 15.42-19.41 15.42-31.92s-5.62-24.14-15.42-31.92z"/>
    <path d="M0,300a300,300 0 1,0 600,0a300,300 0 1,0 -600,0"/>
  </g>
  <g id="octagon">
    <path id="top" d="M298.5 100v160"/>
    <path id="top-right" d="M328.23 272.168L441.37 159.03"/>
    <path id="right" d="M340 301.5h160"/>
    <path id="right-bottom" d="M328.23 328.632L441.37 441.77"/>
    <path id="bottom" d="M298.5 340v160"/>
    <path id="bottom-left" d="M158.632 441.77l113.136-113.14"/>
    <path id="left" d="M100 301.5h160"/>
    <path id="left-top" d="M158.632 159.032L271.77 272.168"/>
  </g>
</svg>
