<svg xmlns="http://www.w3.org/2000/svg" viewBox="0 0 600 600" width="600" height="600">
  <g id="shape">
    <path id="display-shape" d="M479 273c-8-30.5-14-45-39.5-72.5-21.177-22.837-44.5-35.5-89.5-35s-75 8-98 68.5c-24.875 65.433-40.296 54.57-75.48 65.624C143.5 310 125 334.03 125 366c0 37.83 34.252 67.017 72 64.5 15-1 41.946-.246 70.473-38.873s51.832-54 91.027-7.127c48.5 58 99.548 7.06 112-25.5 6.003-13.966 19.055-45.762 8.5-86z"/>
    <path d="M0,300a300,300 0 1,0 600,0a300,300 0 1,0 -600,0"/>
  </g>
  <g id="octagon">
    <path id="top" d="M298.5 100v160"/>
    <path id="top-right" d="M328.23 272.168L441.37 159.03"/>
    <path id="right" d="M340 301.5h160"/>
    <path id="right-bottom" d="M328.23 328.632L441.37 441.77"/>
    <path id="bottom" d="M298.5 340v160"/>
    <path id="bottom-left" d="M158.632 441.77l113.136-113.14"/>
    <path id="left" d="M100 301.5h160"/>
    <path id="left-top" d="M158.632 159.032L271.77 272.168"/>
  </g>
</svg>
