<svg xmlns="http://www.w3.org/2000/svg" viewBox="0 0 600 600" width="600" height="600">
  <g id="shape">
    <path id="display-shape" d="M340 145.5c-7.833-21-17.91-40-40-40-22.092 0-32 18.167-40 40-4.73 12.908-55.25 149.207-55.25 170.75 0 25.268 42.645 45.75 95.25 45.75s95.25-20.482 95.25-45.75c0-22.057-50.005-156.687-55.25-170.75z"/>
    <path d="M0,300a300,300 0 1,0 600,0a300,300 0 1,0 -600,0"></path>
  </g>
  <g id="octagon">
    <path id="top" d="M298.5 100v160"/>
    <path id="top-right" d="M328.23 272.168L441.37 159.03"/>
    <path id="right" d="M340 301.5h160"/>
    <path id="right-bottom" d="M328.23 328.632L441.37 441.77"/>
    <path id="bottom" d="M298.5 340v160"/>
    <path id="bottom-left" d="M158.632 441.77l113.136-113.14"/>
    <path id="left" d="M100 301.5h160"/>
    <path id="left-top" d="M158.632 159.032L271.77 272.168"/>
  </g>
</svg>
