<svg xmlns="http://www.w3.org/2000/svg" viewBox="0 0 600 600" width="600" height="600">
  <g id="shape">
    <path id="display-shape" d="M479.763 254.32c0 44.197-24.337 80.274-74.402 110.293-63.16 37.876-94.2 83.472-94.5 83.928-2.43 3.62-6.5 5.79-10.85 5.79s-8.41-2.16-10.84-5.77c-.47-.7-31.85-46.37-94.51-83.94-50.06-30.02-74.4-66.1-74.4-110.29 0-52.67 34.33-108.64 97.95-108.64 42.61 0 68.45 18.87 81.82 33.01 13.38-14.13 39.21-33 81.82-33 63.62 0 97.95 55.98 97.95 108.65z"/>
    <path d="M0,300a300,300 0 1,0 600,0a300,300 0 1,0 -600,0"/>
  </g>
  <g id="octagon">
    <path id="top" d="M298.5 100v160"/>
    <path id="top-right" d="M328.23 272.168L441.37 159.03"/>
    <path id="right" d="M340 301.5h160"/>
    <path id="right-bottom" d="M328.23 328.632L441.37 441.77"/>
    <path id="bottom" d="M298.5 340v160"/>
    <path id="bottom-left" d="M158.632 441.77l113.136-113.14"/>
    <path id="left" d="M100 301.5h160"/>
    <path id="left-top" d="M158.632 159.032L271.77 272.168"/>
  </g>
</svg>
