<svg xmlns="http://www.w3.org/2000/svg" viewBox="0 0 600 600" width="600" height="600">
  <g id="shape">
    <path id="display-shape" d="M447.178 283.506c-.036-.498-.013-.963-.086-1.418-.166-1.07-.506-2.118-.918-3.127-.093-.21-.093-.44-.19-.66-.013-.01-.032-.03-.038-.05 0-.02-.013-.03-.023-.05l-37.14-78.85c-.085-.18-.245-.34-.343-.52-.13-.22-.173-.49-.314-.71-.283-.47-.67-.85-1.004-1.28-.338-.44-.646-.91-1.023-1.3-.56-.58-1.19-1.07-1.84-1.55-.41-.32-.79-.67-1.23-.93-.75-.45-1.57-.77-2.39-1.08-.41-.15-.81-.07-1.25-.19-1.28-.36-2.61-.25-3.99-.25H176.54c-1.297 0-2.556-.14-3.78.18-.43.11-.82.18-1.24.32-.75.28-1.523.45-2.227.86-.45.26-.82.57-1.238.85-.604.43-1.23.82-1.765 1.34-.377.37-.68.8-1.015 1.22-.396.47-.86.89-1.185 1.41l-50.435 78.86c-.188.31-.277.66-.447.98-.144.26-.385.48-.51.76-.133.3-.14.61-.265.89-.27.73-.486 1.45-.656 2.2-.126.6-.234 1.18-.295 1.76-.07.74-.064 1.48-.028 2.22.046.61.09 1.2.185 1.8.13.723.36 1.404.59 2.103.21.596.39 1.19.67 1.75.09.19.13.417.22.616.26.493.65.88.98 1.32.25.385.41.79.71 1.134l152.44 180.05c2.63 3.103 6.57 5.31 10.49 5.195.05 0 .1.102.13.102.21.013.42.095.65.095h.03c1.31 0 2.61-.33 3.85-.66.37-.115.7-.274 1.07-.415.92-.32 1.81-.77 2.66-1.274.28-.164.58-.34.86-.53 1-.693 1.95-1.5 2.76-2.465l154-180.05c.19-.23.31-.52.48-.763.25-.31.55-.57.76-.92.22-.35.33-.74.52-1.11.26-.48.5-.96.69-1.48.29-.75.48-1.51.66-2.27.11-.52.23-1.01.28-1.526.1-.85.06-1.68 0-2.524z"/>
    <path d="M0,300a300,300 0 1,0 600,0a300,300 0 1,0 -600,0"/>
  </g>
  <g id="octagon">
    <path id="top" d="M298.5 100v160"/>
    <path id="top-right" d="M328.23 272.168L441.37 159.03"/>
    <path id="right" d="M340 301.5h160"/>
    <path id="right-bottom" d="M328.23 328.632L441.37 441.77"/>
    <path id="bottom" d="M298.5 340v160"/>
    <path id="bottom-left" d="M158.632 441.77l113.136-113.14"/>
    <path id="left" d="M100 301.5h160"/>
    <path id="left-top" d="M158.632 159.032L271.77 272.168"/>
  </g>
</svg>
