<svg xmlns="http://www.w3.org/2000/svg" viewBox="0 0 600 600" width="600" height="600">
  <g id="shape">
    <path id="display-shape" d="M447.672 307.447c-6.646-6.646-16.254-8.54-24.604-5.75l31.146-98.85c.767-2.435.113-5.097-1.696-6.905l-48.48-48.473c-1.793-1.8-4.436-2.47-6.863-1.71l-152.23 46.79c-22.33 5.83-43.404 17.5-60.8 34.9-3.46 3.46-6.71 7.1-9.765 10.9-.125.14-.242.28-.353.43-14.187 17.76-23.82 38.89-27.644 60.93l-18.876 17.5c-1.403 1.29-2.202 3.12-2.196 5.04.07 40.65 15.94 78.87 44.69 107.61 27.98 27.98 68 44.68 107.05 44.68 1.81 0 3.55-.71 4.83-1.98l18.87-18.69c27.59-4.58 52.62-17.47 72.5-37.34 13.86-13.87 24.56-30.72 31.19-49.03l10.2 2.37c.52.12 1.04.18 1.56.18 1.8 0 3.55-.71 4.85-2.02l26.66-26.66c9.36-9.36 9.36-24.58 0-33.95z"/>
    <path d="M0,300a300,300 0 1,0 600,0a300,300 0 1,0 -600,0"/>
  </g>
  <g id="octagon">
    <path id="top" d="M298.5 100v160"/>
    <path id="top-right" d="M328.23 272.168L441.37 159.03"/>
    <path id="right" d="M340 301.5h160"/>
    <path id="right-bottom" d="M328.23 328.632L441.37 441.77"/>
    <path id="bottom" d="M298.5 340v160"/>
    <path id="bottom-left" d="M158.632 441.77l113.136-113.14"/>
    <path id="left" d="M100 301.5h160"/>
    <path id="left-top" d="M158.632 159.032L271.77 272.168"/>
  </g>
</svg>
