<svg xmlns="http://www.w3.org/2000/svg" viewBox="0 0 600 600" width="600" height="600">
  <g id="shape">
    <path id="display-shape" d="M461.836 354.748c-15.197 17.36-39.022 26.16-70.817 26.16-57.68 0-81.33-19.02-91.02-34.803-9.7 15.782-33.35 34.804-91.02 34.804-31.79 0-55.62-8.81-70.82-26.17-21.2-24.21-17.26-55.83-17.08-57.16.47-3.56 3.66-6.1 7.23-5.82 3.58.29 6.29 3.35 6.17 6.93-.02 2.48.98 15.31 22.38 15.81h.21c9.58-.01 19.74-16.08 29.57-31.63 14.76-23.35 31.49-49.81 59.14-49.81 30.47 0 46.45 13.72 54.19 24.15 7.75-10.43 23.73-24.15 54.2-24.15 27.65 0 44.38 26.46 59.14 49.8 9.83 15.54 19.99 31.62 29.57 31.62h.21c21.4-.5 22.4-13.33 22.38-15.9-.12-3.59 2.6-6.6 6.17-6.9 3.55-.29 6.76 2.3 7.23 5.86.17 1.33 4.11 32.95-17.08 57.16z"/>
    <path d="M0,300a300,300 0 1,0 600,0a300,300 0 1,0 -600,0"/>
  </g>
  <g id="octagon">
    <path id="top" d="M298.5 100v160"/>
    <path id="top-right" d="M328.23 272.168L441.37 159.03"/>
    <path id="right" d="M340 301.5h160"/>
    <path id="right-bottom" d="M328.23 328.632L441.37 441.77"/>
    <path id="bottom" d="M298.5 340v160"/>
    <path id="bottom-left" d="M158.632 441.77l113.136-113.14"/>
    <path id="left" d="M100 301.5h160"/>
    <path id="left-top" d="M158.632 159.032L271.77 272.168"/>
  </g>
</svg>
