<svg xmlns="http://www.w3.org/2000/svg" viewBox="0 0 600 600" width="600" height="600">
  <g id="shape">
    <path id="display-shape" d="M479.4 239.134c-4.405-13.555-16.12-23.432-30.227-25.482l-79.878-11.607-35.718-72.378c-6.307-12.782-19.322-20.872-33.575-20.872-14.253 0-27.27 8.092-33.576 20.87l-35.722 72.38-79.88 11.607c-14.104 2.05-25.82 11.928-30.225 25.482-4.41 13.554-.74 28.433 9.47 38.382l57.8 56.342-13.65 79.555c-2.41 14.048 3.36 28.244 14.89 36.62 11.53 8.378 26.82 9.483 39.43 2.852L300 415.322l71.446 37.563c5.477 2.88 11.457 4.3 17.417 4.3 7.765 0 15.49-2.41 22.013-7.15 11.53-8.378 17.306-22.573 14.895-36.62l-13.64-79.557 57.8-56.343c10.2-9.95 13.88-24.828 9.47-38.38z"/>
    <path d="M0,300a300,300 0 1,0 600,0a300,300 0 1,0 -600,0"/>
  </g>
  <g id="octagon">
    <path id="top" d="M298.5 100v160"/>
    <path id="top-right" d="M328.23 272.168L441.37 159.03"/>
    <path id="right" d="M340 301.5h160"/>
    <path id="right-bottom" d="M328.23 328.632L441.37 441.77"/>
    <path id="bottom" d="M298.5 340v160"/>
    <path id="bottom-left" d="M158.632 441.77l113.136-113.14"/>
    <path id="left" d="M100 301.5h160"/>
    <path id="left-top" d="M158.632 159.032L271.77 272.168"/>
  </g>
</svg>
