<svg xmlns="http://www.w3.org/2000/svg" viewBox="0 0 600 600" width="600" height="600">
  <g id="shape">
    <path id="display-shape" d="M440.99 347.09c2.92-3.565 4.677-8.122 4.677-13.09 0-11.414-9.253-20.667-20.667-20.667-2.116 0-4.157.32-6.08.912-4.593-10.156-14.493-17.392-26.168-18.167-.662-6.54-2.63-12.696-5.635-18.202 1.215-3.627 1.883-7.505 1.883-11.542 0-6.54-1.736-12.67-4.762-17.973C398.1 237.37 407 220.4 407 201.34c0-2.52-.174-4.995-.475-7.432 10.998-2.762 19.142-12.712 19.142-24.567 0-13.99-11.342-25.33-25.333-25.33-7.438 0-14.127 3.21-18.762 8.31-9.774-6.9-21.694-10.97-34.572-10.97-28.837 0-52.914 20.35-58.68 47.47-3.845-1.79-8.13-2.8-12.653-2.8-7.188 0-13.783 2.53-18.95 6.75-7.5-14.68-22.762-24.74-40.384-24.74C191.296 168 171 188.3 171 213.34c0 17.93 10.41 33.42 25.512 40.774-1.4 3.47-2.178 7.26-2.178 11.23 0 3.92.758 7.65 2.123 11.08-6.702 4.03-11.458 10.958-12.546 19.048-.96-.08-1.93-.13-2.91-.13-20.25 0-36.66 16.42-36.66 36.67 0 8.88 3.15 17.01 8.4 23.36-.24-.01-.48-.02-.73-.02-13.44 0-24.33 10.89-24.33 24.33C127.67 393.11 138.56 404 152 404c7.325 0 6.75-1 18.5-3.75 12 4 13.75 6 22.5 5.084 12.515-1.31 23.427-7.42 28.412-18.12.965.07 1.938.12 2.92.12 21.356 0 32.918-5.334 44.418-25.584.602-1.06 14.75-1.75 27-6.75 11.494-4.69 13.5-6.75 22.282-13.672 7.638 5.055 16.79 8.005 26.635 8.005 7.362 0 14.336-1.653 20.58-4.598 5.605 8.017 14.897 13.265 25.42 13.265 8.108 0 15.486-3.116 21.01-8.213 3.6 3.04 8.244 4.88 13.323 4.88.836 0 1.656-.064 2.466-.16-.3 1-.466 2.06-.466 3.16 0 6.075 4.925 11 11 11s11-4.925 11-11c0-5.037-3.39-9.273-8.01-10.578z"/>
    <path d="M0,300a300,300 0 1,0 600,0a300,300 0 1,0 -600,0"/>
  </g>
  <g id="octagon">
    <path id="top" d="M298.5 100v160"/>
    <path id="top-right" d="M328.23 272.168L441.37 159.03"/>
    <path id="right" d="M340 301.5h160"/>
    <path id="right-bottom" d="M328.23 328.632L441.37 441.77"/>
    <path id="bottom" d="M298.5 340v160"/>
    <path id="bottom-left" d="M158.632 441.77l113.136-113.14"/>
    <path id="left" d="M100 301.5h160"/>
    <path id="left-top" d="M158.632 159.032L271.77 272.168"/>
  </g>
</svg>
